<svg width="132" height="32" viewBox="0 0 132 32" fill="none" xmlns="http://www.w3.org/2000/svg">
<path d="M48.7048 22.3861C47.854 22.759 46.8168 22.9454 45.5931 22.9454C44.5982 22.9454 43.6915 22.7725 42.8695 22.4285C42.0475 22.0844 41.3356 21.5929 40.7339 20.9523C40.1323 20.3116 39.6679 19.5523 39.3442 18.6727C39.0188 17.7931 38.8561 16.8287 38.8561 15.7762C38.8561 14.7237 39.0188 13.7593 39.3442 12.8797C39.6696 12.0001 40.1323 11.2408 40.7339 10.6001C41.3356 9.95948 42.0475 9.46797 42.8695 9.12391C43.6915 8.77986 44.5999 8.60699 45.5931 8.60699C46.7202 8.60699 47.71 8.78833 48.5608 9.15103C48.9862 9.33238 49.3811 9.55102 49.7421 9.80524C50.3641 10.2425 51.2047 10.1917 51.742 9.65271L51.781 9.61373C52.4538 8.94087 52.364 7.82057 51.5878 7.27144C51.0319 6.87824 50.4387 6.53927 49.8082 6.25453C48.6218 5.71896 47.2184 5.45117 45.5931 5.45117C44.1406 5.45117 42.7966 5.71896 41.5644 6.25453C40.3323 6.79011 39.256 7.52567 38.3391 8.46292C37.4222 9.40018 36.7138 10.495 36.2172 11.7458C35.7206 12.9983 35.4714 14.3407 35.4714 15.7745C35.4714 17.2084 35.7189 18.5507 36.2172 19.8032C36.7138 21.0557 37.4205 22.1539 38.3391 23.0997C39.256 24.0454 40.3323 24.7826 41.5644 25.308C42.7966 25.8334 44.1406 26.0962 45.5931 26.0962C47.1981 26.0962 48.6218 25.8284 49.8658 25.2928C50.5336 25.0047 51.1556 24.6589 51.7284 24.2555C52.5098 23.7064 52.603 22.5827 51.9284 21.9082L51.8878 21.8675C51.3488 21.3285 50.5048 21.2777 49.8828 21.72C49.5217 21.976 49.1285 22.1963 48.7031 22.3827L48.7048 22.3861Z" fill="#1F1F1F"/>
<path d="M55.757 5.16821H55.7553C54.8848 5.16821 54.1791 5.87391 54.1791 6.74442V24.237C54.1791 25.1075 54.8848 25.8132 55.7553 25.8132H55.757C56.6275 25.8132 57.3332 25.1075 57.3332 24.237V6.74442C57.3332 5.87391 56.6275 5.16821 55.757 5.16821Z" fill="#1F1F1F"/>
<path d="M65.2346 21.0165L62.0975 13.0389C61.8619 12.4423 61.2856 12.0491 60.6433 12.0491H60.5941C59.4755 12.0491 58.7196 13.1897 59.1552 14.2185L63.194 23.7757C63.3686 24.191 63.3567 24.6605 63.1601 25.0655L61.1043 29.3027C60.6009 30.3399 61.3568 31.5466 62.5093 31.5466C63.1211 31.5466 63.6754 31.189 63.9296 30.6331L66.0651 25.9553L71.4412 14.2625C71.9174 13.2287 71.1615 12.0491 70.0226 12.0491H70.0039C69.3735 12.0491 68.804 12.4287 68.5616 13.0117L65.2346 21.0165Z" fill="#1F1F1F"/>
<path d="M82.3849 12.0493C81.9748 12.0493 81.585 12.229 81.3172 12.5391L76.175 18.5202V6.57494C76.175 5.797 75.5445 5.16821 74.7683 5.16821H74.4293C73.6514 5.16821 73.0226 5.7987 73.0226 6.57494V24.4048C73.0226 25.1827 73.6531 25.8115 74.4293 25.8115H74.7683C75.5462 25.8115 76.175 25.181 76.175 24.4048V19.0643L81.3443 25.303C81.6121 25.6251 82.0087 25.8132 82.4273 25.8132H82.7375C83.9374 25.8132 84.5866 24.4099 83.8103 23.4946L79.6935 18.6491L83.4391 14.3865C84.2374 13.4781 83.5917 12.051 82.3815 12.051L82.3849 12.0493Z" fill="#1F1F1F"/>
<path d="M102.498 8.45109C101.56 7.50536 100.476 6.76979 99.2436 6.24269C98.0114 5.71729 96.6776 5.45459 95.2437 5.45459C93.8099 5.45459 92.476 5.71729 91.2439 6.24269C90.0117 6.7681 88.9304 7.50366 88.0033 8.45109C87.0762 9.39681 86.3491 10.4917 85.8237 11.734C85.2983 12.9763 85.0356 14.3153 85.0356 15.7474C85.0356 17.1796 85.2983 18.5236 85.8237 19.7761C86.3491 21.0286 87.0796 22.1268 88.0169 23.0743C88.9524 24.02 90.0422 24.7606 91.2863 25.2962C92.5286 25.8318 93.8675 26.0996 95.2997 26.0996C96.7318 26.0996 98.0385 25.8318 99.2707 25.2962C100.503 24.7606 101.582 24.0251 102.511 23.0878C103.438 22.1523 104.164 21.0574 104.691 19.8049C105.216 18.5524 105.479 17.2101 105.479 15.7762C105.479 14.3424 105.216 13.0001 104.691 11.7476C104.165 10.4951 103.433 9.39681 102.498 8.44939V8.45109ZM101.221 19.4897C100.638 20.5693 99.8351 21.415 98.8131 22.0268C97.7911 22.6387 96.5996 22.9438 95.2437 22.9438C94.2505 22.9438 93.3319 22.7675 92.4913 22.4133C91.6506 22.0607 90.9286 21.5675 90.327 20.9371C89.7253 20.3066 89.2558 19.5456 88.9219 18.6575C88.5881 17.7694 88.4203 16.7982 88.4203 15.7474C88.4203 14.3339 88.7118 13.0899 89.2948 12.0204C89.8778 10.9493 90.6812 10.1137 91.7032 9.51206C92.7252 8.91039 93.9065 8.60871 95.2437 8.60871C96.2572 8.60871 97.1793 8.78158 98.0114 9.12564C98.8436 9.46969 99.5639 9.96289 100.176 10.6019C100.788 11.2425 101.26 11.9967 101.594 12.8679C101.928 13.7373 102.096 14.6983 102.096 15.7491C102.096 17.1643 101.805 18.4117 101.221 19.4913V19.4897Z" fill="#1F1F1F"/>
<path d="M117.692 12.7239C116.689 12.0833 115.565 11.7629 114.323 11.7629C113.291 11.7629 112.363 11.9884 111.541 12.4375C110.984 12.7426 110.508 13.1256 110.108 13.5849C110.108 12.7375 109.421 12.0511 108.574 12.0511H108.489C107.642 12.0511 106.955 12.7375 106.955 13.5849V30.0131C106.955 30.8605 107.642 31.5469 108.489 31.5469H108.574C109.421 31.5469 110.108 30.8605 110.108 30.0131V24.3048C110.497 24.7523 110.965 25.1268 111.513 25.4268C112.335 25.876 113.272 26.1014 114.323 26.1014C115.565 26.1014 116.689 25.7861 117.692 25.1557C118.695 24.5252 119.489 23.6693 120.072 22.5896C120.655 21.51 120.946 20.3016 120.946 18.9627C120.946 17.6237 120.655 16.3865 120.072 15.3069C119.489 14.2273 118.695 13.3663 117.692 12.7256V12.7239ZM117.204 21.11C116.87 21.7405 116.411 22.2337 115.828 22.5863C115.245 22.9405 114.57 23.1167 113.806 23.1167C113.041 23.1167 112.362 22.9405 111.77 22.5863C111.177 22.2337 110.719 21.7405 110.394 21.11C110.069 20.4796 109.906 19.7525 109.906 18.9305C109.906 18.1085 110.069 17.3814 110.394 16.7509C110.719 16.1204 111.177 15.6289 111.77 15.2747C112.362 14.9204 113.041 14.7442 113.806 14.7442C114.57 14.7442 115.243 14.9204 115.828 15.2747C116.411 15.6289 116.87 16.1204 117.204 16.7509C117.538 17.3814 117.706 18.1085 117.706 18.9305C117.706 19.7525 117.538 20.4796 117.204 21.11Z" fill="#1F1F1F"/>
<path d="M130.149 18.4303C129.605 18.115 129.03 17.8659 128.429 17.6845C127.827 17.5032 127.253 17.3354 126.709 17.1828C126.165 17.0303 125.719 16.849 125.375 16.6388C125.031 16.4286 124.859 16.132 124.859 15.7507C124.859 15.388 125.031 15.11 125.375 14.9185C125.719 14.727 126.207 14.6321 126.837 14.6321C127.507 14.6321 128.098 14.7558 128.615 15.005C128.788 15.088 128.954 15.1846 129.114 15.2948C129.691 15.6948 130.466 15.649 130.963 15.1524L131.017 15.0982C131.62 14.4948 131.569 13.4932 130.893 12.9728C130.576 12.7288 130.234 12.522 129.864 12.3525C129.014 11.961 128.034 11.7644 126.925 11.7644C125.817 11.7644 124.971 11.9373 124.215 12.2813C123.46 12.6254 122.878 13.1135 122.466 13.744C122.054 14.3745 121.849 15.1304 121.849 16.0083C121.849 16.8303 122.021 17.4998 122.365 18.015C122.709 18.5319 123.153 18.937 123.698 19.2336C124.243 19.5302 124.817 19.7641 125.419 19.9353C126.02 20.1082 126.595 20.2743 127.139 20.437C127.683 20.5997 128.129 20.7946 128.473 21.0251C128.817 21.2556 128.988 21.5793 128.988 21.9996C128.988 22.4199 128.807 22.7064 128.444 22.9165C128.081 23.1267 127.546 23.2318 126.839 23.2318C126.056 23.2318 125.353 23.0928 124.732 22.8165C124.456 22.6928 124.193 22.5437 123.946 22.3657C123.383 21.9623 122.605 22.0488 122.115 22.5386L122.109 22.5454C121.487 23.1674 121.571 24.1995 122.287 24.7114C122.397 24.791 122.509 24.8656 122.624 24.9385C123.215 25.3113 123.866 25.5978 124.573 25.7995C125.28 25.9995 126.015 26.1012 126.781 26.1012C128.386 26.1012 129.658 25.7096 130.595 24.9249C131.53 24.1419 132 23.0809 132 21.742C132 20.9013 131.829 20.2183 131.485 19.6912C131.141 19.1658 130.697 18.7455 130.151 18.4303H130.149Z" fill="#1F1F1F"/>
<path d="M29.6547 3.41382C26.4243 -0.223331 20.8364 -0.55552 17.1976 2.67487C15.4925 4.19006 14.5129 6.22219 14.2875 8.32889C13.5197 8.11364 12.7232 7.97806 11.9079 7.9289C8.91482 7.74925 6.02341 8.75091 3.77773 10.7441C1.53205 12.7372 0.198203 15.4862 0.0202441 18.4844C-0.157715 21.4826 0.842246 24.369 2.83709 26.6146C4.83023 28.8603 7.57928 30.1942 10.5775 30.3721C10.8046 30.3857 11.0317 30.3925 11.2588 30.3925C14.0095 30.3925 16.6332 29.3993 18.7077 27.557C20.9534 25.5638 22.2872 22.8148 22.4652 19.8166C22.5635 18.1624 22.0652 16.4743 21.3754 14.9744C21.2059 14.6066 21.0178 14.2354 20.8347 13.8778C20.4398 13.1016 20.0297 12.2982 19.7771 11.4372C19.2771 9.73392 19.2093 7.82721 20.6415 6.55438C21.333 5.94084 22.194 5.63916 23.0533 5.63916C24.0566 5.63916 25.0566 6.05101 25.7735 6.85945C26.4176 7.58485 26.7413 8.51871 26.6836 9.48817C26.626 10.4576 26.1938 11.3457 25.4684 11.9915C24.743 12.6355 23.8041 12.9575 22.8397 12.9016C22.4702 12.8796 22.116 12.7999 21.7804 12.6745C22.2177 13.4863 23.2431 15.5896 23.6482 18.0709C25.5939 17.9438 27.4328 17.1862 28.9141 15.871C32.5529 12.6406 32.8834 7.05266 29.653 3.41382H29.6547ZM17.2857 19.5098C17.1891 21.1233 16.4705 22.6046 15.262 23.6775C14.0536 24.7503 12.4994 25.291 10.8842 25.1944C9.27074 25.0977 7.78944 24.3791 6.7166 23.1707C5.64376 21.9623 5.1048 20.4064 5.19971 18.7929C5.29632 17.1794 6.01493 15.6981 7.22336 14.6253C8.34027 13.6338 9.75377 13.0982 11.2351 13.0982C11.3571 13.0982 11.4791 13.1016 11.6012 13.1084C13.2147 13.205 14.696 13.9236 15.7688 15.132C16.8433 16.3405 17.3806 17.8963 17.2857 19.5098Z" fill="#1E88E5"/>
<path opacity="0.42" d="M5.20312 18.8013C5.29972 17.1878 6.01834 15.7065 7.22677 14.6337C8.34368 13.6422 9.75718 13.1066 11.2385 13.1066C11.3605 13.1066 11.4825 13.11 11.6046 13.1168C13.1689 13.21 14.6062 13.8879 15.6705 15.0303C14.6892 13.5337 14.2146 11.7321 14.2146 9.79827C14.2146 9.2949 14.2129 8.81017 14.2875 8.32714C13.5384 8.12206 12.7062 7.98308 11.913 7.93732C8.91993 7.75767 6.02851 8.75933 3.78283 10.7525C1.53715 12.7456 0.203307 15.4947 0.025348 18.4929C0.0219583 18.5454 0.0219585 18.5979 0.0202637 18.6505L5.26583 20.0843C5.20142 19.664 5.17939 19.2352 5.20651 18.8013H5.20312Z" fill="url(#paint0_linear_6018_16542)"/>
<defs>
<linearGradient id="paint0_linear_6018_16542" x1="14.9248" y1="9.54574" x2="3.30658" y2="16.8166" gradientUnits="userSpaceOnUse">
<stop offset="0.31" stop-color="#005D96"/>
<stop offset="1" stop-color="#1E88E5"/>
</linearGradient>
</defs>
</svg>
