<svg width="48" height="48" viewBox="0 0 48 48" fill="none" xmlns="http://www.w3.org/2000/svg">
<rect width="48" height="48" rx="24" fill="#3D54CD"/>
<path d="M24 20.2002C24 19.1393 23.5786 18.1219 22.8284 17.3718C22.0783 16.6216 21.0609 16.2002 20 16.2002H14V31.2002H21C21.7956 31.2002 22.5587 31.5163 23.1213 32.0789C23.6839 32.6415 24 33.4045 24 34.2002M24 20.2002V34.2002M24 20.2002C24 19.1393 24.4214 18.1219 25.1716 17.3718C25.9217 16.6216 26.9391 16.2002 28 16.2002H34V31.2002H27C26.2044 31.2002 25.4413 31.5163 24.8787 32.0789C24.3161 32.6415 24 33.4045 24 34.2002" stroke="white" stroke-width="2" stroke-linecap="round" stroke-linejoin="round"/>
</svg>
