<svg width="16" height="14" viewBox="0 0 16 14" fill="none" xmlns="http://www.w3.org/2000/svg">
<path d="M7.99992 6.33333V10.3333M5.99992 8.33333H9.99992M14.6666 11.6667C14.6666 12.0203 14.5261 12.3594 14.2761 12.6095C14.026 12.8595 13.6869 13 13.3333 13H2.66659C2.31296 13 1.97382 12.8595 1.72378 12.6095C1.47373 12.3594 1.33325 12.0203 1.33325 11.6667V2.33333C1.33325 1.97971 1.47373 1.64057 1.72378 1.39052C1.97382 1.14048 2.31296 1 2.66659 1H5.99992L7.33325 3H13.3333C13.6869 3 14.026 3.14048 14.2761 3.39052C14.5261 3.64057 14.6666 3.97971 14.6666 4.33333V11.6667Z" stroke="#344054" stroke-width="1.5" stroke-linecap="round" stroke-linejoin="round"/>
</svg>
