<svg width="46" height="45" viewBox="0 0 46 45" fill="none" xmlns="http://www.w3.org/2000/svg">
<rect x="0.200073" width="45" height="45" rx="22.5" fill="#3D54CD"/>
<g clip-path="url(#clip0_1664_2250)">
<path d="M22.1666 16.3333H16.3332C15.8912 16.3333 15.4673 16.5089 15.1547 16.8215C14.8422 17.134 14.6666 17.558 14.6666 18V29.6667C14.6666 30.1087 14.8422 30.5326 15.1547 30.8452C15.4673 31.1577 15.8912 31.3333 16.3332 31.3333H27.9999C28.4419 31.3333 28.8658 31.1577 29.1784 30.8452C29.491 30.5326 29.6666 30.1087 29.6666 29.6667V23.8333M28.4166 15.0833C28.7481 14.7518 29.1977 14.5656 29.6666 14.5656C30.1354 14.5656 30.585 14.7518 30.9166 15.0833C31.2481 15.4148 31.4343 15.8645 31.4343 16.3333C31.4343 16.8022 31.2481 17.2518 30.9166 17.5833L22.9999 25.5L19.6666 26.3333L20.4999 23L28.4166 15.0833Z" stroke="white" stroke-width="2" stroke-linecap="round" stroke-linejoin="round"/>
</g>
<defs>
<clipPath id="clip0_1664_2250">
<rect width="20" height="20" fill="white" transform="translate(12.9999 13)"/>
</clipPath>
</defs>
</svg>
