<svg width="49" height="48" viewBox="0 0 49 48" fill="none" xmlns="http://www.w3.org/2000/svg">
<g id="Frame 1000011913">
<rect x="0.75" width="48" height="48" rx="8" fill="#FA5A7D"/>
<g id="icon">
<path id="Combined Shape" fill-rule="evenodd" clip-rule="evenodd" d="M14.9318 20.4907L23.3758 25.3576C23.4667 25.4101 23.5621 25.4479 23.6591 25.4719V34.9111L15.534 30.1108C15.1608 29.8902 14.9318 29.4894 14.9318 29.0564V20.4907ZM34.5682 20.3608V29.0559C34.5682 29.4889 34.3392 29.8898 33.966 30.1103L25.8409 34.9106V25.3888C25.8607 25.3789 25.8803 25.3684 25.8997 25.3572L34.5682 20.3608Z" fill="white"/>
<path id="Path" fill-rule="evenodd" clip-rule="evenodd" d="M15.196 18.1234C15.2992 17.9934 15.4293 17.8835 15.5811 17.8028L24.172 13.2348C24.5327 13.043 24.9653 13.043 25.3259 13.2348L33.9169 17.8028C34.0339 17.865 34.138 17.9446 34.2269 18.0373L24.8078 23.4663C24.7459 23.502 24.6888 23.5428 24.6367 23.5879C24.5847 23.5428 24.5276 23.502 24.4657 23.4663L15.196 18.1234Z" fill="white"/>
</g>
</g>
</svg>
