<svg width="45" height="44" viewBox="0 0 45 44" fill="none" xmlns="http://www.w3.org/2000/svg">
<g id="Frame 1000011913">
<rect x="0.5" width="44" height="44" rx="8" fill="#9955FF"/>
<g id="icon">
<path id="Combined Shape" fill-rule="evenodd" clip-rule="evenodd" d="M13.5 18.7831L21.2403 23.2445C21.3237 23.2925 21.4111 23.3272 21.5 23.3492V32.0018L14.052 27.6015C13.7099 27.3994 13.5 27.0319 13.5 26.635V18.7831ZM31.5 18.6641V26.6345C31.5 27.0315 31.2901 27.3989 30.948 27.6011L23.5 32.0014V23.273C23.5181 23.2639 23.5361 23.2543 23.5539 23.244L31.5 18.6641Z" fill="white"/>
<path id="Path" fill-rule="evenodd" clip-rule="evenodd" d="M13.7422 16.6131C13.8367 16.4939 13.9561 16.3932 14.0952 16.3192L21.9702 12.1318C22.3008 11.9561 22.6973 11.9561 23.0279 12.1318L30.9029 16.3192C31.0102 16.3762 31.1057 16.4491 31.1871 16.5342L22.553 21.5107C22.4962 21.5434 22.4439 21.5809 22.3962 21.6222C22.3485 21.5809 22.2961 21.5434 22.2394 21.5107L13.7422 16.6131Z" fill="white"/>
</g>
</g>
</svg>
