<svg width="45" height="45" viewBox="0 0 45 45" fill="none" xmlns="http://www.w3.org/2000/svg">
<rect width="45" height="45" rx="22.5" fill="#2E7D32"/>
<g clip-path="url(#clip0_3279_7495)">
<path d="M23.0001 11C16.3832 11 11 16.3831 11 22.9999C11 29.6167 16.3832 34.9998 23.0001 34.9998C29.6169 34.9998 35 29.6167 35 22.9999C35 16.3831 29.6169 11 23.0001 11ZM23.0001 33.0326C17.4679 33.0326 12.9672 28.5321 12.9672 22.9999C12.9672 17.4678 17.4679 12.9672 23.0001 12.9672C28.5322 12.9672 33.0328 17.4678 33.0328 22.9999C33.0328 28.5321 28.5322 33.0326 23.0001 33.0326Z" fill="white"/>
<path d="M28.1912 18.3942L21.0663 25.5192L17.8088 22.2617C17.4246 21.8776 16.8019 21.8776 16.4178 22.2617C16.0337 22.6458 16.0337 23.2686 16.4178 23.6527L20.3708 27.6058C20.5629 27.7978 20.8146 27.8939 21.0663 27.8939C21.3181 27.8939 21.5698 27.7978 21.7619 27.6058L29.5823 19.7854C29.9663 19.4012 29.9663 18.7785 29.5823 18.3943C29.1981 18.0102 28.5753 18.0102 28.1912 18.3942Z" fill="white"/>
</g>
<defs>
<clipPath id="clip0_3279_7495">
<rect width="24" height="24" fill="white" transform="translate(11 11)"/>
</clipPath>
</defs>
</svg>
