<svg width="44" height="44" viewBox="0 0 44 44" fill="none" xmlns="http://www.w3.org/2000/svg">
<g id="Frame 1000011913">
<rect width="44" height="44" rx="8" fill="#FFAC41"/>
<g id="icon">
<path id="Combined Shape" fill-rule="evenodd" clip-rule="evenodd" d="M13 18.7831L20.7403 23.2445C20.8237 23.2925 20.9111 23.3272 21 23.3492V32.0018L13.552 27.6015C13.2099 27.3994 13 27.0319 13 26.635V18.7831ZM31 18.6641V26.6345C31 27.0315 30.7901 27.3989 30.448 27.6011L23 32.0014V23.273C23.0181 23.2639 23.0361 23.2543 23.0539 23.244L31 18.6641Z" fill="white"/>
<path id="Path" fill-rule="evenodd" clip-rule="evenodd" d="M13.2422 16.6131C13.3367 16.4939 13.4561 16.3932 13.5952 16.3192L21.4702 12.1318C21.8008 11.9561 22.1973 11.9561 22.5279 12.1318L30.4029 16.3192C30.5102 16.3762 30.6057 16.4491 30.6871 16.5342L22.053 21.5107C21.9962 21.5434 21.9439 21.5809 21.8962 21.6222C21.8485 21.5809 21.7961 21.5434 21.7394 21.5107L13.2422 16.6131Z" fill="white"/>
</g>
</g>
</svg>
