<svg width="45" height="44" viewBox="0 0 45 44" fill="none" xmlns="http://www.w3.org/2000/svg">
<g id="Frame 1000011913">
<rect x="0.25" width="44" height="44" rx="8" fill="#28C1FF"/>
<g id="icon">
<path id="Combined Shape" fill-rule="evenodd" clip-rule="evenodd" d="M13.25 18.7831L20.9903 23.2445C21.0737 23.2925 21.1611 23.3272 21.25 23.3492V32.0018L13.802 27.6015C13.4599 27.3994 13.25 27.0319 13.25 26.635V18.7831ZM31.25 18.6641V26.6345C31.25 27.0315 31.0401 27.3989 30.698 27.6011L23.25 32.0014V23.273C23.2681 23.2639 23.2861 23.2543 23.3039 23.244L31.25 18.6641Z" fill="white"/>
<path id="Path" fill-rule="evenodd" clip-rule="evenodd" d="M13.4922 16.6131C13.5867 16.4939 13.7061 16.3932 13.8452 16.3192L21.7202 12.1318C22.0508 11.9561 22.4473 11.9561 22.7779 12.1318L30.6529 16.3192C30.7602 16.3762 30.8557 16.4491 30.9371 16.5342L22.303 21.5107C22.2462 21.5434 22.1939 21.5809 22.1462 21.6222C22.0985 21.5809 22.0461 21.5434 21.9894 21.5107L13.4922 16.6131Z" fill="white"/>
</g>
</g>
</svg>
