<svg width="49" height="48" viewBox="0 0 49 48" fill="none" xmlns="http://www.w3.org/2000/svg">
<rect x="0.75" width="48" height="48" rx="8" fill="black" fill-opacity="0.04"/>
<path fill-rule="evenodd" clip-rule="evenodd" d="M14.9318 20.4905L23.3758 25.3574C23.4667 25.4098 23.5621 25.4477 23.6591 25.4717V34.9109L15.534 30.1105C15.1608 29.89 14.9318 29.4891 14.9318 29.0561V20.4905ZM34.5682 20.3606V29.0556C34.5682 29.4887 34.3393 29.8895 33.966 30.1101L25.8409 34.9104V25.3885C25.8607 25.3786 25.8803 25.3681 25.8998 25.3569L34.5682 20.3606Z" fill="white"/>
<path fill-rule="evenodd" clip-rule="evenodd" d="M15.196 18.1233C15.2992 17.9933 15.4294 17.8834 15.5811 17.8027L24.1721 13.2346C24.5327 13.0429 24.9653 13.0429 25.3259 13.2346L33.9169 17.8027C34.0339 17.8649 34.138 17.9444 34.2269 18.0372L24.8078 23.4661C24.7459 23.5018 24.6888 23.5427 24.6368 23.5878C24.5847 23.5427 24.5276 23.5018 24.4657 23.4661L15.196 18.1233Z" fill="white"/>
</svg>
