<svg width="45" height="45" viewBox="0 0 45 45" fill="none" xmlns="http://www.w3.org/2000/svg">
<rect width="45" height="45" rx="22.5" fill="#EF6C00"/>
<g clip-path="url(#clip0_3279_7505)">
<path d="M32.4877 28.8445C32.0723 28.5355 31.485 28.6218 31.176 29.0371C31.006 29.2656 30.8241 29.4897 30.6354 29.7032C30.2925 30.0911 30.3289 30.6836 30.7168 31.0266C30.8952 31.1843 31.1167 31.2617 31.3374 31.2617C31.5967 31.2617 31.8549 31.1547 32.0401 30.9451C32.2637 30.6923 32.4791 30.4268 32.6803 30.1562C32.9894 29.7409 32.9032 29.1535 32.4877 28.8445Z" fill="white"/>
<path d="M34.0557 24.4477C33.5501 24.3376 33.0503 24.6584 32.9402 25.1643C32.8796 25.4426 32.8064 25.7214 32.7225 25.9931C32.5696 26.4878 32.8467 27.0127 33.3414 27.1656C33.4336 27.194 33.5268 27.2076 33.6185 27.2076C34.0188 27.2076 34.3895 26.9491 34.5139 26.5465C34.6135 26.2241 34.7004 25.8932 34.7723 25.5631C34.8825 25.0572 34.5616 24.5578 34.0557 24.4477Z" fill="white"/>
<path d="M27.9753 31.8469C27.7264 31.9858 27.4687 32.1157 27.2093 32.2328C26.7375 32.4459 26.5277 33.0012 26.7408 33.4731C26.8973 33.8198 27.2386 34.0249 27.5957 34.0249C27.7247 34.0249 27.8558 33.9982 27.9811 33.9416C28.2887 33.8027 28.5942 33.6487 28.8893 33.4839C29.3415 33.2316 29.5033 32.6604 29.2508 32.2084C28.9985 31.7564 28.4274 31.5945 27.9753 31.8469Z" fill="white"/>
<path d="M22.0626 15.5V22.6117L18.6248 26.0494C18.2587 26.4155 18.2587 27.0091 18.6248 27.3752C18.8079 27.5583 19.0477 27.6498 19.2877 27.6498C19.5276 27.6498 19.7676 27.5583 19.9507 27.3752L23.663 23.6629C23.8388 23.4871 23.9376 23.2486 23.9376 23V15.5C23.9376 14.9822 23.5178 14.5625 23.0001 14.5625C22.4823 14.5625 22.0626 14.9822 22.0626 15.5Z" fill="white"/>
<path d="M34.0625 13.0156C33.5447 13.0156 33.125 13.4353 33.125 13.9531V16.5564C30.9429 13.1341 27.1321 11 23 11C19.7947 11 16.7812 12.2482 14.5147 14.5147C12.2482 16.7812 11 19.7947 11 23C11 26.2053 12.2482 29.2188 14.5147 31.4853C16.7812 33.7518 19.7947 35 23 35C23.0079 35 23.0156 34.999 23.0234 34.9988C23.0313 34.999 23.039 35 23.0469 35C23.3848 35 23.726 34.9858 24.0611 34.9577C24.5771 34.9145 24.9603 34.4612 24.9171 33.9453C24.8739 33.4293 24.4212 33.0459 23.9046 33.0893C23.6213 33.113 23.3328 33.125 23.0469 33.125C23.039 33.125 23.0313 33.126 23.0234 33.1262C23.0156 33.126 23.0079 33.125 23 33.125C17.417 33.125 12.875 28.583 12.875 23C12.875 17.417 17.417 12.875 23 12.875C26.598 12.875 29.9074 14.7928 31.7157 17.8438H29.138C28.6202 17.8438 28.2005 18.2635 28.2005 18.7812C28.2005 19.299 28.6202 19.7188 29.138 19.7188H32C32.5709 19.7188 33.1051 19.5583 33.5599 19.2803C33.5891 19.2636 33.6172 19.2457 33.644 19.2263C34.46 18.6896 35 17.7663 35 16.7188V13.9531C35 13.4353 34.5803 13.0156 34.0625 13.0156Z" fill="white"/>
</g>
<defs>
<clipPath id="clip0_3279_7505">
<rect width="24" height="24" fill="white" transform="translate(11 11)"/>
</clipPath>
</defs>
</svg>
