<svg width="20" height="20" viewBox="0 0 20 20" fill="none" xmlns="http://www.w3.org/2000/svg">
<path d="M3.76667 2.5C3.98758 2.5 4.16667 2.67909 4.16667 2.9V15.4333C4.16667 15.6542 4.34575 15.8333 4.56667 15.8333H17.1C17.3209 15.8333 17.5 16.0124 17.5 16.2333V17.1C17.5 17.3209 17.3209 17.5 17.1 17.5H2.9C2.67909 17.5 2.5 17.3209 2.5 17.1V2.9C2.5 2.67909 2.67909 2.5 2.9 2.5H3.76667ZM16.6279 5.52687C16.7841 5.37068 17.0374 5.37069 17.1936 5.5269L17.8064 6.13975C17.9626 6.29596 17.9626 6.54922 17.8064 6.70543L13.6161 10.8957C13.4599 11.0519 13.2067 11.0519 13.0505 10.8957L11.1161 8.96191C10.9599 8.80574 10.7067 8.80575 10.5505 8.96192L7.53877 11.9731C7.38255 12.1293 7.12931 12.1293 6.97311 11.9731L6.36025 11.3603C6.20404 11.204 6.20404 10.9508 6.36025 10.7946L10.5505 6.6043C10.7067 6.4481 10.96 6.44809 11.1162 6.60426L13.0505 8.53809C13.2067 8.69426 13.4599 8.69425 13.6161 8.53808L16.6279 5.52687Z" fill="white"/>
</svg>
