<svg width="44" height="44" viewBox="0 0 44 44" fill="none" xmlns="http://www.w3.org/2000/svg">
<rect width="44" height="44" rx="22" fill="#004D40"/>
<mask id="mask0_4281_8157" style="mask-type:luminance" maskUnits="userSpaceOnUse" x="10" y="10" width="24" height="24">
<path d="M10 10H34V34H10V10Z" fill="white"/>
</mask>
<g mask="url(#mask0_4281_8157)">
<path d="M25.3281 21.9531C25.3281 23.7653 23.8591 25.2344 22.0469 25.2344C20.2347 25.2344 18.7656 23.7653 18.7656 21.9531C18.7656 20.1409 20.2347 18.6719 22.0469 18.6719C23.8591 18.6719 25.3281 20.1409 25.3281 21.9531Z" stroke="white" stroke-width="1.5" stroke-miterlimit="10" stroke-linecap="round" stroke-linejoin="round"/>
<path d="M29.0862 28.1321C29.9895 28.641 31.1359 28.3242 31.6468 27.4244C32.1577 26.5246 31.8397 25.3826 30.9364 24.8737L30.8784 24.8408C30.2619 24.4906 29.9142 23.8014 30.0105 23.0988C30.0602 22.7357 30.0859 22.365 30.0859 21.9883C30.0859 21.5914 30.0573 21.2011 30.0021 20.8195C29.9001 20.1152 30.2505 19.4221 30.8694 19.0707L30.9364 19.0326C31.8397 18.5236 32.1577 17.3816 31.6468 16.4818C31.1359 15.582 29.9895 15.2652 29.0862 15.7741L29.004 15.8208C28.378 16.1763 27.6025 16.1046 27.0405 15.6547C26.4215 15.1591 25.7284 14.7525 24.9803 14.454C24.3147 14.1884 23.875 13.548 23.875 12.8313V12.8125C23.875 11.777 23.0355 10.9375 22 10.9375C20.9645 10.9375 20.125 11.777 20.125 12.8125C20.125 13.5325 19.6813 14.1751 19.0113 14.4385C18.2547 14.7359 17.5538 15.1438 16.9281 15.6422C16.3663 16.0898 15.5922 16.1595 14.9676 15.8047L14.9139 15.7741C14.0106 15.2652 12.8642 15.582 12.3532 16.4818C11.8423 17.3816 12.1604 18.5236 13.0637 19.0326L13.0787 19.0411C13.7034 19.396 14.0569 20.0962 13.9529 20.8071C13.8965 21.1927 13.8672 21.5871 13.8672 21.9883C13.8672 22.3726 13.894 22.7507 13.9458 23.1208C14.0442 23.8241 13.6956 24.5148 13.0781 24.8654L13.0637 24.8737C12.1604 25.3826 11.8423 26.5246 12.3532 27.4244C12.8642 28.3242 14.0105 28.641 14.9138 28.1321" stroke="white" stroke-width="1.5" stroke-miterlimit="10" stroke-linecap="round" stroke-linejoin="round"/>
<path d="M16.8906 33.0625C16.8906 30.4355 19.0227 28.2812 21.6528 28.2812H22.5347C25.1648 28.2812 27.2969 30.4355 27.2969 33.0625" stroke="white" stroke-width="1.5" stroke-miterlimit="10" stroke-linecap="round" stroke-linejoin="round"/>
</g>
</svg>
