<svg width="20" height="20" viewBox="0 0 20 20" fill="none" xmlns="http://www.w3.org/2000/svg">
<mask id="mask0_3589_4313" style="mask-type:luminance" maskUnits="userSpaceOnUse" x="0" y="0" width="20" height="20">
<path d="M0 1.90735e-06H20V20H0V1.90735e-06Z" fill="white"/>
</mask>
<g mask="url(#mask0_3589_4313)">
<path d="M8.11771 3.46768H3.98252C3.16377 3.46768 2.5 4.12876 2.5 4.94424V16.9305C2.5 17.7459 3.16377 18.407 3.98252 18.407H14.2998L17.5 15.2198V4.94424C17.5 4.12876 16.8362 3.46768 16.0174 3.46768H11.8823" stroke="#475569" stroke-width="1.7" stroke-miterlimit="10" stroke-linejoin="round"/>
<path d="M14.2998 18.407V15.2198H17.5" stroke="#475569" stroke-width="1.7" stroke-miterlimit="10" stroke-linejoin="round"/>
<path d="M11.8823 3.46772C11.8823 4.5031 11.0395 5.34241 9.99997 5.34241C8.9604 5.34241 8.11768 4.5031 8.11768 3.46772C8.11768 2.43237 8.9604 1.59307 9.99997 1.59307C11.0395 1.59307 11.8823 2.43237 11.8823 3.46772Z" stroke="#475569" stroke-width="1.7" stroke-miterlimit="10" stroke-linejoin="round"/>
<path d="M5.32422 10.7441H13.6294" stroke="#475569" stroke-width="1.7" stroke-miterlimit="10" stroke-linecap="round" stroke-linejoin="round"/>
<path d="M5.32422 13.713H11.5363" stroke="#475569" stroke-width="1.7" stroke-miterlimit="10" stroke-linecap="round" stroke-linejoin="round"/>
</g>
</svg>
