<svg width="20" height="17" viewBox="0 0 20 17" fill="none" xmlns="http://www.w3.org/2000/svg">
<path d="M3.33329 15.6667H16.6666C17.1087 15.6667 17.5326 15.4911 17.8451 15.1785C18.1577 14.866 18.3333 14.442 18.3333 14V5.66667C18.3333 5.22464 18.1577 4.80072 17.8451 4.48816C17.5326 4.17559 17.1087 4 16.6666 4H10.0583C9.78378 3.99858 9.51387 3.92937 9.27254 3.79853C9.03121 3.66769 8.82594 3.47927 8.67496 3.25L7.99163 2.25C7.84065 2.02073 7.63537 1.83231 7.39404 1.70147C7.15272 1.57063 6.8828 1.50142 6.60829 1.5H3.33329C2.89127 1.5 2.46734 1.67559 2.15478 1.98816C1.84222 2.30072 1.66663 2.72464 1.66663 3.16667V14C1.66663 14.9167 2.41663 15.6667 3.33329 15.6667Z" stroke="black" stroke-opacity="0.56" stroke-width="2" stroke-linecap="round" stroke-linejoin="round"/>
</svg>
