<svg width="101" height="100" viewBox="0 0 101 100" fill="none" xmlns="http://www.w3.org/2000/svg">
<path d="M70.7736 83.8477L50.5 77.9883L30.2264 83.8477C30.0508 84.1992 29.9922 84.5508 29.9922 84.9609V97.0703H71.0078V84.9609C71.0078 84.5508 70.9492 84.1992 70.7736 83.8477Z" fill="#646D73"/>
<path d="M71.0078 97.0703V84.9609C71.0078 84.5508 70.9492 84.1992 70.7736 83.8477L50.5 77.9883V97.0703H71.0078Z" fill="#474F54"/>
<path d="M97.5703 5.85938H82.6006C82.6264 4.86973 82.7266 3.9375 82.7266 2.92969C82.7266 1.28887 81.4377 0 79.7969 0H21.2031C19.5623 0 18.2734 1.28887 18.2734 2.92969C18.2734 3.9375 18.3736 4.86973 18.399 5.85938H3.42969C1.81035 5.85938 0.5 7.16973 0.5 8.78906V16.2105C0.5 32.5687 13.6039 45.8572 29.7525 46.7127C33.1168 51.3447 37.1096 54.7822 41.6523 56.7188C40.9492 70.957 32.8047 80.8594 30.8713 82.9104C30.5781 83.1445 30.3438 83.4961 30.2266 83.8477H70.7736C70.6562 83.4961 70.4221 83.1445 70.1289 82.9104C68.1367 80.8594 60.0508 71.0156 59.3477 56.7188C63.8914 54.7818 67.9082 51.3436 71.2752 46.7098C87.41 45.8404 100.5 32.5596 100.5 16.2105V8.78906C100.5 7.16973 99.1897 5.85938 97.5703 5.85938ZM6.35938 16.2105V11.7188H18.6504C19.4107 21.402 21.5105 31.6574 25.9238 40.3727C14.8613 37.8814 6.35938 28.0162 6.35938 16.2105ZM94.6406 16.2105C94.6406 28.0102 86.1463 37.8707 75.092 40.3676C79.4703 31.6525 81.5818 21.4963 82.3496 11.7188H94.6406V16.2105Z" fill="#FED843"/>
<path d="M97.5703 5.85938H82.6006C82.6264 4.86973 82.7266 3.9375 82.7266 2.92969C82.7266 1.28887 81.4377 0 79.7969 0H50.5V83.8477H70.7736C70.6562 83.4961 70.4221 83.1445 70.1289 82.9104C68.1367 80.8594 60.0508 71.0156 59.3477 56.7188C63.8914 54.7818 67.9082 51.3436 71.2752 46.7098C87.41 45.8404 100.5 32.5596 100.5 16.2105V8.78906C100.5 7.16973 99.1896 5.85938 97.5703 5.85938ZM94.6406 16.2105C94.6406 28.0102 86.1463 37.8707 75.092 40.3676C79.4707 31.6525 81.5822 21.4963 82.3496 11.7188H94.6406V16.2105Z" fill="#FABE2C"/>
<path d="M55.175 37.265L50.5 34.8359L45.825 37.265C44.8465 37.7686 43.6506 37.6855 42.7523 37.0361C41.8539 36.3838 41.402 35.2795 41.585 34.1865L42.4434 28.9822L38.6955 25.283C37.8797 24.4877 37.6303 23.3086 37.9631 22.2904C38.3065 21.2375 39.2162 20.465 40.3148 20.2992L45.5219 19.5152L47.8793 14.8031C48.875 12.8176 52.125 12.8176 53.1207 14.8031L55.4781 19.5152L60.6852 20.2992C61.7838 20.4652 62.6936 21.2377 63.0369 22.2904C63.3803 23.3461 63.0998 24.5049 62.3045 25.283L58.5566 28.9822L59.415 34.1865C59.5982 35.2795 59.1461 36.3838 58.2477 37.0361C57.3553 37.6828 56.1615 37.7783 55.175 37.265Z" fill="#FABE2C"/>
<path d="M55.175 37.2646C56.1617 37.7779 57.3555 37.6824 58.2477 37.0357C59.1461 36.3834 59.598 35.2791 59.415 34.1861L58.5566 28.9818L62.3045 25.2826C63.0998 24.5045 63.3803 23.3457 63.0369 22.29C62.6936 21.2371 61.7838 20.4646 60.6852 20.2988L55.4781 19.5148L53.1207 14.8027C52.6229 13.81 51.5615 13.3135 50.5 13.3135V34.8355L55.175 37.2646Z" fill="#FF9100"/>
<path d="M73.9375 100H27.0625C25.4432 100 24.1328 98.6896 24.1328 97.0703C24.1328 95.451 25.4432 94.1406 27.0625 94.1406H73.9375C75.5568 94.1406 76.8672 95.451 76.8672 97.0703C76.8672 98.6896 75.5568 100 73.9375 100Z" fill="#474F54"/>
<path d="M73.9375 94.1406H50.5V100H73.9375C75.5568 100 76.8672 98.6896 76.8672 97.0703C76.8672 95.451 75.5568 94.1406 73.9375 94.1406Z" fill="#32393F"/>
</svg>
