<svg width="36" height="37" viewBox="0 0 36 37" fill="none" xmlns="http://www.w3.org/2000/svg">
<path d="M18 10.667C18 9.07569 17.3679 7.54957 16.2426 6.42435C15.1174 5.29913 13.5913 4.66699 12 4.66699H3V27.167H13.5C14.6935 27.167 15.8381 27.6411 16.682 28.485C17.5259 29.3289 18 30.4735 18 31.667M18 10.667V31.667M18 10.667C18 9.07569 18.6321 7.54957 19.7574 6.42435C20.8826 5.29913 22.4087 4.66699 24 4.66699H33V27.167H22.5C21.3065 27.167 20.1619 27.6411 19.318 28.485C18.4741 29.3289 18 30.4735 18 31.667" stroke="#3D54CD" stroke-width="2" stroke-linecap="round" stroke-linejoin="round"/>
</svg>
