<svg width="20" height="18" viewBox="0 0 20 18" fill="none" xmlns="http://www.w3.org/2000/svg">
<path d="M2.17574 13.4261C0.833313 12.3521 0.833313 11.5403 0.833313 8.08333C0.833313 4.62637 0.833313 2.89788 2.17574 1.82394C3.51817 0.75 5.67877 0.75 9.99998 0.75C14.3212 0.75 16.4818 0.75 17.8242 1.82394C19.1666 2.89788 19.1666 4.62637 19.1666 8.08333C19.1666 11.5403 19.1666 12.3521 17.8242 13.4261C16.4818 14.5 14.3212 14.5 9.99999 14.5H9.99998C7.69962 14.5 6.5164 16.0928 4.49998 17.25V14.3059C3.4972 14.1567 2.75919 13.8928 2.17574 13.4261Z" stroke="black" stroke-opacity="0.56" stroke-width="1.5" stroke-linecap="round" stroke-linejoin="round"/>
</svg>
