<svg width="32" height="32" viewBox="0 0 32 32" fill="none" xmlns="http://www.w3.org/2000/svg">
<rect x="0.5" y="0.5" width="31" height="31" rx="7.5" fill="white"/>
<rect x="0.5" y="0.5" width="31" height="31" rx="7.5" stroke="#E0E0E0"/>
<path d="M24.25 19.85V17.925C24.25 16.3849 24.25 15.6148 23.9503 15.0265C23.6866 14.5091 23.2659 14.0884 22.7485 13.8247C22.1602 13.525 21.3901 13.525 19.85 13.525H18.475V12.15C18.475 10.6099 18.475 9.83978 18.1753 9.25153C17.9116 8.73408 17.4909 8.31338 16.9735 8.04973C16.3852 7.75 15.6151 7.75 14.075 7.75H12.15C10.6099 7.75 9.83978 7.75 9.25153 8.04973C8.73408 8.31338 8.31338 8.73408 8.04973 9.25153C7.75 9.83978 7.75 10.6099 7.75 12.15V14.075C7.75 15.6151 7.75 16.3852 8.04973 16.9735C8.31338 17.4909 8.73408 17.9116 9.25153 18.1753C9.83978 18.475 10.6099 18.475 12.15 18.475H13.525V19.85C13.525 21.3901 13.525 22.1602 13.8247 22.7485C14.0884 23.2659 14.5091 23.6866 15.0265 23.9503C15.6148 24.25 16.3849 24.25 17.925 24.25H19.85C21.3901 24.25 22.1602 24.25 22.7485 23.9503C23.2659 23.6866 23.6866 23.2659 23.9503 22.7485C24.25 22.1602 24.25 21.3901 24.25 19.85Z" stroke="black" stroke-opacity="0.56" stroke-width="1.5" stroke-linecap="round" stroke-linejoin="round"/>
</svg>
