<svg width="32" height="32" viewBox="0 0 32 32" fill="none" xmlns="http://www.w3.org/2000/svg">
<rect x="0.5" y="0.5" width="31" height="31" rx="7.5" fill="white"/>
<rect x="0.5" y="0.5" width="31" height="31" rx="7.5" stroke="#E0E0E0"/>
<path d="M7.48099 14.438C7.27565 14.6431 7.11275 14.8867 7.0016 15.1549C6.89046 15.423 6.83325 15.7104 6.83325 16.0007C6.83325 16.2909 6.89046 16.5783 7.0016 16.8464C7.11275 17.1146 7.27565 17.3582 7.48099 17.5633L14.4373 24.5196C14.6424 24.7249 14.886 24.8878 15.1541 24.999C15.4223 25.1101 15.7097 25.1673 15.9999 25.1673C16.2902 25.1673 16.5776 25.1101 16.8457 24.999C17.1138 24.8878 17.3574 24.7249 17.5626 24.5196L24.5188 17.5633C24.7242 17.3582 24.8871 17.1146 24.9982 16.8464C25.1094 16.5783 25.1666 16.2909 25.1666 16.0007C25.1666 15.7104 25.1094 15.423 24.9982 15.1549C24.8871 14.8867 24.7242 14.6431 24.5188 14.438L17.5626 7.48172C17.3574 7.27638 17.1138 7.11348 16.8457 7.00233C16.5776 6.89119 16.2902 6.83398 15.9999 6.83398C15.7097 6.83398 15.4223 6.89119 15.1541 7.00233C14.886 7.11348 14.6424 7.27638 14.4373 7.48172L7.48099 14.438Z" stroke="black" stroke-opacity="0.56" stroke-width="1.5" stroke-linecap="round" stroke-linejoin="round"/>
</svg>
