<svg width="32" height="32" viewBox="0 0 32 32" fill="none" xmlns="http://www.w3.org/2000/svg">
<rect x="0.5" y="0.5" width="31" height="31" rx="7.5" fill="white"/>
<rect x="0.5" y="0.5" width="31" height="31" rx="7.5" stroke="#E0E0E0"/>
<path d="M16.55 19.4663V12.5326C17.2026 12.3965 17.7816 12.0233 18.175 11.4851C18.5684 10.9469 18.7483 10.2819 18.6799 9.6188C18.6114 8.95566 18.2996 8.34145 17.8046 7.89489C17.3096 7.44834 16.6666 7.20117 16 7.20117C15.3333 7.20117 14.6904 7.44834 14.1954 7.89489C13.7004 8.34145 13.3885 8.95566 13.3201 9.6188C13.2517 10.2819 13.4316 10.9469 13.825 11.4851C14.2184 12.0233 14.7974 12.3965 15.45 12.5326V19.4663C14.7974 19.6024 14.2184 19.9756 13.825 20.5138C13.4316 21.052 13.2517 21.7169 13.3201 22.3801C13.3885 23.0432 13.7004 23.6574 14.1954 24.104C14.6904 24.5505 15.3333 24.7977 16 24.7977C16.6666 24.7977 17.3096 24.5505 17.8046 24.104C18.2996 23.6574 18.6114 23.0432 18.6799 22.3801C18.7483 21.7169 18.5684 21.052 18.175 20.5138C17.7816 19.9756 17.2026 19.6024 16.55 19.4663ZM14.405 9.89443C14.4052 9.57901 14.4989 9.27072 14.6742 9.00855C14.8496 8.74637 15.0988 8.54208 15.3903 8.4215C15.6817 8.30092 16.0024 8.26946 16.3117 8.33111C16.6211 8.39276 16.9052 8.54474 17.1282 8.76784C17.3511 8.99094 17.5029 9.27514 17.5644 9.58452C17.6259 9.89389 17.5942 10.2145 17.4735 10.5059C17.3527 10.7973 17.1483 11.0464 16.886 11.2216C16.6238 11.3968 16.3154 11.4903 16 11.4903C15.577 11.4896 15.1716 11.3212 14.8726 11.0221C14.5737 10.7229 14.4055 10.3174 14.405 9.89443ZM16 23.6994C15.6843 23.6996 15.3756 23.6061 15.113 23.4309C14.8504 23.2556 14.6457 23.0063 14.5248 22.7147C14.4039 22.423 14.3722 22.1021 14.4338 21.7924C14.4953 21.4827 14.6473 21.1983 14.8706 20.975C15.0938 20.7518 15.3783 20.5998 15.688 20.5382C15.9976 20.4767 16.3186 20.5084 16.6102 20.6293C16.9019 20.7502 17.1511 20.9549 17.3264 21.2174C17.5017 21.48 17.5952 21.7887 17.595 22.1044C17.5943 22.5272 17.426 22.9325 17.127 23.2315C16.8281 23.5304 16.4228 23.6987 16 23.6994Z" fill="black" fill-opacity="0.56"/>
</svg>
