<svg width="44" height="44" viewBox="0 0 44 44" fill="none" xmlns="http://www.w3.org/2000/svg">
<path d="M0.5 6C0.5 2.96243 2.96243 0.5 6 0.5H38C41.0376 0.5 43.5 2.96243 43.5 6V38C43.5 41.0376 41.0376 43.5 38 43.5H6C2.96243 43.5 0.5 41.0376 0.5 38V6Z" fill="white"/>
<path d="M0.5 6C0.5 2.96243 2.96243 0.5 6 0.5H38C41.0376 0.5 43.5 2.96243 43.5 6V38C43.5 41.0376 41.0376 43.5 38 43.5H6C2.96243 43.5 0.5 41.0376 0.5 38V6Z" stroke="#E2E8F0"/>
<path d="M27 17L17 27M17 17L27 27" stroke="#020617" stroke-width="2" stroke-linecap="round" stroke-linejoin="round"/>
</svg>
