<svg width="18" height="18" viewBox="0 0 18 18" fill="none" xmlns="http://www.w3.org/2000/svg">
<path d="M10.4212 15.2073C10.2994 15.4174 10.1245 15.5917 9.91408 15.7129C9.70366 15.8341 9.4651 15.8979 9.22227 15.8979C8.97944 15.8979 8.74087 15.8341 8.53046 15.7129C8.32004 15.5917 8.14515 15.4174 8.02331 15.2073M13.3805 6.1978C13.3805 5.09496 12.9424 4.0373 12.1626 3.25747C11.3828 2.47765 10.3251 2.03955 9.22227 2.03955C8.11943 2.03955 7.06176 2.47765 6.28194 3.25747C5.50212 4.0373 5.06402 5.09496 5.06402 6.1978C5.06402 11.0491 2.98489 12.4352 2.98489 12.4352H15.4596C15.4596 12.4352 13.3805 11.0491 13.3805 6.1978Z" stroke="#475569" stroke-width="1.24747" stroke-linecap="round" stroke-linejoin="round"/>
</svg>
