<svg width="13" height="14" viewBox="0 0 13 14" fill="none" xmlns="http://www.w3.org/2000/svg">
<path d="M1.48821 3.64303H2.59708M2.59708 3.64303H11.468M2.59708 3.64303V11.4051C2.59708 11.6992 2.71391 11.9812 2.92186 12.1892C3.12981 12.3971 3.41186 12.514 3.70595 12.514H9.25028C9.54437 12.514 9.82641 12.3971 10.0344 12.1892C10.2423 11.9812 10.3591 11.6992 10.3591 11.4051V3.64303H2.59708ZM4.26038 3.64303V2.53416C4.26038 2.24007 4.37721 1.95803 4.58516 1.75007C4.79311 1.54212 5.07516 1.42529 5.36925 1.42529H7.58698C7.88107 1.42529 8.16311 1.54212 8.37106 1.75007C8.57902 1.95803 8.69584 2.24007 8.69584 2.53416V3.64303M5.36925 6.41519V9.74179M7.58698 6.41519V9.74179" stroke="#4338CA" stroke-width="1.24747" stroke-linecap="round" stroke-linejoin="round"/>
</svg>
