<svg width="40" height="40" viewBox="0 0 40 40" fill="none" xmlns="http://www.w3.org/2000/svg">
<path d="M33.6547 7.96045C30.4243 4.3233 24.8364 3.99111 21.1976 7.2215C19.4925 8.73669 18.5129 10.7688 18.2875 12.8755C17.5197 12.6603 16.7232 12.5247 15.9079 12.4755C12.9148 12.2959 10.0234 13.2975 7.77773 15.2907C5.53205 17.2838 4.1982 20.0329 4.02024 23.0311C3.84228 26.0293 4.84225 28.9156 6.83709 31.1613C8.83023 33.4069 11.5793 34.7408 14.5775 34.9188C14.8046 34.9323 15.0317 34.9391 15.2588 34.9391C18.0095 34.9391 20.6332 33.9459 22.7077 32.1036C24.9534 30.1105 26.2872 27.3614 26.4652 24.3632C26.5635 22.709 26.0652 21.021 25.3754 19.521C25.2059 19.1532 25.0178 18.7821 24.8347 18.4245C24.4398 17.6482 24.0297 16.8449 23.7771 15.9839C23.2771 14.2806 23.2093 12.3738 24.6415 11.101C25.333 10.4875 26.194 10.1858 27.0533 10.1858C28.0566 10.1858 29.0566 10.5976 29.7735 11.4061C30.4176 12.1315 30.7413 13.0653 30.6836 14.0348C30.626 15.0043 30.1938 15.8924 29.4684 16.5381C28.743 17.1821 27.8041 17.5042 26.8397 17.4482C26.4702 17.4262 26.116 17.3465 25.7804 17.2211C26.2177 18.033 27.2431 20.1363 27.6482 22.6175C29.5939 22.4904 31.4328 21.7328 32.9141 20.4176C36.5529 17.1872 36.8834 11.5993 33.653 7.96045H33.6547ZM21.2857 24.0564C21.1891 25.6699 20.4705 27.1513 19.262 28.2241C18.0536 29.2969 16.4994 29.8376 14.8842 29.741C13.2707 29.6444 11.7894 28.9258 10.7166 27.7173C9.64376 26.5089 9.1048 24.953 9.19971 23.3395C9.29632 21.726 10.0149 20.2447 11.2234 19.1719C12.3403 18.1804 13.7538 17.6448 15.2351 17.6448C15.3571 17.6448 15.4791 17.6482 15.6012 17.655C17.2147 17.7516 18.696 18.4702 19.7688 19.6787C20.8433 20.8871 21.3806 22.443 21.2857 24.0564Z" fill="#1E88E5"/>
<path opacity="0.42" d="M9.20312 23.348C9.29972 21.7345 10.0183 20.2532 11.2268 19.1803C12.3437 18.1888 13.7572 17.6533 15.2385 17.6533C15.3605 17.6533 15.4825 17.6566 15.6046 17.6634C17.1689 17.7566 18.6062 18.4346 19.6705 19.5769C18.6892 18.0804 18.2146 16.2787 18.2146 14.3449C18.2146 13.8415 18.2129 13.3568 18.2875 12.8738C17.5384 12.6687 16.7062 12.5297 15.913 12.484C12.9199 12.3043 10.0285 13.306 7.78283 15.2991C5.53715 17.2922 4.20331 20.0413 4.02535 23.0395C4.02196 23.092 4.02196 23.1446 4.02026 23.1971L9.26583 24.631C9.20142 24.2106 9.17939 23.7818 9.20651 23.348H9.20312Z" fill="url(#paint0_linear_6018_16543)"/>
<defs>
<linearGradient id="paint0_linear_6018_16543" x1="18.9248" y1="14.0924" x2="7.30658" y2="21.3633" gradientUnits="userSpaceOnUse">
<stop offset="0.31" stop-color="#005D96"/>
<stop offset="1" stop-color="#1E88E5"/>
</linearGradient>
</defs>
</svg>
