<svg xmlns="http://www.w3.org/2000/svg" width="1000" height="202" viewBox="0 0 132 32" fill="none"><path d="M130.149 18.4303C129.605 18.115 129.03 17.8659 128.429 17.6845C127.827 17.5032 127.253 17.3354 126.709 17.1828C126.165 17.0303 125.719 16.849 125.375 16.6388C125.031 16.4286 124.859 16.132 124.859 15.7507C124.859 15.388 125.031 15.11 125.375 14.9185C125.719 14.727 126.207 14.6321 126.837 14.6321C127.507 14.6321 128.098 14.7558 128.615 15.005C128.788 15.088 128.954 15.1846 129.114 15.2948C129.691 15.6948 130.466 15.649 130.963 15.1524L131.017 15.0982C131.62 14.4948 131.569 13.4932 130.893 12.9728C130.576 12.7288 130.234 12.522 129.864 12.3525C129.014 11.961 128.034 11.7644 126.925 11.7644C125.817 11.7644 124.971 11.9373 124.215 12.2813C123.46 12.6254 122.878 13.1135 122.466 13.744C122.054 14.3745 121.849 15.1304 121.849 16.0083C121.849 16.8303 122.021 17.4998 122.365 18.015C122.709 18.5319 123.153 18.937 123.698 19.2336C124.243 19.5302 124.817 19.7641 125.419 19.9353C126.02 20.1082 126.595 20.2743 127.139 20.437C127.683 20.5997 128.129 20.7946 128.473 21.0251C128.817 21.2556 128.988 21.5793 128.988 21.9996C128.988 22.4199 128.807 22.7064 128.444 22.9165C128.081 23.1267 127.546 23.2318 126.839 23.2318C126.056 23.2318 125.353 23.0928 124.732 22.8165C124.456 22.6928 124.193 22.5437 123.946 22.3657C123.383 21.9623 122.605 22.0488 122.115 22.5386L122.109 22.5454C121.487 23.1674 121.571 24.1995 122.287 24.7114C122.397 24.791 122.509 24.8656 122.624 24.9385C123.215 25.3113 123.866 25.5978 124.573 25.7995C125.28 25.9995 126.015 26.1012 126.781 26.1012C128.386 26.1012 129.658 25.7096 130.595 24.9249C131.53 24.1419 132 23.0809 132 21.742C132 20.9013 131.829 20.2183 131.485 19.6912C131.141 19.1658 130.697 18.7455 130.151 18.4303H130.149Z" fill="#373739"></path><path d="M29.6547 3.41382C26.4243 -0.223331 20.8364 -0.55552 17.1976 2.67487C15.4925 4.19006 14.5129 6.22219 14.2875 8.32889C13.5197 8.11364 12.7232 7.97806 11.9079 7.9289C8.91482 7.74925 6.02341 8.7509 3.77773 10.744C1.53205 12.7372 0.198203 15.4862 0.0202441 18.4844C-0.157715 21.4826 0.842246 24.369 2.83709 26.6146C4.83023 28.8603 7.57928 30.1942 10.5775 30.3721C10.8046 30.3857 11.0317 30.3925 11.2588 30.3925C14.0095 30.3925 16.6332 29.3993 18.7077 27.557C20.9534 25.5638 22.2872 22.8148 22.4652 19.8166C22.5635 18.1624 22.0652 16.4743 21.3754 14.9744C21.2059 14.6066 21.0178 14.2354 20.8347 13.8778C20.4398 13.1016 20.0297 12.2982 19.7771 11.4372C19.2771 9.73392 19.2093 7.82721 20.6415 6.55438C21.333 5.94084 22.194 5.63916 23.0533 5.63916C24.0566 5.63916 25.0566 6.05101 25.7735 6.85945C26.4176 7.58485 26.7413 8.51871 26.6836 9.48817C26.626 10.4576 26.1938 11.3457 25.4684 11.9915C24.743 12.6355 23.8041 12.9575 22.8397 12.9016C22.4702 12.8796 22.116 12.7999 21.7804 12.6745C22.2177 13.4863 23.2431 15.5896 23.6482 18.0709C25.5939 17.9438 27.4328 17.1862 28.9141 15.871C32.5529 12.6406 32.8834 7.05266 29.653 3.41382H29.6547ZM17.2857 19.5098C17.1891 21.1233 16.4705 22.6046 15.262 23.6775C14.0536 24.7503 12.4994 25.291 10.8842 25.1944C9.27074 25.0977 7.78944 24.3791 6.7166 23.1707C5.64376 21.9623 5.1048 20.4064 5.19971 18.7929C5.29632 17.1794 6.01493 15.6981 7.22336 14.6253C8.34027 13.6338 9.75377 13.0982 11.2351 13.0982C11.3571 13.0982 11.4791 13.1016 11.6012 13.1084C13.2147 13.205 14.696 13.9236 15.7688 15.132C16.8433 16.3405 17.3806 17.8963 17.2857 19.5098Z" fill="#1E88E5"></path><path opacity="0.42" d="M5.20312 18.8013C5.29972 17.1878 6.01834 15.7065 7.22677 14.6337C8.34368 13.6422 9.75718 13.1066 11.2385 13.1066C11.3605 13.1066 11.4825 13.11 11.6046 13.1168C13.1689 13.21 14.6062 13.8879 15.6705 15.0303C14.6892 13.5337 14.2146 11.7321 14.2146 9.79827C14.2146 9.2949 14.2129 8.81017 14.2875 8.32714C13.5384 8.12206 12.7062 7.98308 11.913 7.93732C8.91993 7.75767 6.02851 8.75933 3.78283 10.7525C1.53715 12.7456 0.203307 15.4947 0.025348 18.4929C0.0219583 18.5454 0.0219585 18.5979 0.0202637 18.6505L5.26583 20.0843C5.20142 19.664 5.17939 19.2352 5.20651 18.8013H5.20312Z" fill="url(#paint0_linear_9502_217)"></path><defs><linearGradient id="paint0_linear_9502_217" x1="14.9248" y1="9.54574" x2="3.30658" y2="16.8166" gradientUnits="userSpaceOnUse"><stop offset="0.31" stop-color="#005D96"></stop><stop offset="1" stop-color="#1E88E5"></stop></linearGradient></defs></svg>