<svg width="18" height="18" viewBox="0 0 18 18" fill="none" xmlns="http://www.w3.org/2000/svg">
<path d="M8.99983 5.99991V8.99991M8.99983 11.9999H9.00733M7.71733 2.14491L1.36483 12.7499C1.23386 12.9767 1.16456 13.2339 1.16382 13.4958C1.16309 13.7577 1.23095 14.0153 1.36065 14.2428C1.49035 14.4704 1.67738 14.66 1.90311 14.7928C2.12885 14.9256 2.38543 14.997 2.64733 14.9999H15.3523C15.6142 14.997 15.8708 14.9256 16.0966 14.7928C16.3223 14.66 16.5093 14.4704 16.639 14.2428C16.7687 14.0153 16.8366 13.7577 16.8358 13.4958C16.8351 13.2339 16.7658 12.9767 16.6348 12.7499L10.2823 2.14491C10.1486 1.92449 9.96037 1.74225 9.73573 1.61577C9.51108 1.4893 9.25763 1.42285 8.99983 1.42285C8.74203 1.42285 8.48858 1.4893 8.26394 1.61577C8.03929 1.74225 7.85104 1.92449 7.71733 2.14491Z" stroke="white" stroke-width="1.5" stroke-linecap="round" stroke-linejoin="round"/>
</svg>
