<svg width="48" height="48" viewBox="0 0 48 48" fill="none" xmlns="http://www.w3.org/2000/svg">
<rect width="48" height="48" rx="24" fill="#3D54CD"/>
<path d="M24 19C24 17.9391 23.5786 16.9217 22.8284 16.1716C22.0783 15.4214 21.0609 15 20 15H14V30H21C21.7956 30 22.5587 30.3161 23.1213 30.8787C23.6839 31.4413 24 32.2044 24 33M24 19V33M24 19C24 17.9391 24.4214 16.9217 25.1716 16.1716C25.9217 15.4214 26.9391 15 28 15H34V30H27C26.2044 30 25.4413 30.3161 24.8787 30.8787C24.3161 31.4413 24 32.2044 24 33" stroke="white" stroke-width="2" stroke-linecap="round" stroke-linejoin="round"/>
</svg>
