<svg width="49" height="48" viewBox="0 0 49 48" fill="none" xmlns="http://www.w3.org/2000/svg">
<rect x="0.5" width="48" height="48" rx="24" fill="#0097A9"/>
<path d="M21.7498 24L23.9165 26.1667L28.7915 21.2917M31.3928 16.4151C31.6159 16.9546 32.0441 17.3835 32.5832 17.6073L34.4738 18.3905C35.0134 18.614 35.4421 19.0427 35.6656 19.5823C35.889 20.1218 35.889 20.7281 35.6656 21.2676L34.883 23.157C34.6594 23.6968 34.6591 24.3037 34.8837 24.8432L35.6649 26.732C35.7757 26.9992 35.8327 27.2857 35.8328 27.575C35.8328 27.8643 35.7759 28.1507 35.6652 28.418C35.5545 28.6853 35.3922 28.9281 35.1876 29.1327C34.983 29.3372 34.7401 29.4994 34.4728 29.61L32.5836 30.3926C32.044 30.6157 31.6152 31.0439 31.3913 31.5831L30.6082 33.4738C30.3847 34.0134 29.956 34.4421 29.4165 34.6655C28.8769 34.889 28.2707 34.889 27.7312 34.6656L25.8419 33.883C25.3023 33.66 24.6963 33.6605 24.1571 33.8842L22.2665 34.6663C21.7272 34.8892 21.1215 34.889 20.5824 34.6657C20.0433 34.4424 19.6149 34.0142 19.3912 33.4752L18.6079 31.584C18.3848 31.0445 17.9566 30.6156 17.4174 30.3917L15.5268 29.6086C14.9875 29.3852 14.5589 28.9568 14.3354 28.4175C14.1118 27.8782 14.1115 27.2723 14.3345 26.7328L15.1171 24.8435C15.34 24.3039 15.3396 23.6978 15.1158 23.1586L14.3344 21.2665C14.2236 20.9993 14.1666 20.7128 14.1665 20.4235C14.1665 20.1342 14.2234 19.8478 14.3341 19.5805C14.4448 19.3132 14.6071 19.0704 14.8117 18.8658C15.0163 18.6613 15.2592 18.4991 15.5265 18.3885L17.4157 17.6059C17.9548 17.383 18.3834 16.9553 18.6074 16.4167L19.3905 14.5261C19.614 13.9865 20.0427 13.5578 20.5822 13.3343C21.1218 13.1108 21.728 13.1108 22.2676 13.3343L24.1568 14.1169C24.6964 14.3398 25.3024 14.3394 25.8416 14.1156L27.7331 13.3355C28.2725 13.1122 28.8786 13.1122 29.4181 13.3357C29.9575 13.5591 30.3861 13.9877 30.6097 14.5271L31.393 16.4183L31.3928 16.4151Z" stroke="white" stroke-width="2" stroke-linecap="round" stroke-linejoin="round"/>
</svg>
