<svg width="45" height="44" viewBox="0 0 45 44" fill="none" xmlns="http://www.w3.org/2000/svg">
<rect x="0.199951" width="44" height="44" rx="8" fill="black" fill-opacity="0.04"/>
<path fill-rule="evenodd" clip-rule="evenodd" d="M13.2 18.7831L20.9403 23.2445C21.0236 23.2925 21.111 23.3272 21.2 23.3492V32.0018L13.752 27.6015C13.4098 27.3994 13.2 27.0319 13.2 26.635V18.7831ZM31.2 18.6641V26.6345C31.2 27.0315 30.9901 27.3989 30.6479 27.6011L23.2 32.0014V23.273C23.2181 23.2639 23.2361 23.2543 23.2539 23.244L31.2 18.6641Z" fill="white"/>
<path fill-rule="evenodd" clip-rule="evenodd" d="M13.4421 16.6131C13.5367 16.4939 13.656 16.3932 13.7951 16.3192L21.6702 12.1318C22.0008 11.9561 22.3973 11.9561 22.7279 12.1318L30.6029 16.3192C30.7101 16.3762 30.8056 16.4491 30.8871 16.5342L22.253 21.5107C22.1962 21.5434 22.1438 21.5809 22.0961 21.6222C22.0484 21.5809 21.9961 21.5434 21.9393 21.5107L13.4421 16.6131Z" fill="white"/>
</svg>
