<svg width="48" height="49" viewBox="0 0 48 49" fill="none" xmlns="http://www.w3.org/2000/svg">
<rect x="0.5" y="1.39996" width="47" height="47" rx="23.5" fill="#F2FFF3"/>
<rect x="0.5" y="1.39996" width="47" height="47" rx="23.5" stroke="#81C784"/>
<path d="M34 23.8858V24.8058C33.9988 26.9622 33.3005 29.0604 32.0093 30.7876C30.7182 32.5147 28.9033 33.7783 26.8354 34.3897C24.7674 35.0011 22.5573 34.9277 20.5345 34.1804C18.5117 33.433 16.7847 32.0519 15.611 30.2428C14.4373 28.4338 13.8798 26.2938 14.0217 24.1421C14.1636 21.9903 14.9972 19.9421 16.3983 18.3028C17.7994 16.6636 19.6928 15.5212 21.7962 15.0459C23.8996 14.5707 26.1003 14.7881 28.07 15.6658M34 16.8L24 26.81L21 23.81" stroke="#4CAF50" stroke-width="2" stroke-linecap="round" stroke-linejoin="round"/>
</svg>
