<svg width="49" height="48" viewBox="0 0 49 48" fill="none" xmlns="http://www.w3.org/2000/svg">
<rect x="0.333496" width="48" height="48" rx="24" fill="#33AA38"/>
<path d="M33 21L33 15M33 15H27M33 15L24 24M22 15H19.8C18.1198 15 17.2798 15 16.638 15.327C16.0735 15.6146 15.6146 16.0735 15.327 16.638C15 17.2798 15 18.1198 15 19.8V28.2C15 29.8802 15 30.7202 15.327 31.362C15.6146 31.9265 16.0735 32.3854 16.638 32.673C17.2798 33 18.1198 33 19.8 33H28.2C29.8802 33 30.7202 33 31.362 32.673C31.9265 32.3854 32.3854 31.9265 32.673 31.362C33 30.7202 33 29.8802 33 28.2V26" stroke="white" stroke-width="2" stroke-linecap="round" stroke-linejoin="round"/>
</svg>
