<svg width="49" height="48" viewBox="0 0 49 48" fill="none" xmlns="http://www.w3.org/2000/svg">
<rect x="0.666504" width="48" height="48" rx="24" fill="#C57600"/>
<path d="M32 23.5V17.8C32 16.1198 32 15.2798 31.673 14.638C31.3854 14.0735 30.9265 13.6146 30.362 13.327C29.7202 13 28.8802 13 27.2 13H20.8C19.1198 13 18.2798 13 17.638 13.327C17.0735 13.6146 16.6146 14.0735 16.327 14.638C16 15.2798 16 16.1198 16 17.8V28.2C16 29.8802 16 30.7202 16.327 31.362C16.6146 31.9265 17.0735 32.3854 17.638 32.673C18.2798 33 19.1198 33 20.8 33H24M26 22H20M22 26H20M28 18H20M26.5 30L28.5 32L33 27.5" stroke="white" stroke-width="2" stroke-linecap="round" stroke-linejoin="round"/>
</svg>
