<svg width="66" height="66" viewBox="0 0 66 66" fill="none" xmlns="http://www.w3.org/2000/svg">
<rect x="5" y="5" width="56" height="56" rx="28" fill="#EEF2FF"/>
<rect x="5" y="5" width="56" height="56" rx="28" stroke="#E0E7FF" stroke-width="10"/>
<path d="M43.8334 42.75V40.5833C43.8334 38.5642 42.4524 36.8676 40.5834 36.3865M36.7917 23.565C38.3798 24.2078 39.5001 25.7648 39.5001 27.5833C39.5001 29.4019 38.3798 30.9588 36.7917 31.6017M38.4167 42.75C38.4167 40.7309 38.4167 39.7214 38.0869 38.925C37.6471 37.8633 36.8035 37.0197 35.7417 36.5799C34.9454 36.25 33.9358 36.25 31.9167 36.25H28.6667C26.6477 36.25 25.6381 36.25 24.8418 36.5799C23.78 37.0197 22.9364 37.8633 22.4966 38.925C22.1667 39.7214 22.1667 40.7309 22.1667 42.75M34.6251 27.5833C34.6251 29.9766 32.685 31.9167 30.2917 31.9167C27.8985 31.9167 25.9584 29.9766 25.9584 27.5833C25.9584 25.1901 27.8985 23.25 30.2917 23.25C32.685 23.25 34.6251 25.1901 34.6251 27.5833Z" stroke="#3B82F6" stroke-width="2" stroke-linecap="round" stroke-linejoin="round"/>
</svg>
