<svg width="66" height="66" viewBox="0 0 66 66" fill="none" xmlns="http://www.w3.org/2000/svg">
<rect x="5" y="5" width="56" height="56" rx="28" fill="#EFF6FF"/>
<rect x="5" y="5" width="56" height="56" rx="28" stroke="#DBEAFE" stroke-width="10"/>
<path d="M36.6667 41.25V39.4167C36.6667 38.4442 36.2804 37.5116 35.5928 36.8239C34.9052 36.1363 33.9725 35.75 33.0001 35.75H26.5834C25.611 35.75 24.6783 36.1363 23.9907 36.8239C23.3031 37.5116 22.9167 38.4442 22.9167 39.4167V41.25M43.0834 32.0833H37.5834M33.4584 28.4167C33.4584 30.4417 31.8168 32.0833 29.7917 32.0833C27.7667 32.0833 26.1251 30.4417 26.1251 28.4167C26.1251 26.3916 27.7667 24.75 29.7917 24.75C31.8168 24.75 33.4584 26.3916 33.4584 28.4167Z" stroke="#3B82F6" stroke-width="1.5" stroke-linecap="round" stroke-linejoin="round"/>
</svg>
