<svg width="36" height="36" viewBox="0 0 36 36" fill="none" xmlns="http://www.w3.org/2000/svg">
<rect width="36" height="36" rx="18" fill="#875FC0"/>
<path d="M18 13.8333C18 12.9493 17.6488 12.1014 17.0237 11.4763C16.3986 10.8512 15.5507 10.5 14.6667 10.5H9.66667V23H15.5C16.163 23 16.7989 23.2634 17.2678 23.7322C17.7366 24.2011 18 24.837 18 25.5M18 13.8333V25.5M18 13.8333C18 12.9493 18.3512 12.1014 18.9763 11.4763C19.6014 10.8512 20.4493 10.5 21.3333 10.5H26.3333V23H20.5C19.837 23 19.2011 23.2634 18.7322 23.7322C18.2634 24.2011 18 24.837 18 25.5" stroke="white" stroke-linecap="round" stroke-linejoin="round"/>
</svg>
