<svg width="20" height="21" viewBox="0 0 20 21" fill="none" xmlns="http://www.w3.org/2000/svg">
<path d="M13.3334 3.83317H15C15.4421 3.83317 15.866 4.00877 16.1786 4.32133C16.4911 4.63389 16.6667 5.05781 16.6667 5.49984V17.1665C16.6667 17.6085 16.4911 18.0325 16.1786 18.345C15.866 18.6576 15.4421 18.8332 15 18.8332H5.00004C4.55801 18.8332 4.13409 18.6576 3.82153 18.345C3.50897 18.0325 3.33337 17.6085 3.33337 17.1665V5.49984C3.33337 5.05781 3.50897 4.63389 3.82153 4.32133C4.13409 4.00877 4.55801 3.83317 5.00004 3.83317H6.66671M7.50004 2.1665H12.5C12.9603 2.1665 13.3334 2.5396 13.3334 2.99984V4.6665C13.3334 5.12674 12.9603 5.49984 12.5 5.49984H7.50004C7.0398 5.49984 6.66671 5.12674 6.66671 4.6665V2.99984C6.66671 2.5396 7.0398 2.1665 7.50004 2.1665Z" stroke="white" stroke-width="2" stroke-linecap="round" stroke-linejoin="round"/>
</svg>
