<svg width="67" height="67" viewBox="0 0 67 67" fill="none" xmlns="http://www.w3.org/2000/svg">
<rect x="5.5" y="5.5" width="56" height="56" rx="28" fill="#DCFCE7"/>
<rect x="5.5" y="5.5" width="56" height="56" rx="28" stroke="#BBF7D0" stroke-width="10"/>
<path d="M37.5833 28.2502L41.6666 24.1668M44 21.8335L41.6666 24.1668L44 21.8335ZM32.7883 33.0452C33.3907 33.6395 33.8696 34.3472 34.1973 35.1274C34.5251 35.9076 34.6953 36.745 34.6982 37.5912C34.701 38.4375 34.5364 39.276 34.2139 40.0583C33.8913 40.8407 33.4172 41.5516 32.8188 42.15C32.2204 42.7484 31.5095 43.2225 30.7271 43.5451C29.9448 43.8676 29.1063 44.0322 28.26 44.0294C27.4138 44.0265 26.5764 43.8563 25.7962 43.5285C25.016 43.2008 24.3083 42.7219 23.714 42.1195C22.5451 40.9093 21.8983 39.2884 21.913 37.606C21.9276 35.9236 22.6024 34.3142 23.7921 33.1245C24.9818 31.9348 26.5912 31.26 28.2736 31.2453C29.9561 31.2307 31.5769 31.8775 32.7871 33.0463L32.7883 33.0452ZM32.7883 33.0452L37.5833 28.2502L32.7883 33.0452ZM37.5833 28.2502L41.0833 31.7502L45.1666 27.6668L41.6666 24.1668L37.5833 28.2502Z" stroke="#16A34A" stroke-width="2" stroke-linecap="round" stroke-linejoin="round"/>
</svg>
