<svg width="98" height="64" viewBox="0 0 98 64" fill="none" xmlns="http://www.w3.org/2000/svg">
<g filter="url(#filter0_dd_442_4762)">
<rect x="12" width="68" height="40" rx="8" fill="white"/>
<path d="M25.696 24H24.2983L27.4389 15.2727H28.9602L32.1009 24H30.7031L28.2358 16.858H28.1676L25.696 24ZM25.9304 20.5824H30.4645V21.6903H25.9304V20.5824ZM35.9105 24.1321C35.277 24.1321 34.7315 23.9886 34.2741 23.7017C33.8196 23.4119 33.4702 23.0128 33.2259 22.5043C32.9815 21.9957 32.8594 21.4134 32.8594 20.7571C32.8594 20.0923 32.9844 19.5057 33.2344 18.9972C33.4844 18.4858 33.8366 18.0866 34.2912 17.7997C34.7457 17.5128 35.2813 17.3693 35.8977 17.3693C36.3949 17.3693 36.8381 17.4616 37.2273 17.6463C37.6165 17.8281 37.9304 18.0838 38.169 18.4134C38.4105 18.7429 38.554 19.1278 38.5994 19.5682H37.3594C37.2912 19.2614 37.1349 18.9972 36.8906 18.7756C36.6491 18.554 36.3253 18.4432 35.919 18.4432C35.5639 18.4432 35.2528 18.5369 34.9858 18.7244C34.7216 18.9091 34.5156 19.1733 34.3679 19.517C34.2202 19.858 34.1463 20.2614 34.1463 20.7273C34.1463 21.2045 34.2188 21.6165 34.3636 21.9631C34.5085 22.3097 34.7131 22.5781 34.9773 22.7685C35.2443 22.9588 35.5582 23.054 35.919 23.054C36.1605 23.054 36.3793 23.0099 36.5753 22.9219C36.7741 22.831 36.9403 22.7017 37.0739 22.5341C37.2102 22.3665 37.3054 22.1648 37.3594 21.929H38.5994C38.554 22.3523 38.4162 22.7301 38.1861 23.0625C37.956 23.3949 37.6477 23.6562 37.2614 23.8466C36.8778 24.0369 36.4276 24.1321 35.9105 24.1321ZM43.0174 17.4545V18.4773H39.4421V17.4545H43.0174ZM40.4009 15.8864H41.6751V22.0781C41.6751 22.3253 41.712 22.5114 41.7859 22.6364C41.8597 22.7585 41.9549 22.8423 42.0714 22.8878C42.1907 22.9304 42.32 22.9517 42.4592 22.9517C42.5614 22.9517 42.6509 22.9446 42.7276 22.9304C42.8043 22.9162 42.864 22.9048 42.9066 22.8963L43.1367 23.9489C43.0629 23.9773 42.9577 24.0057 42.8214 24.0341C42.685 24.0653 42.5146 24.0824 42.31 24.0852C41.9748 24.0909 41.6623 24.0312 41.3725 23.9062C41.0827 23.7812 40.8484 23.5881 40.6694 23.3267C40.4904 23.0653 40.4009 22.7372 40.4009 22.3423V15.8864ZM44.4268 24V17.4545H45.701V24H44.4268ZM45.0703 16.4446C44.8487 16.4446 44.6584 16.3707 44.4993 16.223C44.343 16.0724 44.2649 15.8935 44.2649 15.6861C44.2649 15.4759 44.343 15.2969 44.4993 15.1491C44.6584 14.9986 44.8487 14.9233 45.0703 14.9233C45.2919 14.9233 45.4808 14.9986 45.6371 15.1491C45.7962 15.2969 45.8757 15.4759 45.8757 15.6861C45.8757 15.8935 45.7962 16.0724 45.6371 16.223C45.4808 16.3707 45.2919 16.4446 45.0703 16.4446ZM53.0146 17.4545L50.641 24H49.2773L46.8995 17.4545H48.2674L49.9251 22.4915H49.9933L51.6467 17.4545H53.0146ZM54.212 24V17.4545H55.4862V24H54.212ZM54.8555 16.4446C54.6339 16.4446 54.4435 16.3707 54.2844 16.223C54.1282 16.0724 54.0501 15.8935 54.0501 15.6861C54.0501 15.4759 54.1282 15.2969 54.2844 15.1491C54.4435 14.9986 54.6339 14.9233 54.8555 14.9233C55.0771 14.9233 55.266 14.9986 55.4222 15.1491C55.5813 15.2969 55.6609 15.4759 55.6609 15.6861C55.6609 15.8935 55.5813 16.0724 55.4222 16.223C55.266 16.3707 55.0771 16.4446 54.8555 16.4446ZM60.2557 17.4545V18.4773H56.6804V17.4545H60.2557ZM57.6392 15.8864H58.9134V22.0781C58.9134 22.3253 58.9503 22.5114 59.0241 22.6364C59.098 22.7585 59.1932 22.8423 59.3097 22.8878C59.429 22.9304 59.5582 22.9517 59.6974 22.9517C59.7997 22.9517 59.8892 22.9446 59.9659 22.9304C60.0426 22.9162 60.1023 22.9048 60.1449 22.8963L60.375 23.9489C60.3011 23.9773 60.196 24.0057 60.0597 24.0341C59.9233 24.0653 59.7528 24.0824 59.5483 24.0852C59.2131 24.0909 58.9006 24.0312 58.6108 23.9062C58.321 23.7812 58.0866 23.5881 57.9077 23.3267C57.7287 23.0653 57.6392 22.7372 57.6392 22.3423V15.8864ZM62.4705 26.4545C62.2802 26.4545 62.1069 26.4389 61.9506 26.4077C61.7944 26.3793 61.6779 26.348 61.6012 26.3139L61.908 25.2699C62.141 25.3324 62.3484 25.3594 62.5302 25.3509C62.712 25.3423 62.8725 25.2741 63.0117 25.1463C63.1538 25.0185 63.2788 24.8097 63.3867 24.5199L63.5444 24.0852L61.1495 17.4545H62.5131L64.1708 22.5341H64.239L65.8967 17.4545H67.2646L64.5671 24.8736C64.4421 25.2145 64.283 25.5028 64.0898 25.7386C63.8967 25.9773 63.6665 26.1563 63.3995 26.2756C63.1325 26.3949 62.8228 26.4545 62.4705 26.4545Z" fill="#0F172A"/>
<g clip-path="url(#clip0_442_4762)">
<path d="M77.4853 13.9289C77.4853 13.038 78.5624 12.5919 79.1924 13.2218L85.2635 19.2929C85.654 19.6834 85.654 20.3166 85.2635 20.7071L79.1924 26.7782C78.5624 27.4081 77.4853 26.962 77.4853 26.0711L77.4853 13.9289Z" fill="white"/>
</g>
</g>
<defs>
<filter id="filter0_dd_442_4762" x="0" y="0" width="98" height="64" filterUnits="userSpaceOnUse" color-interpolation-filters="sRGB">
<feFlood flood-opacity="0" result="BackgroundImageFix"/>
<feColorMatrix in="SourceAlpha" type="matrix" values="0 0 0 0 0 0 0 0 0 0 0 0 0 0 0 0 0 0 127 0" result="hardAlpha"/>
<feMorphology radius="2" operator="erode" in="SourceAlpha" result="effect1_dropShadow_442_4762"/>
<feOffset dy="4"/>
<feGaussianBlur stdDeviation="3"/>
<feColorMatrix type="matrix" values="0 0 0 0 0.0627451 0 0 0 0 0.0941176 0 0 0 0 0.156863 0 0 0 0.03 0"/>
<feBlend mode="normal" in2="BackgroundImageFix" result="effect1_dropShadow_442_4762"/>
<feColorMatrix in="SourceAlpha" type="matrix" values="0 0 0 0 0 0 0 0 0 0 0 0 0 0 0 0 0 0 127 0" result="hardAlpha"/>
<feMorphology radius="4" operator="erode" in="SourceAlpha" result="effect2_dropShadow_442_4762"/>
<feOffset dy="12"/>
<feGaussianBlur stdDeviation="8"/>
<feColorMatrix type="matrix" values="0 0 0 0 0.0627451 0 0 0 0 0.0941176 0 0 0 0 0.156863 0 0 0 0.08 0"/>
<feBlend mode="normal" in2="effect1_dropShadow_442_4762" result="effect2_dropShadow_442_4762"/>
<feBlend mode="normal" in="SourceGraphic" in2="effect2_dropShadow_442_4762" result="shape"/>
</filter>
<clipPath id="clip0_442_4762">
<rect width="16" height="6" fill="white" transform="matrix(0 -1 1 0 80 28)"/>
</clipPath>
</defs>
</svg>
