<svg width="18" height="18" viewBox="0 0 18 18" fill="none" xmlns="http://www.w3.org/2000/svg">
<rect width="18" height="18" rx="9" fill="#F9A825"/>
<g clip-path="url(#clip0_4146_6495)">
<path d="M13.6726 13.6814C13.6726 13.8574 13.53 14 13.354 14H4.64621C4.47027 14 4.32764 13.8574 4.32764 13.6814V13.0018C4.32764 12.8258 4.47027 12.6832 4.64621 12.6832H13.354C13.53 12.6832 13.6726 12.8258 13.6726 13.0018V13.6814ZM13.3245 8.47437C13.1852 8.43644 13.0375 8.49692 12.965 8.62206L12.3753 9.64024C12.3504 9.68318 12.2971 9.70986 12.2475 9.70986C12.1706 9.70986 12.1009 9.64724 12.1009 9.57036V6.70668C12.1009 6.56464 12.014 6.43976 11.8774 6.40051C11.7408 6.36134 11.5984 6.4172 11.523 6.53754L10.7267 7.81117C10.7305 7.89834 10.7337 7.98605 10.7337 8.07445C10.7337 8.87178 10.5764 9.62639 10.2899 10.1993C9.96838 10.8423 9.51536 11.1965 9.01397 11.1965C8.51257 11.1965 8.05946 10.8423 7.73795 10.1993C7.45153 9.62639 7.29381 8.87178 7.29381 8.07445C7.29381 7.99684 7.29577 7.91983 7.29874 7.84316L6.48063 6.53754C6.40502 6.41678 6.25835 6.36092 6.1217 6.40081C5.98492 6.44061 5.89118 6.5663 5.89211 6.70872L5.91042 9.56947C5.91076 9.61993 5.88514 9.65332 5.8699 9.6687C5.85465 9.68403 5.82143 9.70986 5.77097 9.70986H5.75657C5.70623 9.70986 5.65968 9.68259 5.635 9.63871L5.06542 8.62559C4.9947 8.49977 4.84819 8.43745 4.70823 8.47322C4.5684 8.50928 4.47027 8.63489 4.46917 8.77927L4.44793 11.5551C4.44729 11.6401 4.4806 11.7217 4.5404 11.782C4.60021 11.8423 4.6816 11.8762 4.76651 11.8762H13.2195C13.3945 11.8762 13.5367 11.735 13.538 11.5601L13.5593 8.78419C13.5604 8.6396 13.464 8.51243 13.3245 8.47437ZM9.44175 5.8142C9.44557 5.81088 9.44961 5.80774 9.45335 5.80434C9.505 5.75766 9.54888 5.70308 9.58346 5.64318C9.59038 5.63121 9.59692 5.61901 9.60308 5.60661C9.6154 5.58185 9.62619 5.55628 9.63541 5.53011C9.64093 5.51444 9.64564 5.49846 9.64993 5.48237C9.65643 5.4582 9.66174 5.43364 9.66544 5.40875C9.66956 5.3811 9.67189 5.35307 9.6724 5.32482C9.6744 5.21183 9.6467 5.09544 9.58346 4.98589L9.01426 4L8.44503 4.98594C8.38178 5.09548 8.35413 5.21187 8.35608 5.32486C8.35659 5.35311 8.35893 5.38114 8.36305 5.4088C8.36674 5.43369 8.37209 5.45824 8.37855 5.48241C8.38288 5.49851 8.3876 5.51448 8.39308 5.53015C8.40225 5.55632 8.41304 5.58189 8.4254 5.60665C8.43156 5.61906 8.4381 5.63125 8.44503 5.64323C8.4796 5.70312 8.52348 5.7577 8.57513 5.80438C8.57887 5.80778 8.58291 5.81093 8.58673 5.8142C8.22856 6.19178 7.93105 7.01736 7.93105 8.07445C7.93105 9.53884 8.50186 10.5594 9.01422 10.5594C9.52658 10.5594 10.0974 9.53884 10.0974 8.07445C10.0974 7.01736 9.79992 6.19182 9.44175 5.8142Z" fill="white"/>
</g>
<defs>
<clipPath id="clip0_4146_6495">
<rect width="10" height="10" fill="white" transform="translate(4 4)"/>
</clipPath>
</defs>
</svg>
