<svg width="24" height="24" viewBox="0 0 24 24" fill="none" xmlns="http://www.w3.org/2000/svg">
<path d="M19.5 9.75H17.25C16.8354 9.75 16.5 10.0858 16.5 10.5C16.5 10.9142 16.8354 11.25 17.25 11.25H19.5C19.8227 11.25 20.1202 11.3548 20.3652 11.5289L14.2991 15.7753C12.9441 16.7238 11.0559 16.7238 9.70093 15.7753L3.63483 11.5289C3.87982 11.3548 4.17728 11.25 4.5 11.25H6.75C7.16455 11.25 7.5 10.9142 7.5 10.5C7.5 10.0858 7.16455 9.75 6.75 9.75H4.5C2.84546 9.75 1.5 11.0958 1.5 12.75V19.5C1.5 21.1542 2.84546 22.5 4.5 22.5H19.5C21.1545 22.5 22.5 21.1542 22.5 19.5V12.75C22.5 11.0958 21.1545 9.75 19.5 9.75ZM19.5 21H4.5C3.6731 21 3 20.3273 3 19.5V12.9155L8.84106 17.0043C9.77124 17.6558 10.864 18 12 18C13.136 18 14.2288 17.6558 15.1589 17.0043L21 12.9155V19.5C21 20.3273 20.3269 21 19.5 21Z" fill="black" fill-opacity="0.56"/>
<path d="M14.25 6.75H15.75V8.25C15.75 8.66418 16.0854 9 16.5 9H19.5C19.9145 9 20.25 8.66418 20.25 8.25V6.75H21.75C22.0532 6.75 22.3271 6.56726 22.4429 6.28711C22.5593 6.00659 22.4949 5.68433 22.2803 5.46973L18.5303 1.71973C18.2373 1.42676 17.7627 1.42676 17.4697 1.71973L13.7197 5.46973C13.5051 5.68433 13.4407 6.00659 13.5571 6.28711C13.6728 6.56726 13.9468 6.75 14.25 6.75ZM18 3.31055L19.9394 5.25H19.5C19.0854 5.25 18.75 5.58582 18.75 6V7.5H17.25V6C17.25 5.58582 16.9145 5.25 16.5 5.25H16.0605L18 3.31055Z" fill="black" fill-opacity="0.56"/>
<path d="M7.55713 12.2871C7.67285 12.5673 7.94677 12.75 8.25 12.75H9.75V14.25C9.75 14.6642 10.0854 15 10.5 15H13.5C13.9145 15 14.25 14.6642 14.25 14.25V12.75H15.75C16.0532 12.75 16.3271 12.5673 16.4429 12.2871C16.5593 12.0066 16.4949 11.6843 16.2803 11.4697L12.5303 7.71973C12.2373 7.42676 11.7627 7.42676 11.4697 7.71973L7.71972 11.4697C7.50512 11.6843 7.44067 12.0066 7.55713 12.2871ZM12 9.31055L13.9394 11.25H13.5C13.0854 11.25 12.75 11.5858 12.75 12V13.5H11.25V12C11.25 11.5858 10.9145 11.25 10.5 11.25H10.0605L12 9.31055Z" fill="black" fill-opacity="0.56"/>
<path d="M2.25 6.75H3.75V8.25C3.75 8.66418 4.08545 9 4.5 9H7.5C7.91455 9 8.25 8.66418 8.25 8.25V6.75H9.75C10.0532 6.75 10.3271 6.56726 10.4429 6.28711C10.5593 6.00659 10.4949 5.68433 10.2803 5.46973L6.53027 1.71973C6.2373 1.42676 5.76269 1.42676 5.46972 1.71973L1.71972 5.46973C1.50512 5.68433 1.44067 6.00659 1.55713 6.28711C1.67285 6.56726 1.94677 6.75 2.25 6.75ZM6 3.31055L7.93945 5.25H7.5C7.08545 5.25 6.75 5.58582 6.75 6V7.5H5.25V6C5.25 5.58582 4.91455 5.25 4.5 5.25H4.06054L6 3.31055Z" fill="black" fill-opacity="0.56"/>
</svg>
