<svg width="18" height="18" viewBox="0 0 18 18" fill="none" xmlns="http://www.w3.org/2000/svg">
<rect width="18" height="18" rx="9" fill="#2196F3"/>
<g clip-path="url(#clip0_4146_6493)">
<path d="M13.4611 13.3781C13.4611 13.5421 13.3282 13.6751 13.1642 13.6751H4.80918C4.64517 13.6751 4.5122 13.5421 4.5122 13.3781V12.6654C4.5122 12.5013 4.64517 12.3684 4.80918 12.3684H13.1642C13.3282 12.3684 13.4611 12.5013 13.4611 12.6654V13.3781ZM13.9991 9.56138C14 9.5514 14.0003 9.54154 13.9999 9.53188C13.9998 9.52851 13.9999 9.52515 13.9996 9.52182C13.9987 9.50939 13.997 9.49723 13.9944 9.48547C13.9939 9.48357 13.9932 9.48179 13.9928 9.47993C13.9902 9.46995 13.9871 9.46029 13.9833 9.45086C13.982 9.44758 13.9807 9.44433 13.9792 9.44108C13.9754 9.43249 13.9711 9.42421 13.9664 9.41622C13.9651 9.41396 13.9639 9.41158 13.9625 9.40937C13.9563 9.39951 13.9494 9.39016 13.9418 9.38129C13.9401 9.37923 13.9382 9.37733 13.9363 9.37535C13.9302 9.36854 13.9238 9.36205 13.9169 9.35591C13.9143 9.35361 13.9118 9.35132 13.9091 9.3491C13.9013 9.34264 13.8933 9.33663 13.8849 9.33112C13.8835 9.33021 13.8822 9.32918 13.8808 9.32831C13.871 9.32213 13.8607 9.31675 13.8502 9.31188C13.8473 9.31057 13.8444 9.3095 13.8416 9.30827C13.8334 9.30483 13.825 9.30182 13.8164 9.29925C13.8132 9.2983 13.8101 9.29727 13.8069 9.29643C13.7955 9.2935 13.7841 9.29105 13.7724 9.2897C13.7721 9.28966 13.7719 9.2897 13.7716 9.28966C13.7624 9.28863 13.7531 9.28804 13.7438 9.28804C13.7411 9.28804 13.7384 9.28832 13.7357 9.2884C13.7339 9.28848 13.732 9.28855 13.7302 9.28863C13.7186 9.28927 13.7071 9.29073 13.6956 9.29307C13.6937 9.29346 13.6919 9.2939 13.6901 9.2943C13.6784 9.29695 13.6668 9.30039 13.6554 9.30491C13.6539 9.3055 13.6524 9.30622 13.6509 9.30685C13.6391 9.31176 13.6274 9.31746 13.6161 9.32443C13.6151 9.32502 13.6142 9.3257 13.6133 9.32629C13.6014 9.33377 13.5897 9.34225 13.5783 9.35211L13.1813 9.69957C13.0871 9.78197 12.9825 9.85309 12.8701 9.91193C12.8026 9.94721 12.7324 9.9781 12.66 10.0044C12.5876 10.0306 12.513 10.0522 12.4368 10.069C12.3097 10.0969 12.1783 10.1114 12.0451 10.1114C11.9501 10.1114 11.8561 10.104 11.7641 10.0897C11.3655 10.0278 11.0044 9.83559 10.7579 9.54697L9.94916 8.11403L9.30008 6.96401L9.91712 7.30506C9.96234 7.33012 10.0118 7.33959 10.061 7.33959C10.062 7.33959 10.0631 7.33959 10.0641 7.33959C10.2271 7.33959 10.3588 7.2086 10.3588 7.04534C10.3588 6.98385 10.3401 6.92948 10.3082 6.88204L9.80146 6.00434L9.27997 4.52309C9.23811 4.40422 9.12582 4.32471 8.99986 4.32471C8.87386 4.32471 8.76156 4.40418 8.71975 4.52305L8.19826 6.00426L7.68143 6.89935C7.61467 7.01493 7.63324 7.16061 7.72681 7.25584C7.8203 7.35099 7.96582 7.37186 8.08259 7.30708L8.69492 6.96722L7.21934 9.55235C7.04855 9.75038 6.82356 9.90247 6.56971 9.99766C6.51328 10.0188 6.45547 10.0372 6.39647 10.0526C6.30797 10.0757 6.2169 10.0922 6.1242 10.1017C6.06239 10.1081 5.99983 10.1113 5.93683 10.1113H5.93552C5.88199 10.1113 5.82873 10.109 5.77594 10.1044C5.74953 10.1021 5.72324 10.0992 5.69711 10.0957C5.54022 10.0752 5.38821 10.0344 5.2459 9.97521C5.19846 9.95549 5.15209 9.93371 5.10699 9.90999C4.99426 9.8506 4.88933 9.77885 4.79509 9.69577L4.42248 9.36727C4.41119 9.35734 4.39955 9.34886 4.38767 9.3413C4.38672 9.3407 4.38577 9.33999 4.38478 9.33936C4.37342 9.33235 4.36177 9.32657 4.35001 9.32166C4.34847 9.32102 4.34701 9.32031 4.34546 9.31972C4.33398 9.31516 4.32238 9.31168 4.31073 9.30899C4.30891 9.30859 4.30709 9.30812 4.30523 9.30776C4.29371 9.30538 4.28215 9.30388 4.27058 9.30321C4.26872 9.30309 4.26686 9.30301 4.265 9.30297C4.26211 9.30289 4.25922 9.30257 4.25633 9.30257C4.24766 9.30257 4.23906 9.30317 4.23051 9.30408C4.22972 9.30416 4.22893 9.30412 4.22813 9.3042C4.21645 9.30554 4.20501 9.30792 4.19365 9.31081C4.19048 9.31164 4.18735 9.31263 4.18422 9.31358C4.17567 9.31611 4.16731 9.31912 4.15908 9.32253C4.15611 9.32376 4.15314 9.32491 4.15021 9.32625C4.13967 9.33108 4.12938 9.33643 4.11956 9.34257C4.11829 9.34336 4.1171 9.34435 4.11584 9.34514C4.10728 9.35068 4.09913 9.35678 4.09125 9.36327C4.08856 9.36549 4.08598 9.36779 4.08337 9.37012C4.0766 9.37618 4.07022 9.3826 4.06412 9.38933C4.06222 9.39143 4.0602 9.39341 4.05838 9.39555C4.0509 9.40438 4.04397 9.41372 4.03775 9.42354C4.03637 9.42572 4.03522 9.42806 4.03391 9.43027C4.02916 9.43831 4.02484 9.44663 4.021 9.45522C4.01954 9.45847 4.01815 9.46171 4.01684 9.46508C4.01316 9.47442 4.00999 9.48401 4.00746 9.49391C4.00695 9.49588 4.00623 9.49775 4.0058 9.49973C4.0031 9.51149 4.0014 9.52364 4.00045 9.53608C4.00021 9.53936 4.00025 9.54273 4.00013 9.54609C3.99982 9.5558 4.00006 9.56565 4.00089 9.57571C4.0012 9.57951 4.00148 9.58324 4.00196 9.58708C4.00366 9.60034 4.00607 9.6138 4.00995 9.62751L4.12289 10.0242L4.51961 11.418H8.99974L13.4799 11.3982L13.9899 9.61313C13.9938 9.59943 13.9963 9.58601 13.998 9.57274C13.9986 9.5689 13.9988 9.56514 13.9991 9.56138Z" fill="#E3F2FD"/>
</g>
<defs>
<clipPath id="clip0_4146_6493">
<rect width="10" height="10" fill="white" transform="translate(4 4)"/>
</clipPath>
</defs>
</svg>
