<svg width="100" height="64" viewBox="0 0 100 64" fill="none" xmlns="http://www.w3.org/2000/svg">
<g filter="url(#filter0_dd_61_375)">
<rect x="12" width="70" height="40" rx="8" fill="white"/>
<path d="M24.9588 24V15.2727H30.3707V16.4062H26.2756V19.0653H29.983V20.1946H26.2756V24H24.9588ZM31.8878 24V17.4545H33.1619V24H31.8878ZM32.5312 16.4446C32.3097 16.4446 32.1193 16.3707 31.9602 16.223C31.804 16.0724 31.7259 15.8935 31.7259 15.6861C31.7259 15.4759 31.804 15.2969 31.9602 15.1491C32.1193 14.9986 32.3097 14.9233 32.5312 14.9233C32.7528 14.9233 32.9418 14.9986 33.098 15.1491C33.2571 15.2969 33.3366 15.4759 33.3366 15.6861C33.3366 15.8935 33.2571 16.0724 33.098 16.223C32.9418 16.3707 32.7528 16.4446 32.5312 16.4446ZM36.1502 15.2727V24H34.8761V15.2727H36.1502ZM40.6854 24.1321C40.0405 24.1321 39.4851 23.9943 39.0192 23.7188C38.5561 23.4403 38.1982 23.0497 37.9453 22.5469C37.6953 22.0412 37.5703 21.4489 37.5703 20.7699C37.5703 20.0994 37.6953 19.5085 37.9453 18.9972C38.1982 18.4858 38.5504 18.0866 39.0021 17.7997C39.4567 17.5128 39.9879 17.3693 40.5959 17.3693C40.9652 17.3693 41.3232 17.4304 41.6697 17.5526C42.0163 17.6747 42.3274 17.8665 42.603 18.1278C42.8786 18.3892 43.0959 18.7287 43.255 19.1463C43.4141 19.5611 43.4936 20.0653 43.4936 20.6591V21.1108H38.2905V20.1562H42.245C42.245 19.821 42.1768 19.5241 42.0405 19.2656C41.9041 19.0043 41.7124 18.7983 41.4652 18.6477C41.2209 18.4972 40.9339 18.4219 40.6044 18.4219C40.2464 18.4219 39.9339 18.5099 39.6669 18.6861C39.4027 18.8594 39.1982 19.0866 39.0533 19.3679C38.9112 19.6463 38.8402 19.9489 38.8402 20.2756V21.0213C38.8402 21.4588 38.9169 21.831 39.0703 22.1378C39.2266 22.4446 39.4439 22.679 39.7223 22.8409C40.0007 23 40.326 23.0795 40.6982 23.0795C40.9396 23.0795 41.1598 23.0455 41.3587 22.9773C41.5575 22.9062 41.7294 22.8011 41.8743 22.6619C42.0192 22.5227 42.13 22.3509 42.2067 22.1463L43.4126 22.3636C43.3161 22.7187 43.1428 23.0298 42.8928 23.2969C42.6456 23.5611 42.3345 23.767 41.9595 23.9148C41.5874 24.0597 41.1626 24.1321 40.6854 24.1321ZM49.5021 15.2727V24H48.1854V15.2727H49.5021ZM52.5916 20.1136V24H51.3175V17.4545H52.5405V18.5199H52.6214C52.772 18.1733 53.0078 17.8949 53.3288 17.6847C53.6527 17.4744 54.0604 17.3693 54.5518 17.3693C54.9979 17.3693 55.3885 17.4631 55.7237 17.6506C56.0589 17.8352 56.3189 18.1108 56.5036 18.4773C56.6882 18.8437 56.7805 19.2969 56.7805 19.8366V24H55.5064V19.9901C55.5064 19.5156 55.3828 19.1449 55.1357 18.8778C54.8885 18.608 54.549 18.473 54.1172 18.473C53.8217 18.473 53.5589 18.5369 53.3288 18.6648C53.1016 18.7926 52.9212 18.9801 52.7876 19.2273C52.657 19.4716 52.5916 19.767 52.5916 20.1136ZM61.6044 17.4545V18.4773H57.9055V17.4545H61.6044ZM58.9197 24V16.696C58.9197 16.2869 59.0092 15.9474 59.1882 15.6776C59.3672 15.4048 59.6044 15.2017 59.8999 15.0682C60.1953 14.9318 60.5163 14.8636 60.8629 14.8636C61.1186 14.8636 61.3374 14.8849 61.5192 14.9276C61.701 14.9673 61.8359 15.0043 61.924 15.0384L61.6257 16.0696C61.5661 16.0526 61.4893 16.0327 61.3956 16.0099C61.3018 15.9844 61.1882 15.9716 61.0547 15.9716C60.745 15.9716 60.5234 16.0483 60.3899 16.2017C60.2592 16.3551 60.1939 16.5767 60.1939 16.8665V24H58.9197ZM65.4183 24.1321C64.8047 24.1321 64.2692 23.9915 63.8118 23.7102C63.3544 23.429 62.9993 23.0355 62.7464 22.5298C62.4936 22.0241 62.3672 21.4332 62.3672 20.7571C62.3672 20.0781 62.4936 19.4844 62.7464 18.9759C62.9993 18.4673 63.3544 18.0724 63.8118 17.7912C64.2692 17.5099 64.8047 17.3693 65.4183 17.3693C66.032 17.3693 66.5675 17.5099 67.0249 17.7912C67.4822 18.0724 67.8374 18.4673 68.0902 18.9759C68.343 19.4844 68.4695 20.0781 68.4695 20.7571C68.4695 21.4332 68.343 22.0241 68.0902 22.5298C67.8374 23.0355 67.4822 23.429 67.0249 23.7102C66.5675 23.9915 66.032 24.1321 65.4183 24.1321ZM65.4226 23.0625C65.8203 23.0625 66.1499 22.9574 66.4112 22.7472C66.6726 22.5369 66.8658 22.2571 66.9908 21.9077C67.1186 21.5582 67.1825 21.1733 67.1825 20.7528C67.1825 20.3352 67.1186 19.9517 66.9908 19.6023C66.8658 19.25 66.6726 18.9673 66.4112 18.7543C66.1499 18.5412 65.8203 18.4347 65.4226 18.4347C65.022 18.4347 64.6896 18.5412 64.4254 18.7543C64.1641 18.9673 63.9695 19.25 63.8416 19.6023C63.7166 19.9517 63.6541 20.3352 63.6541 20.7528C63.6541 21.1733 63.7166 21.5582 63.8416 21.9077C63.9695 22.2571 64.1641 22.5369 64.4254 22.7472C64.6896 22.9574 65.022 23.0625 65.4226 23.0625Z" fill="#0F172A"/>
<g clip-path="url(#clip0_61_375)">
<path d="M79.4853 13.9289C79.4853 13.038 80.5624 12.5919 81.1924 13.2218L87.2635 19.2929C87.654 19.6834 87.654 20.3166 87.2635 20.7071L81.1924 26.7782C80.5624 27.4081 79.4853 26.962 79.4853 26.0711L79.4853 13.9289Z" fill="white"/>
</g>
</g>
<defs>
<filter id="filter0_dd_61_375" x="0" y="0" width="100" height="64" filterUnits="userSpaceOnUse" color-interpolation-filters="sRGB">
<feFlood flood-opacity="0" result="BackgroundImageFix"/>
<feColorMatrix in="SourceAlpha" type="matrix" values="0 0 0 0 0 0 0 0 0 0 0 0 0 0 0 0 0 0 127 0" result="hardAlpha"/>
<feMorphology radius="2" operator="erode" in="SourceAlpha" result="effect1_dropShadow_61_375"/>
<feOffset dy="4"/>
<feGaussianBlur stdDeviation="3"/>
<feColorMatrix type="matrix" values="0 0 0 0 0.0627451 0 0 0 0 0.0941176 0 0 0 0 0.156863 0 0 0 0.03 0"/>
<feBlend mode="normal" in2="BackgroundImageFix" result="effect1_dropShadow_61_375"/>
<feColorMatrix in="SourceAlpha" type="matrix" values="0 0 0 0 0 0 0 0 0 0 0 0 0 0 0 0 0 0 127 0" result="hardAlpha"/>
<feMorphology radius="4" operator="erode" in="SourceAlpha" result="effect2_dropShadow_61_375"/>
<feOffset dy="12"/>
<feGaussianBlur stdDeviation="8"/>
<feColorMatrix type="matrix" values="0 0 0 0 0.0627451 0 0 0 0 0.0941176 0 0 0 0 0.156863 0 0 0 0.08 0"/>
<feBlend mode="normal" in2="effect1_dropShadow_61_375" result="effect2_dropShadow_61_375"/>
<feBlend mode="normal" in="SourceGraphic" in2="effect2_dropShadow_61_375" result="shape"/>
</filter>
<clipPath id="clip0_61_375">
<rect width="16" height="6" fill="white" transform="matrix(0 -1 1 0 82 28)"/>
</clipPath>
</defs>
</svg>
