<svg width="18" height="18" viewBox="0 0 18 18" fill="none" xmlns="http://www.w3.org/2000/svg">
<rect width="18" height="18" rx="9" fill="#F43F5E"/>
<g clip-path="url(#clip0_4146_6494)">
<path d="M12.2792 13.5224C12.2792 13.6908 12.1427 13.8273 11.9743 13.8273H5.95805C5.78967 13.8273 5.65317 13.6908 5.65317 13.5224V12.872C5.65317 12.7037 5.78967 12.5672 5.95805 12.5672H11.9743C12.1427 12.5672 12.2792 12.7037 12.2792 12.872V13.5224ZM13.91 7.94021C13.8237 7.85456 13.6948 7.82842 13.5819 7.87346L12.7569 8.20346C12.5228 7.8257 12.1065 7.58366 11.6437 7.58366C11.5351 7.58366 11.4262 7.59736 11.3201 7.62431C10.7955 7.75765 10.4254 8.19196 10.3473 8.69574L9.31313 6.12602C9.71272 5.99423 10.0021 5.61757 10.0021 5.17436C10.0021 4.62183 9.55252 4.17236 9.00004 4.17236C8.44756 4.17236 7.99805 4.62188 7.99805 5.1744C7.99805 5.61757 8.28735 5.99423 8.68695 6.12602L7.66183 8.67338C7.57626 8.17911 7.20975 7.75566 6.69296 7.62436C6.58695 7.5974 6.47805 7.5837 6.36943 7.5837C5.90504 7.5837 5.48731 7.82749 5.25361 8.20769L4.41813 7.8735C4.30475 7.82814 4.1752 7.8548 4.08898 7.94135C4.00276 8.02785 3.97646 8.15744 4.02215 8.2707L5.38394 11.6447C5.43048 11.76 5.54231 11.8355 5.66666 11.8355H12.374C12.4995 11.8355 12.6121 11.7585 12.6578 11.6417L13.979 8.26773C14.0234 8.15456 13.9962 8.02586 13.91 7.94021Z" fill="#FFF1F2"/>
</g>
<defs>
<clipPath id="clip0_4146_6494">
<rect width="10" height="10" fill="white" transform="translate(4 4)"/>
</clipPath>
</defs>
</svg>
