<svg width="22" height="24" viewBox="0 0 22 24" fill="none" xmlns="http://www.w3.org/2000/svg">
<path d="M20.375 10.3125V19.3125C20.375 21.3836 18.6961 23.0625 16.625 23.0625H5.375C3.30392 23.0625 1.625 21.3836 1.625 19.3125V4.6875C1.625 2.61642 3.30392 0.9375 5.375 0.9375H15.0717C16.0663 0.9375 17.0201 1.33261 17.7234 2.03583L19.2767 3.58913C19.9799 4.29239 20.375 5.24625 20.375 6.2408V6.5625H16.625C15.5895 6.5625 14.75 5.72302 14.75 4.6875V0.9375" stroke="#475569" stroke-width="2" stroke-miterlimit="10" stroke-linecap="round" stroke-linejoin="round"/>
<path d="M5.375 17.4375H16.625" stroke="#475569" stroke-width="2" stroke-miterlimit="10" stroke-linecap="round" stroke-linejoin="round"/>
<path d="M7.25 14.0625V17.4375" stroke="#475569" stroke-width="2" stroke-miterlimit="10" stroke-linecap="round" stroke-linejoin="round"/>
<path d="M11 12.1875V17.4375" stroke="#475569" stroke-width="2" stroke-miterlimit="10" stroke-linecap="round" stroke-linejoin="round"/>
<path d="M14.75 10.3125V17.4375" stroke="#475569" stroke-width="2" stroke-miterlimit="10" stroke-linecap="round" stroke-linejoin="round"/>
<path d="M5.375 6.5625H9.125" stroke="#475569" stroke-width="2" stroke-miterlimit="10" stroke-linecap="round" stroke-linejoin="round"/>
</svg>
