<svg id="Risk" viewBox="0 0 64 64" xmlns="http://www.w3.org/2000/svg"><path d="m58.74 43.65-18.45-32.78c-1.72-3.05-4.82-4.87-8.29-4.87-3.48 0-6.58 1.82-8.29 4.87l-18.45 32.78c-1.7 3.02-1.67 6.62.08 9.62 1.73 2.96 4.8 4.73 8.22 4.73h36.9c3.41 0 6.48-1.77 8.22-4.73 1.75-3 1.78-6.59.08-9.62zm-3.53 7.6c-1.01 1.72-2.79 2.75-4.76 2.75h-36.9c-1.98 0-3.76-1.03-4.76-2.75-1.03-1.76-1.04-3.86-.05-5.63l18.45-32.79c1-1.77 2.8-2.83 4.81-2.83s3.81 1.06 4.81 2.83l18.45 32.78c1 1.77.98 3.88-.05 5.63z"/><path d="m32 20c-1.1 0-2 .9-2 2v16c0 1.1.9 2 2 2s2-.9 2-2v-16c0-1.1-.9-2-2-2z"/><circle cx="32" cy="46" r="2"/></svg>