<svg width="24" height="24" viewBox="0 0 24 24" fill="none" xmlns="http://www.w3.org/2000/svg">
<path d="M10.9559 19.3125C10.9559 17.6147 11.6303 15.9864 12.8309 14.7858L19.8617 7.75505C20.5939 7.02281 21.7811 7.02281 22.5134 7.75505C23.2456 8.48728 23.2456 9.67449 22.5134 10.4067L15.4825 17.4375C14.282 18.6381 12.6537 19.3125 10.9559 19.3125Z" stroke="#475569" stroke-width="2" stroke-miterlimit="10" stroke-linecap="round" stroke-linejoin="round"/>
<path d="M20.2367 12.6834L17.585 10.0317" stroke="#475569" stroke-width="2" stroke-miterlimit="10" stroke-linecap="round" stroke-linejoin="round"/>
<path d="M17.8125 20.3969V21.1875C17.8125 22.223 16.973 23.0625 15.9375 23.0625H2.8125C1.77698 23.0625 0.9375 22.223 0.9375 21.1875V2.8125C0.9375 1.77698 1.77698 0.9375 2.8125 0.9375H13.2858C13.7831 0.9375 14.26 1.13503 14.6116 1.48669L17.2633 4.13831C17.4918 4.36673 17.6552 4.64808 17.7416 4.95352" stroke="#475569" stroke-width="2" stroke-miterlimit="10" stroke-linecap="round" stroke-linejoin="round"/>
<path d="M4.6875 19.3125C4.6875 18.277 5.52698 17.4375 6.5625 17.4375C7.59802 17.4375 8.4375 18.277 8.4375 19.3125H10.9559" stroke="bl#475569ack" stroke-width="2" stroke-miterlimit="10" stroke-linecap="round" stroke-linejoin="round"/>
<path d="M4.6875 6.5625H10.3125" stroke="#475569" stroke-width="2" stroke-miterlimit="10" stroke-linecap="round" stroke-linejoin="round"/>
<path d="M4.6875 10.3125H10.3125" stroke="#475569" stroke-width="2" stroke-miterlimit="10" stroke-linecap="round" stroke-linejoin="round"/>
</svg>
