<svg width="28" height="28" viewBox="0 0 28 28" fill="none" xmlns="http://www.w3.org/2000/svg">
<g id="workflow (2) 1">
<path id="Vector" d="M19.25 9.62435H8.74999C7.62999 9.62435 6.70833 8.70268 6.70833 7.58268V4.08268C6.70833 2.96268 7.62999 2.04102 8.74999 2.04102H19.25C20.37 2.04102 21.2917 2.96268 21.2917 4.08268V7.58268C21.2917 8.70268 20.37 9.62435 19.25 9.62435ZM8.74999 3.79102C8.58666 3.79102 8.45833 3.91935 8.45833 4.08268V7.58268C8.45833 7.74602 8.58666 7.87435 8.74999 7.87435H19.25C19.4133 7.87435 19.5417 7.74602 19.5417 7.58268V4.08268C19.5417 3.91935 19.4133 3.79102 19.25 3.79102H8.74999Z" fill="#475569"/>
<path id="Vector_2" d="M19.25 26.5423H8.74999C7.62999 26.5423 6.70833 25.6207 6.70833 24.5007V21.0007C6.70833 19.8807 7.62999 18.959 8.74999 18.959H19.25C20.37 18.959 21.2917 19.8807 21.2917 21.0007V24.5007C21.2917 25.6207 20.37 26.5423 19.25 26.5423ZM8.74999 20.709C8.58666 20.709 8.45833 20.8373 8.45833 21.0007V24.5007C8.45833 24.664 8.58666 24.7923 8.74999 24.7923H19.25C19.4133 24.7923 19.5417 24.664 19.5417 24.5007V21.0007C19.5417 20.8373 19.4133 20.709 19.25 20.709H8.74999Z" fill="#475569"/>
<path id="Vector_3" d="M2.33333 7.87404C2.11166 7.87404 1.88999 7.79237 1.71499 7.61737C1.37666 7.27904 1.37666 6.71904 1.71499 6.3807L2.84666 5.24904L1.71499 4.11737C1.37666 3.77904 1.37666 3.21904 1.71499 2.8807C2.05333 2.54237 2.61333 2.54237 2.95166 2.8807L4.70166 4.6307C5.03999 4.96904 5.03999 5.52904 4.70166 5.86737L2.95166 7.61737C2.77666 7.79237 2.55499 7.87404 2.33333 7.87404Z" fill="#475569"/>
<path id="Vector_4" d="M23.9167 25.374C23.695 25.374 23.4733 25.2924 23.2983 25.1174C22.96 24.779 22.96 24.219 23.2983 23.8807L24.43 22.749L23.2983 21.6174C22.96 21.279 22.96 20.719 23.2983 20.3807C23.6367 20.0424 24.1967 20.0424 24.535 20.3807L26.285 22.1307C26.6233 22.469 26.6233 23.029 26.285 23.3674L24.535 25.1174C24.36 25.2924 24.1383 25.374 23.9167 25.374Z" fill="#475569"/>
<path id="Vector_5" d="M23.3333 14.875H22.75C22.2717 14.875 5.83333 15.1667 5.83333 14C5.83333 12.8333 22.2717 13.125 22.75 13.125H23.3333C24.1383 13.125 24.7917 12.4717 24.7917 11.6667V7.58333C24.7917 6.77833 24.1383 6.125 23.3333 6.125H22.75C22.2717 6.125 21.875 5.72833 21.875 5.25C21.875 4.77167 22.2717 4.375 22.75 4.375H23.3333C25.1067 4.375 26.5417 5.81 26.5417 7.58333V11.6667C26.5417 13.44 25.1067 14.875 23.3333 14.875Z" fill="#475569"/>
<path id="Vector_6" d="M5.25 23.6243H4.66666C2.89333 23.6243 1.45833 22.1893 1.45833 20.4159V16.3326C1.45833 14.5593 2.89333 13.1243 4.66666 13.1243H5.25C5.72833 13.1243 23.9167 12.8323 23.9167 13.9993C23.9167 15.1654 5.72833 14.8743 5.25 14.8743H4.66666C3.86166 14.8743 3.20833 15.5276 3.20833 16.3326V20.4159C3.20833 21.2209 3.86166 21.8743 4.66666 21.8743H5.25C5.72833 21.8743 6.125 22.2709 6.125 22.7493C6.125 23.2276 5.72833 23.6243 5.25 23.6243Z" fill="#475569"/>
</g>
</svg>
