<svg width="40" height="40" viewBox="0 0 40 40" fill="none" xmlns="http://www.w3.org/2000/svg">
<rect width="40" height="40" rx="20" fill="white"/>
<g clip-path="url(#clip0_4070_20211)">
<path d="M22.75 20L25.1194 22.7083L28.3056 24.7444L28.8611 20.0166L28.3056 15.3944L25.0583 17.1833L22.75 20Z" fill="#00832D"/>
<path d="M9 24.3055V28.3333C9 29.2541 9.74583 29.9999 10.6667 29.9999H14.6944L15.5278 26.9555L14.6944 24.3055L11.9306 23.4722L9 24.3055Z" fill="#0066DA"/>
<path d="M14.6944 10L9 15.6944L11.9306 16.5278L14.6944 15.6944L15.5139 13.0806L14.6944 10Z" fill="#E94235"/>
<path d="M14.6944 15.6945H9V24.3056H14.6944V15.6945Z" fill="#2684FC"/>
<path d="M31.9443 12.4111L28.3054 15.3945V24.7445L31.961 27.7417C32.5082 28.1695 33.3082 27.7792 33.3082 27.0834V13.0556C33.3082 12.3514 32.4902 11.9653 31.9443 12.4111ZM22.7499 20V24.3056H14.6943V30H26.6388C27.5596 30 28.3054 29.2542 28.3054 28.3334V24.7445L22.7499 20Z" fill="#00AC47"/>
<path d="M26.6388 10H14.6943V15.6944H22.7499V20L28.3054 15.3972V11.6667C28.3054 10.7458 27.5596 10 26.6388 10Z" fill="#FFBA00"/>
</g>
<defs>
<clipPath id="clip0_4070_20211">
<rect width="24.3056" height="20" fill="white" transform="translate(9 10)"/>
</clipPath>
</defs>
</svg>
