<svg width="36" height="36" viewBox="0 0 36 36" fill="none" xmlns="http://www.w3.org/2000/svg">
<g clip-path="url(#clip0_4070_19575)">
<path d="M27.2675 15.5574L20.9467 9.23572C20.1644 8.45571 19.1047 8.0177 18 8.0177C16.8953 8.0177 15.8356 8.45571 15.0533 9.23572L8.73251 15.5574C8.49953 15.7889 8.31482 16.0643 8.18908 16.3677C8.06334 16.6711 7.99907 16.9965 8.00001 17.3249V25.5057C8.00001 26.1688 8.2634 26.8046 8.73224 27.2735C9.20108 27.7423 9.83697 28.0057 10.5 28.0057H25.5C26.1631 28.0057 26.7989 27.7423 27.2678 27.2735C27.7366 26.8046 28 26.1688 28 25.5057V17.3249C28.0009 16.9965 27.9367 16.6711 27.8109 16.3677C27.6852 16.0643 27.5005 15.7889 27.2675 15.5574ZM20.5 26.3391H15.5V23.0607C15.5 22.3977 15.7634 21.7618 16.2322 21.293C16.7011 20.8241 17.337 20.5607 18 20.5607C18.6631 20.5607 19.2989 20.8241 19.7678 21.293C20.2366 21.7618 20.5 22.3977 20.5 23.0607V26.3391ZM26.3333 25.5057C26.3333 25.7267 26.2455 25.9387 26.0893 26.095C25.933 26.2513 25.721 26.3391 25.5 26.3391H22.1667V23.0607C22.1667 21.9557 21.7277 20.8958 20.9463 20.1144C20.1649 19.333 19.1051 18.8941 18 18.8941C16.8949 18.8941 15.8351 19.333 15.0537 20.1144C14.2723 20.8958 13.8333 21.9557 13.8333 23.0607V26.3391H10.5C10.279 26.3391 10.067 26.2513 9.91075 26.095C9.75447 25.9387 9.66668 25.7267 9.66668 25.5057V17.3249C9.66745 17.104 9.75517 16.8924 9.91084 16.7357L16.2317 10.4166C16.7014 9.949 17.3372 9.68651 18 9.68651C18.6628 9.68651 19.2986 9.949 19.7683 10.4166L26.0892 16.7382C26.2442 16.8943 26.3319 17.1049 26.3333 17.3249V25.5057Z" fill="black" fill-opacity="#000"/>
</g>
<defs>
<clipPath id="clip0_4070_19575">
<rect width="20" height="20" fill="white" transform="translate(8 8)"/>
</clipPath>
</defs>
</svg>
