<svg width="40" height="40" viewBox="0 0 40 40" fill="none" xmlns="http://www.w3.org/2000/svg">
<rect x="0.5" y="0.5" width="39" height="39" rx="19.5" fill="white"/>
<rect x="0.5" y="0.5" width="39" height="39" rx="19.5" stroke="#E0E0E0"/>
<path d="M30.281 9.71935C30.2114 9.64962 30.1287 9.5943 30.0376 9.55656C29.9466 9.51882 29.849 9.49939 29.7504 9.49939C29.6519 9.49939 29.5543 9.51882 29.4632 9.55656C29.3722 9.5943 29.2894 9.64962 29.2198 9.71935L24.3073 14.6328L23.8039 14.1284C23.2406 13.5668 22.4777 13.2514 21.6823 13.2514C20.8869 13.2514 20.124 13.5668 19.5607 14.1284L17.3754 16.3147L16.781 15.7194C16.6403 15.5786 16.4494 15.4996 16.2504 15.4996C16.0514 15.4996 15.8605 15.5786 15.7198 15.7194C15.5791 15.8601 15.5 16.051 15.5 16.25C15.5 16.449 15.5791 16.6399 15.7198 16.7806L16.3151 17.375L14.1289 19.5603C13.8502 19.8389 13.6292 20.1696 13.4784 20.5336C13.3276 20.8977 13.2499 21.2878 13.2499 21.6819C13.2499 22.0759 13.3276 22.466 13.4784 22.8301C13.6292 23.1941 13.8502 23.5248 14.1289 23.8034L14.6332 24.3069L9.71979 29.2194C9.65011 29.289 9.59483 29.3718 9.55712 29.4628C9.51941 29.5539 9.5 29.6514 9.5 29.75C9.5 29.8485 9.51941 29.9461 9.55712 30.0372C9.59483 30.1282 9.65011 30.2109 9.71979 30.2806C9.86052 30.4213 10.0514 30.5004 10.2504 30.5004C10.349 30.5004 10.4465 30.481 10.5376 30.4433C10.6286 30.4056 10.7114 30.3503 10.781 30.2806L15.6935 25.3672L16.197 25.8715C16.4756 26.1502 16.8063 26.3712 17.1703 26.522C17.5344 26.6728 17.9245 26.7505 18.3185 26.7505C18.7126 26.7505 19.1027 26.6728 19.4668 26.522C19.8308 26.3712 20.1615 26.1502 20.4401 25.8715L22.6254 23.6853L23.2198 24.2806C23.2895 24.3503 23.3722 24.4056 23.4632 24.4433C23.5543 24.481 23.6519 24.5004 23.7504 24.5004C23.849 24.5004 23.9465 24.481 24.0376 24.4433C24.1286 24.4056 24.2114 24.3503 24.281 24.2806C24.3507 24.2109 24.406 24.1282 24.4437 24.0372C24.4814 23.9461 24.5008 23.8485 24.5008 23.75C24.5008 23.6514 24.4814 23.5539 24.4437 23.4628C24.406 23.3718 24.3507 23.289 24.281 23.2194L23.6857 22.625L25.872 20.4397C26.1506 20.1611 26.3717 19.8303 26.5225 19.4663C26.6733 19.1023 26.7509 18.7121 26.7509 18.3181C26.7509 17.9241 26.6733 17.5339 26.5225 17.1699C26.3717 16.8059 26.1506 16.4751 25.872 16.1965L25.3676 15.6931L30.281 10.7806C30.3508 10.7109 30.4061 10.6282 30.4438 10.5372C30.4816 10.4461 30.501 10.3485 30.501 10.25C30.501 10.1514 30.4816 10.0538 30.4438 9.96277C30.4061 9.87173 30.3508 9.78901 30.281 9.71935ZM19.3789 24.8131C19.0976 25.0942 18.7162 25.2521 18.3185 25.2521C17.9209 25.2521 17.5395 25.0942 17.2582 24.8131L15.1901 22.7422C14.909 22.4609 14.7511 22.0795 14.7511 21.6819C14.7511 21.2842 14.909 20.9028 15.1901 20.6215L17.3754 18.4353L21.5651 22.625L19.3789 24.8131ZM24.8107 19.3812L22.6254 21.5647L18.4357 17.375L20.622 15.1897C20.9033 14.9086 21.2846 14.7507 21.6823 14.7507C22.0799 14.7507 22.4613 14.9086 22.7426 15.1897L24.8107 17.2522C24.9508 17.3915 25.0619 17.5572 25.1377 17.7397C25.2135 17.9221 25.2525 18.1177 25.2525 18.3153C25.2525 18.5129 25.2135 18.7085 25.1377 18.8909C25.0619 19.0734 24.9508 19.239 24.8107 19.3784V19.3812ZM16.2889 11.2372C16.2259 11.0484 16.2406 10.8425 16.3295 10.6645C16.4185 10.4866 16.5745 10.3513 16.7632 10.2884C16.9519 10.2255 17.1579 10.2401 17.3359 10.3291C17.5138 10.4181 17.6491 10.5741 17.712 10.7628L18.462 13.0128C18.4931 13.1062 18.5056 13.2049 18.4986 13.3032C18.4916 13.4014 18.4653 13.4973 18.4213 13.5854C18.3772 13.6735 18.3163 13.7521 18.2419 13.8166C18.1674 13.8811 18.081 13.9304 17.9876 13.9615C17.7989 14.0244 17.5929 14.0098 17.415 13.9208C17.3269 13.8768 17.2483 13.8158 17.1838 13.7414C17.1193 13.667 17.07 13.5806 17.0389 13.4872L16.2889 11.2372ZM10.2889 16.7628C10.32 16.6693 10.3692 16.5829 10.4338 16.5085C10.4983 16.4341 10.5769 16.3731 10.665 16.3291C10.7531 16.285 10.849 16.2588 10.9472 16.2518C11.0455 16.2448 11.1442 16.2573 11.2376 16.2884L13.4876 17.0384C13.581 17.0696 13.6674 17.1188 13.7419 17.1833C13.8163 17.2479 13.8772 17.3264 13.9213 17.4145C13.9653 17.5026 13.9916 17.5986 13.9986 17.6968C14.0056 17.7951 13.9931 17.8937 13.962 17.9872C13.9308 18.0806 13.8816 18.167 13.817 18.2414C13.7525 18.3158 13.674 18.3768 13.5859 18.4208C13.4978 18.4649 13.4018 18.4912 13.3036 18.4981C13.2053 18.5051 13.1067 18.4927 13.0132 18.4615L10.7632 17.7115C10.6698 17.6804 10.5834 17.6312 10.509 17.5666C10.4346 17.5021 10.3736 17.4235 10.3295 17.3354C10.2855 17.2473 10.2592 17.1514 10.2522 17.0532C10.2453 16.9549 10.2577 16.8562 10.2889 16.7628ZM29.712 23.2372C29.6808 23.3306 29.6316 23.417 29.5671 23.4914C29.5025 23.5658 29.424 23.6268 29.3359 23.6709C29.2478 23.7149 29.1518 23.7412 29.0536 23.7482C28.9553 23.7551 28.8567 23.7427 28.7632 23.7115L26.5132 22.9615C26.3245 22.8986 26.1685 22.7633 26.0796 22.5854C25.9906 22.4075 25.976 22.2015 26.0389 22.0128C26.1018 21.8241 26.2371 21.6681 26.415 21.5791C26.5929 21.4901 26.7989 21.4755 26.9876 21.5384L29.2376 22.2884C29.3311 22.3196 29.4175 22.3688 29.4919 22.4333C29.5663 22.4979 29.6273 22.5764 29.6713 22.6645C29.7154 22.7526 29.7416 22.8486 29.7486 22.9468C29.7556 23.0451 29.7431 23.1437 29.712 23.2372ZM23.712 28.7628C23.7749 28.9515 23.7602 29.1575 23.6713 29.3354C23.5823 29.5133 23.4263 29.6486 23.2376 29.7115C23.0489 29.7744 22.8429 29.7598 22.665 29.6708C22.4871 29.5819 22.3518 29.4259 22.2889 29.2372L21.5389 26.9872C21.4759 26.7984 21.4906 26.5925 21.5796 26.4145C21.6685 26.2366 21.8245 26.1013 22.0132 26.0384C22.2019 25.9755 22.4079 25.9901 22.5859 26.0791C22.7638 26.1681 22.8991 26.3241 22.962 26.5128L23.712 28.7628Z" fill="black" fill-opacity="0.87"/>
</svg>
