<svg width="40" height="40" viewBox="0 0 40 40" fill="none" xmlns="http://www.w3.org/2000/svg">
<rect width="40" height="40" rx="20" fill="white"/>
<g clip-path="url(#clip0_4070_20176)">
<path d="M24.4965 17.5H30.05C30.5747 17.5 31 17.9253 31 18.45V23.5085C31 25.4368 29.4368 27 27.5085 27H27.492C25.5637 27.0003 24.0003 25.4373 24 23.509C24 23.5088 24 23.5087 24 23.5085V17.9965C24 17.7223 24.2223 17.5 24.4965 17.5Z" fill="#5059C9"/>
<path d="M28.25 16.5C29.4926 16.5 30.5 15.4926 30.5 14.25C30.5 13.0074 29.4926 12 28.25 12C27.0074 12 26 13.0074 26 14.25C26 15.4926 27.0074 16.5 28.25 16.5Z" fill="#5059C9"/>
<path d="M21.25 16.5C23.0449 16.5 24.5 15.0449 24.5 13.25C24.5 11.4551 23.0449 10 21.25 10C19.4551 10 18 11.4551 18 13.25C18 15.0449 19.4551 16.5 21.25 16.5Z" fill="#7B83EB"/>
<path d="M25.5831 17.5H16.4161C15.8977 17.5128 15.4876 17.9431 15.4996 18.4615V24.231C15.4272 27.3421 17.8886 29.9239 20.9996 30C24.1106 29.9239 26.572 27.3421 26.4996 24.231V18.4615C26.5116 17.9431 26.1015 17.5128 25.5831 17.5Z" fill="#7B83EB"/>
<path opacity="0.1" d="M21.5003 17.5V25.585C21.4978 25.9558 21.2731 26.2888 20.9303 26.43C20.8211 26.4762 20.7038 26.5 20.5853 26.5H15.9403C15.8753 26.335 15.8153 26.17 15.7653 26C15.5902 25.4263 15.5009 24.8298 15.5003 24.23V18.46C15.4882 17.9424 15.8977 17.5128 16.4153 17.5H21.5003Z" fill="black"/>
<path opacity="0.2" d="M21.0003 17.5V26.085C21.0003 26.2035 20.9764 26.3208 20.9303 26.43C20.7891 26.7728 20.456 26.9975 20.0853 27H16.1753C16.0903 26.835 16.0103 26.67 15.9403 26.5C15.8703 26.33 15.8153 26.17 15.7653 26C15.5902 25.4263 15.5009 24.8298 15.5003 24.23V18.46C15.4882 17.9424 15.8977 17.5128 16.4153 17.5H21.0003Z" fill="black"/>
<path opacity="0.2" d="M21.0003 17.5V25.085C20.9965 25.5888 20.589 25.9962 20.0853 26H15.7653C15.5902 25.4263 15.5009 24.8298 15.5003 24.23V18.46C15.4882 17.9424 15.8977 17.5128 16.4153 17.5H21.0003Z" fill="black"/>
<path opacity="0.2" d="M20.5003 17.5V25.085C20.4964 25.5888 20.089 25.9962 19.5853 26H15.7653C15.5902 25.4263 15.5009 24.8298 15.5003 24.23V18.46C15.4882 17.9424 15.8977 17.5128 16.4153 17.5H20.5003Z" fill="black"/>
<path opacity="0.1" d="M21.4999 14.915V16.49C21.4148 16.495 21.3349 16.5 21.2498 16.5C21.1648 16.5 21.0848 16.495 20.9998 16.49C20.8311 16.4788 20.6637 16.452 20.4998 16.41C19.4873 16.1702 18.6509 15.4601 18.2498 14.5C18.1808 14.3388 18.1273 14.1713 18.0898 14H20.5848C21.0894 14.0019 21.4979 14.4104 21.4999 14.915Z" fill="black"/>
<path opacity="0.2" d="M21 15.415V16.49C20.8312 16.4788 20.6638 16.452 20.5 16.41C19.4875 16.1702 18.651 15.4601 18.25 14.5H20.085C20.5895 14.5019 20.9981 14.9104 21 15.415Z" fill="black"/>
<path opacity="0.2" d="M21 15.415V16.49C20.8312 16.4788 20.6638 16.452 20.5 16.41C19.4875 16.1702 18.651 15.4601 18.25 14.5H20.085C20.5895 14.5019 20.9981 14.9104 21 15.415Z" fill="black"/>
<path opacity="0.2" d="M20.5 15.415V16.41C19.4875 16.1702 18.651 15.4601 18.25 14.5H19.585C20.0896 14.5019 20.4981 14.9105 20.5 15.415Z" fill="black"/>
<path d="M10.4165 14.5H19.5835C20.0897 14.5 20.5 14.9103 20.5 15.4165V24.5835C20.5 25.0897 20.0897 25.5 19.5835 25.5H10.4165C9.91032 25.5 9.5 25.0897 9.5 24.5835V15.4165C9.5 14.9103 9.91033 14.5 10.4165 14.5Z" fill="url(#paint0_linear_4070_20176)"/>
</g>
<defs>
<linearGradient id="paint0_linear_4070_20176" x1="11.4109" y1="13.7839" x2="18.5891" y2="26.2161" gradientUnits="userSpaceOnUse">
<stop stop-color="#5A62C3"/>
<stop offset="0.5" stop-color="#4D55BD"/>
<stop offset="1" stop-color="#3940AB"/>
</linearGradient>
<clipPath id="clip0_4070_20176">
<rect width="21.5" height="20" fill="white" transform="translate(9.5 10)"/>
</clipPath>
</defs>
</svg>
