<svg width="40" height="40" viewBox="0 0 40 40" fill="none" xmlns="http://www.w3.org/2000/svg">
<rect x="0.5" y="0.5" width="39" height="39" rx="19.5" fill="white"/>
<rect x="0.5" y="0.5" width="39" height="39" rx="19.5" stroke="#E0E0E0"/>
<path d="M29 22.25V27.5C29 27.8978 28.842 28.2793 28.5607 28.5606C28.2794 28.8419 27.8978 29 27.5 29H12.5C12.1022 29 11.7206 28.8419 11.4393 28.5606C11.158 28.2793 11 27.8978 11 27.5V22.25C11 22.0511 11.079 21.8603 11.2197 21.7196C11.3603 21.579 11.5511 21.5 11.75 21.5C11.9489 21.5 12.1397 21.579 12.2803 21.7196C12.421 21.8603 12.5 22.0511 12.5 22.25V27.5H27.5V22.25C27.5 22.0511 27.579 21.8603 27.7197 21.7196C27.8603 21.579 28.0511 21.5 28.25 21.5C28.4489 21.5 28.6397 21.579 28.7803 21.7196C28.921 21.8603 29 22.0511 29 22.25ZM16.7806 16.0306L19.25 13.5603V22.25C19.25 22.4489 19.329 22.6397 19.4697 22.7803C19.6103 22.921 19.8011 23 20 23C20.1989 23 20.3897 22.921 20.5303 22.7803C20.671 22.6397 20.75 22.4489 20.75 22.25V13.5603L23.2194 16.0306C23.3601 16.1713 23.551 16.2504 23.75 16.2504C23.949 16.2504 24.1399 16.1713 24.2806 16.0306C24.4214 15.8899 24.5004 15.699 24.5004 15.5C24.5004 15.301 24.4214 15.1101 24.2806 14.9694L20.5306 11.2194C20.461 11.1496 20.3783 11.0943 20.2872 11.0566C20.1962 11.0188 20.0986 10.9994 20 10.9994C19.9014 10.9994 19.8038 11.0188 19.7128 11.0566C19.6217 11.0943 19.539 11.1496 19.4694 11.2194L15.7194 14.9694C15.5786 15.1101 15.4996 15.301 15.4996 15.5C15.4996 15.699 15.5786 15.8899 15.7194 16.0306C15.8601 16.1713 16.051 16.2504 16.25 16.2504C16.449 16.2504 16.6399 16.1713 16.7806 16.0306Z" fill="black" fill-opacity="0.87"/>
</svg>
