<svg width="20" height="20" viewBox="0 0 20 20" fill="none" xmlns="http://www.w3.org/2000/svg">
<path d="M3.82129 16.875C3.82129 18.1694 4.87063 19.2188 6.16504 19.2188H15.4729C16.7626 19.2188 17.809 18.177 17.8166 16.8891" stroke="white" stroke-width="1.3" stroke-miterlimit="10" stroke-linecap="round" stroke-linejoin="round"/>
<path d="M17.8166 12.9829V4.55258C17.8166 3.93098 17.5697 3.33484 17.1302 2.89531L15.7026 1.46773C15.263 1.02816 14.6669 0.78125 14.0453 0.78125H6.16504C4.87063 0.78125 3.82129 1.83059 3.82129 3.125V12.5" stroke="white" stroke-width="1.3" stroke-miterlimit="10" stroke-linecap="round" stroke-linejoin="round"/>
<path d="M12.2591 6.79004L6.53076 9.48352" stroke="white" stroke-width="1.3" stroke-miterlimit="10" stroke-linecap="round" stroke-linejoin="round"/>
<path d="M15.1381 12.9126L9.40967 15.6061" stroke="white" stroke-width="1.3" stroke-miterlimit="10" stroke-linecap="round" stroke-linejoin="round"/>
<path d="M4.48518 15.878L8.84217 13.3301L7.92174 11.3726L3.18022 13.1027C2.33967 13.4094 1.94714 14.3779 2.33182 15.1961C2.71651 16.0142 3.71276 16.3297 4.48518 15.878Z" stroke="white" stroke-width="1.3" stroke-miterlimit="10" stroke-linecap="round" stroke-linejoin="round"/>
<path d="M11.8483 6.98394L6.94287 9.29028L9.82163 15.4131L14.727 13.1068L11.8483 6.98394Z" stroke="white" stroke-width="1.3" stroke-miterlimit="10" stroke-linecap="round" stroke-linejoin="round"/>
</svg>
