<svg width="20" height="20" viewBox="0 0 20 20" fill="none" xmlns="http://www.w3.org/2000/svg">
<path d="M9 5.94737V10.0526C9 10.5758 9.44773 11 10 11C10.5523 11 11 10.5758 11 10.0526V5.94737C11 5.42417 10.5523 5 10 5C9.44773 5 9 5.42417 9 5.94737Z" fill="white"/>
<path d="M10 12C9.44773 12 9 12.4477 9 13C9 13.5523 9.44773 14 10 14C10.5523 14 11 13.5523 11 13C11 12.4477 10.5523 12 10 12Z" fill="white"/>
<path d="M18.3764 2.56525L10.1733 0.0261914C10.0604 -0.00873047 9.93961 -0.00873047 9.82676 0.0261914L1.62367 2.56525C1.37824 2.64119 1.21094 2.86814 1.21094 3.12502V10.7812C1.21094 13.1029 2.03363 15.0945 3.65609 16.7008C5.11672 18.1468 7.19871 19.2497 9.8443 19.9789C9.94621 20.007 10.0538 20.007 10.1557 19.9789C12.8012 19.2497 14.8832 18.1468 16.3439 16.7008C17.9664 15.0945 18.7891 13.1029 18.7891 10.7812V3.12502C18.7891 2.86814 18.6218 2.64119 18.3764 2.56525ZM17.6172 10.7812C17.6172 15.6072 13.5128 17.8072 10 18.8056C6.48723 17.8072 2.38281 15.6072 2.38281 10.7812V3.55697L10 1.19928L17.6172 3.55697V10.7812Z" fill="white"/>
</svg>
