<svg width="48" height="48" viewBox="0 0 48 48" fill="none" xmlns="http://www.w3.org/2000/svg">
<rect width="48" height="48" rx="24" fill="#3B82F6"/>
<path d="M33.5306 32.4694L28.8365 27.7762C30.1971 26.1428 30.8755 24.0478 30.7307 21.9269C30.5859 19.8061 29.629 17.8227 28.0591 16.3893C26.4892 14.956 24.4271 14.1831 22.3019 14.2314C20.1766 14.2797 18.1518 15.1455 16.6486 16.6487C15.1455 18.1518 14.2797 20.1767 14.2314 22.3019C14.1831 24.4272 14.956 26.4892 16.3893 28.0591C17.8226 29.629 19.806 30.5859 21.9269 30.7307C24.0478 30.8755 26.1428 30.1971 27.7762 28.8366L32.4693 33.5306C32.539 33.6003 32.6218 33.6556 32.7128 33.6933C32.8038 33.731 32.9014 33.7504 33 33.7504C33.0985 33.7504 33.1961 33.731 33.2871 33.6933C33.3782 33.6556 33.4609 33.6003 33.5306 33.5306C33.6003 33.4609 33.6556 33.3782 33.6933 33.2872C33.731 33.1961 33.7504 33.0985 33.7504 33C33.7504 32.9015 33.731 32.8039 33.6933 32.7128C33.6556 32.6218 33.6003 32.5391 33.5306 32.4694ZM15.75 22.5C15.75 21.165 16.1459 19.8599 16.8875 18.7499C17.6292 17.6399 18.6835 16.7747 19.9169 16.2638C21.1503 15.7529 22.5075 15.6192 23.8168 15.8797C25.1262 16.1401 26.3289 16.783 27.2729 17.727C28.2169 18.671 28.8598 19.8738 29.1203 21.1831C29.3807 22.4925 29.247 23.8497 28.7362 25.0831C28.2253 26.3165 27.3601 27.3707 26.2501 28.1124C25.14 28.8541 23.835 29.25 22.5 29.25C20.7104 29.248 18.9946 28.5362 17.7292 27.2708C16.4638 26.0053 15.752 24.2896 15.75 22.5Z" fill="white"/>
</svg>
