<svg width="5" height="18" viewBox="0 0 5 18" fill="none" xmlns="http://www.w3.org/2000/svg">
<path d="M2.75 10C3.30228 10 3.75 9.55228 3.75 9C3.75 8.44772 3.30228 8 2.75 8C2.19772 8 1.75 8.44772 1.75 9C1.75 9.55228 2.19772 10 2.75 10Z" stroke="#374151" stroke-width="2" stroke-linecap="round" stroke-linejoin="round"/>
<path d="M2.75 3C3.30228 3 3.75 2.55228 3.75 2C3.75 1.44772 3.30228 1 2.75 1C2.19772 1 1.75 1.44772 1.75 2C1.75 2.55228 2.19772 3 2.75 3Z" stroke="#374151" stroke-width="2" stroke-linecap="round" stroke-linejoin="round"/>
<path d="M2.75 17C3.30228 17 3.75 16.5523 3.75 16C3.75 15.4477 3.30228 15 2.75 15C2.19772 15 1.75 15.4477 1.75 16C1.75 16.5523 2.19772 17 2.75 17Z" stroke="#374151" stroke-width="2" stroke-linecap="round" stroke-linejoin="round"/>
</svg>
