<svg width="20" height="21" viewBox="0 0 20 21" fill="none" xmlns="http://www.w3.org/2000/svg">
<path d="M13.7377 11.2225C14.0421 11.1137 14.2464 10.8231 14.2464 10.5C14.2464 10.1769 14.0421 9.88624 13.7389 9.77749L12.3452 9.27499C10.9689 8.77937 9.89518 7.70499 9.39893 6.32874L8.89643 4.93499C8.78705 4.63187 8.49705 4.42749 8.17518 4.42749C7.85268 4.42749 7.56205 4.63124 7.45205 4.93499L6.95018 6.32874C6.45393 7.70562 5.38018 8.77937 4.0033 9.27499L2.6108 9.77749C2.30643 9.88686 2.10205 10.1769 2.10205 10.5C2.10205 10.8231 2.30643 11.1131 2.60955 11.2225L4.0033 11.725C5.37955 12.2206 6.4533 13.2944 6.94955 14.6712L7.45205 16.0656C7.56143 16.3687 7.85205 16.5725 8.17455 16.5725C8.49705 16.5725 8.78768 16.3681 8.89643 16.065L9.39893 14.6712C9.89455 13.295 10.9689 12.2212 12.3452 11.725L13.7377 11.2225ZM11.9214 10.5487C10.1933 11.1712 8.84518 12.5194 8.22268 14.2475L8.17393 14.3825L8.12518 14.2475C7.50205 12.5194 6.15393 11.1712 4.42643 10.5487L4.29205 10.5L4.42705 10.4512C6.15518 9.82874 7.5033 8.48062 8.1258 6.75249L8.17455 6.61749L8.2233 6.75249C8.8458 8.48062 10.1939 9.82874 11.9214 10.4512L12.0564 10.5L11.9214 10.5487Z" fill="#2196F3"/>
<path d="M11.5926 5.16437L12.2982 5.41875C12.9088 5.63875 13.3845 6.115 13.6045 6.725L13.8582 7.43C13.9576 7.70625 14.2213 7.89187 14.5145 7.89187C14.8076 7.89187 15.072 7.70625 15.1707 7.43062L15.4251 6.725C15.6451 6.11438 16.1214 5.63812 16.7313 5.41875L17.4376 5.16437C17.712 5.065 17.8976 4.80187 17.8982 4.51C17.8988 4.21812 17.7151 3.95375 17.4376 3.8525L16.7313 3.59812C16.1214 3.37812 15.6451 2.90188 15.4251 2.29188L15.1707 1.58625C15.0713 1.31 14.8082 1.125 14.5151 1.125C14.2213 1.125 13.9576 1.31063 13.8588 1.58625L13.6045 2.29188C13.3845 2.9025 12.9082 3.37812 12.2982 3.59812L11.5907 3.85312C11.3157 3.95312 11.1307 4.2175 11.1313 4.51C11.132 4.8025 11.3176 5.06562 11.5926 5.16437ZM14.5151 3.28437C14.8114 3.79187 15.232 4.2125 15.7388 4.50813C15.2313 4.80438 14.8107 5.225 14.5151 5.73188C14.2189 5.225 13.7982 4.80375 13.2914 4.50813C13.7982 4.21187 14.2189 3.79125 14.5151 3.28437Z" fill="#2196F3"/>
<path d="M17.4371 15.8357L16.7315 15.5813C16.1215 15.3613 15.6452 14.885 15.4252 14.275L15.1709 13.5694C15.0715 13.2938 14.8077 13.1082 14.5146 13.1082C14.2209 13.1082 13.9571 13.2938 13.8584 13.5694L13.604 14.275C13.384 14.8857 12.9077 15.3619 12.2977 15.5813L11.5927 15.835C11.3171 15.9338 11.1315 16.1975 11.1309 16.49C11.1302 16.7825 11.3146 17.0469 11.5921 17.1475L12.2977 17.4019C12.9084 17.6219 13.3846 18.0975 13.604 18.7082L13.8577 19.4132C13.9577 19.6894 14.2215 19.875 14.5152 19.875C14.809 19.875 15.0727 19.6894 15.1715 19.4138L15.4259 18.7082C15.6459 18.0982 16.1221 17.6219 16.7321 17.4019L17.4409 17.1469C17.7152 17.0463 17.8996 16.7825 17.899 16.49C17.8984 16.1975 17.7121 15.935 17.4371 15.8357ZM14.5152 17.7157C14.219 17.2082 13.7984 16.7875 13.2915 16.4919C13.7984 16.1957 14.2196 15.775 14.5152 15.2682C14.8115 15.775 15.2321 16.1963 15.739 16.4919C15.2321 16.7882 14.8109 17.2088 14.5152 17.7157Z" fill="#2196F3"/>
</svg>
