<svg width="16" height="20" viewBox="0 0 16 20" fill="none" xmlns="http://www.w3.org/2000/svg">
<path d="M11.7372 10.7225C12.0416 10.6137 12.2459 10.3231 12.2459 9.99999C12.2459 9.67687 12.0416 9.38624 11.7384 9.27749L10.3447 8.77499C8.96844 8.27937 7.89469 7.20499 7.39844 5.82874L6.89594 4.43499C6.78656 4.13187 6.49656 3.92749 6.17469 3.92749C5.85219 3.92749 5.56156 4.13124 5.45156 4.43499L4.94969 5.82874C4.45344 7.20562 3.37969 8.27937 2.00281 8.77499L0.610313 9.27749C0.305938 9.38686 0.101562 9.67687 0.101562 9.99999C0.101562 10.3231 0.305938 10.6131 0.609063 10.7225L2.00281 11.225C3.37906 11.7206 4.45281 12.7944 4.94906 14.1712L5.45156 15.5656C5.56094 15.8687 5.85156 16.0725 6.17406 16.0725C6.49656 16.0725 6.78719 15.8681 6.89594 15.565L7.39844 14.1712C7.89406 12.795 8.96844 11.7212 10.3447 11.225L11.7372 10.7225ZM9.92094 10.0487C8.19281 10.6712 6.84469 12.0194 6.22219 13.7475L6.17344 13.8825L6.12469 13.7475C5.50156 12.0194 4.15344 10.6712 2.42594 10.0487L2.29156 9.99999L2.42656 9.95124C4.15469 9.32874 5.50281 7.98062 6.12531 6.25249L6.17406 6.11749L6.22281 6.25249C6.84531 7.98062 8.19344 9.32874 9.92094 9.95124L10.0559 9.99999L9.92094 10.0487Z" fill="#475569"/>
<path d="M9.59211 4.66437L10.2977 4.91875C10.9084 5.13875 11.384 5.615 11.604 6.225L11.8577 6.93C11.9571 7.20625 12.2209 7.39187 12.514 7.39187C12.8071 7.39187 13.0715 7.20625 13.1702 6.93062L13.4246 6.225C13.6446 5.61438 14.1209 5.13812 14.7309 4.91875L15.4371 4.66437C15.7115 4.565 15.8971 4.30187 15.8977 4.01C15.8984 3.71812 15.7146 3.45375 15.4371 3.3525L14.7309 3.09812C14.1209 2.87812 13.6446 2.40188 13.4246 1.79188L13.1702 1.08625C13.0709 0.81 12.8077 0.625 12.5146 0.625C12.2209 0.625 11.9571 0.810625 11.8584 1.08625L11.604 1.79188C11.384 2.4025 10.9077 2.87812 10.2977 3.09812L9.59024 3.35312C9.31524 3.45312 9.13024 3.7175 9.13086 4.01C9.13149 4.3025 9.31711 4.56562 9.59211 4.66437ZM12.5146 2.78437C12.8109 3.29187 13.2315 3.7125 13.7384 4.00813C13.2309 4.30438 12.8102 4.725 12.5146 5.23188C12.2184 4.725 11.7977 4.30375 11.2909 4.00813C11.7977 3.71187 12.2184 3.29125 12.5146 2.78437Z" fill="#475569"/>
<path d="M15.4361 15.3357L14.7305 15.0813C14.1205 14.8613 13.6443 14.385 13.4243 13.775L13.1699 13.0694C13.0705 12.7938 12.8068 12.6082 12.5136 12.6082C12.2199 12.6082 11.9561 12.7938 11.8574 13.0694L11.603 13.775C11.383 14.3857 10.9068 14.8619 10.2968 15.0813L9.59176 15.335C9.31613 15.4338 9.13051 15.6975 9.12988 15.99C9.12926 16.2825 9.31363 16.5469 9.59113 16.6475L10.2968 16.9019C10.9074 17.1219 11.3836 17.5975 11.603 18.2082L11.8568 18.9132C11.9568 19.1894 12.2205 19.375 12.5143 19.375C12.808 19.375 13.0718 19.1894 13.1705 18.9138L13.4249 18.2082C13.6449 17.5982 14.1211 17.1219 14.7311 16.9019L15.4399 16.6469C15.7143 16.5463 15.8986 16.2825 15.898 15.99C15.8974 15.6975 15.7111 15.435 15.4361 15.3357ZM12.5143 17.2157C12.218 16.7082 11.7974 16.2875 11.2905 15.9919C11.7974 15.6957 12.2186 15.275 12.5143 14.7682C12.8105 15.275 13.2311 15.6963 13.738 15.9919C13.2311 16.2882 12.8099 16.7088 12.5143 17.2157Z" fill="#475569"/>
</svg>
