<svg width="12" height="12" viewBox="0 0 12 12" fill="none" xmlns="http://www.w3.org/2000/svg">
<path d="M6.00015 0.152222C4.84356 0.152222 3.71295 0.495189 2.75128 1.13775C1.78962 1.78032 1.04009 2.69362 0.597484 3.76217C0.154878 4.83071 0.0390715 6.00651 0.26471 7.14087C0.490349 8.27524 1.0473 9.31721 1.86513 10.135C2.68296 10.9529 3.72494 11.5098 4.8593 11.7355C5.99366 11.9611 7.16946 11.8453 8.23801 11.4027C9.30655 10.9601 10.2199 10.2106 10.8624 9.24889C11.505 8.28722 11.848 7.15661 11.848 6.00002C11.848 4.44909 11.2318 2.96168 10.1352 1.865C9.03849 0.768328 7.55108 0.152222 6.00015 0.152222ZM8.74861 4.34964L5.8637 8.35214C5.77777 8.46815 5.65236 8.54871 5.51112 8.57864C5.36989 8.60856 5.22258 8.58577 5.09699 8.51458L3.44011 7.54644C3.3057 7.46545 3.20896 7.33438 3.17119 7.18206C3.13341 7.02975 3.15769 6.86866 3.23869 6.73425C3.31968 6.59983 3.45075 6.5031 3.60307 6.46532C3.75538 6.42755 3.91647 6.45183 4.05088 6.53282L5.22694 7.23456L7.82596 3.6674C7.92242 3.57077 8.04965 3.51093 8.1856 3.49827C8.32155 3.4856 8.45765 3.52091 8.57029 3.59806C8.68294 3.67522 8.76504 3.78936 8.80236 3.9207C8.83967 4.05204 8.82986 4.1923 8.77461 4.31716L8.74861 4.34964Z" fill="#2E7D32"/>
</svg>
