<svg width="16" height="20" viewBox="0 0 16 20" fill="none" xmlns="http://www.w3.org/2000/svg">
<path fill-rule="evenodd" clip-rule="evenodd" d="M3.07342 0H9.76007L15.4272 5.90705V17.3963C15.4272 18.8356 14.2628 20 12.8285 20H3.07342C1.63414 20 0.469727 18.8356 0.469727 17.3963V2.60369C0.469701 1.16441 1.63411 0 3.07342 0Z" fill="#E5252A"/>
<path opacity="0.302" fill-rule="evenodd" clip-rule="evenodd" d="M9.75488 0V5.86207H15.4271L9.75488 0Z" fill="white"/>
<path d="M3.36328 14.9225V11.2693H4.91751C5.30232 11.2693 5.60718 11.3743 5.83706 11.5892C6.06694 11.7991 6.18189 12.0839 6.18189 12.4388C6.18189 12.7936 6.06694 13.0784 5.83706 13.2883C5.60718 13.5032 5.30232 13.6082 4.91751 13.6082H4.29781V14.9225H3.36328ZM4.29781 12.8136H4.81256C4.95248 12.8136 5.06243 12.7836 5.13741 12.7137C5.21236 12.6487 5.25236 12.5587 5.25236 12.4388C5.25236 12.3189 5.21238 12.2289 5.13741 12.1639C5.06246 12.094 4.95251 12.064 4.81256 12.064H4.29781V12.8136ZM6.56668 14.9225V11.2693H7.86103C8.1159 11.2693 8.35579 11.3043 8.58067 11.3793C8.80554 11.4542 9.01046 11.5592 9.19035 11.7041C9.37028 11.8441 9.5152 12.034 9.62014 12.2739C9.72009 12.5137 9.77507 12.7886 9.77507 13.0984C9.77507 13.4033 9.72011 13.6782 9.62014 13.918C9.5152 14.1579 9.37028 14.3478 9.19035 14.4877C9.01043 14.6327 8.80554 14.7376 8.58067 14.8126C8.35579 14.8875 8.1159 14.9225 7.86103 14.9225H6.56668ZM7.48122 14.1279H7.75108C7.896 14.1279 8.03094 14.113 8.15588 14.078C8.27581 14.043 8.39076 13.988 8.50071 13.913C8.60566 13.8381 8.69061 13.7331 8.75058 13.5932C8.81055 13.4533 8.84054 13.2883 8.84054 13.0984C8.84054 12.9035 8.81055 12.7386 8.75058 12.5987C8.69061 12.4588 8.60566 12.3538 8.50071 12.2789C8.39076 12.2039 8.27583 12.1489 8.15588 12.1139C8.03094 12.079 7.896 12.064 7.75108 12.064H7.48122V14.1279ZM10.2448 14.9225V11.2693H12.8436V12.064H11.1794V12.6487H12.5087V13.4383H11.1794V14.9225H10.2448Z" fill="white"/>
</svg>
