<svg width="66" height="66" viewBox="0 0 66 66" fill="none" xmlns="http://www.w3.org/2000/svg">
<rect x="5" y="5" width="56" height="56" rx="28" fill="#EEF2FF"/>
<rect x="5" y="5" width="56" height="56" rx="28" stroke="#E0E7FF" stroke-width="10"/>
<path d="M33.0002 27.1667C33.0002 25.929 32.5085 24.742 31.6333 23.8668C30.7582 22.9917 29.5712 22.5 28.3335 22.5H21.3335V40H29.5002C30.4284 40 31.3187 40.3687 31.975 41.0251C32.6314 41.6815 33.0002 42.5717 33.0002 43.5M33.0002 27.1667V43.5M33.0002 27.1667C33.0002 25.929 33.4918 24.742 34.367 23.8668C35.2422 22.9917 36.4292 22.5 37.6668 22.5H44.6668V40H36.5002C35.5719 40 34.6817 40.3687 34.0253 41.0251C33.3689 41.6815 33.0002 42.5717 33.0002 43.5" stroke="#3D54CD" stroke-width="2" stroke-linecap="round" stroke-linejoin="round"/>
</svg>
