<svg width="66" height="66" viewBox="0 0 66 66" fill="none" xmlns="http://www.w3.org/2000/svg">
<rect x="5" y="5" width="56" height="56" rx="28" fill="#EEF2FF"/>
<rect x="5" y="5" width="56" height="56" rx="28" stroke="#E0E7FF" stroke-width="10"/>
<path d="M33.0002 31.8333V38.8333M29.5002 35.3333H36.5002M44.6668 41.1667C44.6668 41.7855 44.421 42.379 43.9834 42.8166C43.5458 43.2542 42.9523 43.5 42.3335 43.5H23.6668C23.048 43.5 22.4545 43.2542 22.0169 42.8166C21.5793 42.379 21.3335 41.7855 21.3335 41.1667V24.8333C21.3335 24.2145 21.5793 23.621 22.0169 23.1834C22.4545 22.7458 23.048 22.5 23.6668 22.5H29.5002L31.8335 26H42.3335C42.9523 26 43.5458 26.2458 43.9834 26.6834C44.421 27.121 44.6668 27.7145 44.6668 28.3333V41.1667Z" stroke="#3D54CD" stroke-width="2" stroke-linecap="round" stroke-linejoin="round"/>
</svg>

