<svg width="58" height="58" viewBox="0 0 58 58" fill="none" xmlns="http://www.w3.org/2000/svg">
<rect x="2.5" y="2.5" width="53" height="53" rx="26.5" fill="#EEF1FF"/>
<rect x="2.5" y="2.5" width="53" height="53" rx="26.5" stroke="#3D54CD" stroke-width="5"/>
<path d="M28 21.0002H21C20.4696 21.0002 19.9609 21.2109 19.5858 21.586C19.2107 21.9611 19 22.4698 19 23.0002V37.0002C19 37.5307 19.2107 38.0394 19.5858 38.4144C19.9609 38.7895 20.4696 39.0002 21 39.0002H35C35.5304 39.0002 36.0391 38.7895 36.4142 38.4144C36.7893 38.0394 37 37.5307 37 37.0002V30.0002M35.5 19.5002C35.8978 19.1024 36.4374 18.8789 37 18.8789C37.5626 18.8789 38.1022 19.1024 38.5 19.5002C38.8978 19.8981 39.1213 20.4376 39.1213 21.0002C39.1213 21.5628 38.8978 22.1024 38.5 22.5002L29 32.0002L25 33.0002L26 29.0002L35.5 19.5002Z" stroke="#3D54CD" stroke-width="2" stroke-linecap="round" stroke-linejoin="round"/>
</svg>
