<svg width="66" height="66" viewBox="0 0 66 66" fill="none" xmlns="http://www.w3.org/2000/svg">
<rect x="5" y="5" width="56" height="56" rx="28" fill="#EEF2FF"/>
<rect x="5" y="5" width="56" height="56" rx="28" stroke="#E0E7FF" stroke-width="10"/>
<path d="M32.9999 31.8333V38.8333M29.4999 35.3333H36.4999M44.6666 41.1667C44.6666 41.7855 44.4208 42.379 43.9832 42.8166C43.5456 43.2542 42.9521 43.5 42.3333 43.5H23.6666C23.0477 43.5 22.4543 43.2542 22.0167 42.8166C21.5791 42.379 21.3333 41.7855 21.3333 41.1667V24.8333C21.3333 24.2145 21.5791 23.621 22.0167 23.1834C22.4543 22.7458 23.0477 22.5 23.6666 22.5H29.4999L31.8333 26H42.3333C42.9521 26 43.5456 26.2458 43.9832 26.6834C44.4208 27.121 44.6666 27.7145 44.6666 28.3333V41.1667Z" stroke="#3D54CD" stroke-width="2" stroke-linecap="round" stroke-linejoin="round"/>
</svg>
