<svg width="20" height="20" viewBox="0 0 20 20" fill="none" xmlns="http://www.w3.org/2000/svg">
<path d="M7.76562 6.83086L5.89062 12.6809C5.8795 12.7134 5.87624 12.7481 5.88113 12.7821C5.88601 12.8161 5.8989 12.8484 5.91873 12.8765C5.93855 12.9046 5.96476 12.9275 5.99518 12.9435C6.02561 12.9595 6.05939 12.968 6.09375 12.9684H6.61875C6.66561 12.9682 6.71116 12.9529 6.74862 12.9248C6.78607 12.8966 6.81341 12.8571 6.82656 12.8121L7.12031 11.8746H9.6875L9.65156 11.8168L9.97344 12.8121C9.98658 12.8571 10.0139 12.8966 10.0514 12.9248C10.0888 12.9529 10.1344 12.9682 10.1812 12.9684H10.7062C10.7406 12.9686 10.7746 12.9606 10.8053 12.9451C10.836 12.9296 10.8626 12.9071 10.8829 12.8793C10.9032 12.8516 10.9166 12.8194 10.922 12.7854C10.9274 12.7514 10.9247 12.7167 10.9141 12.684L9.03906 6.83398C9.02569 6.78914 8.99829 6.74976 8.96089 6.72163C8.92348 6.69351 8.87804 6.67812 8.83125 6.67773H7.96875C7.92309 6.67866 7.87889 6.69396 7.84242 6.72145C7.80596 6.74894 7.77908 6.78722 7.76562 6.83086ZM7.43281 10.9371L8.4 7.92617L9.375 10.9371H7.43281Z" fill="black" fill-opacity="0.56"/>
<path d="M13.0625 6.67969H12.5625C12.4417 6.67969 12.3438 6.77763 12.3438 6.89844V12.7484C12.3438 12.8692 12.4417 12.9672 12.5625 12.9672H13.0625C13.1833 12.9672 13.2812 12.8692 13.2812 12.7484V6.89844C13.2812 6.77763 13.1833 6.67969 13.0625 6.67969Z" fill="black" fill-opacity="0.56"/>
<path d="M10.5094 15.3125H5.9625C5.62435 15.3125 5.30005 15.1782 5.06094 14.9391C4.82183 14.7 4.6875 14.3757 4.6875 14.0375V5.9625C4.6875 5.62435 4.82183 5.30005 5.06094 5.06094C5.30005 4.82183 5.62435 4.6875 5.9625 4.6875H14.0375C14.3757 4.6875 14.7 4.82183 14.9391 5.06094C15.1782 5.30005 15.3125 5.62435 15.3125 5.9625V10C15.3154 10.0852 15.3518 10.1659 15.4138 10.2244C15.4758 10.283 15.5585 10.3146 15.6438 10.3125C15.9098 10.3117 16.1724 10.3727 16.4109 10.4906C16.4604 10.516 16.5157 10.5282 16.5713 10.5258C16.6269 10.5235 16.6809 10.5068 16.7281 10.4774C16.7753 10.448 16.8141 10.4068 16.8407 10.3579C16.8673 10.309 16.8807 10.2541 16.8797 10.1984V5.9625C16.8797 5.58948 16.8061 5.22012 16.6632 4.87556C16.5204 4.53099 16.3109 4.21798 16.0469 3.95443C15.783 3.69088 15.4696 3.48197 15.1248 3.33965C14.78 3.19733 14.4105 3.12439 14.0375 3.125H5.9625C5.20995 3.125 4.48822 3.42395 3.95608 3.95609C3.42395 4.48822 3.125 5.20995 3.125 5.9625V14.0375C3.125 14.7901 3.42395 15.5118 3.95608 16.0439C4.48822 16.5761 5.20995 16.875 5.9625 16.875H11.1656C11.2296 16.8751 11.2921 16.8562 11.3453 16.8208C11.3985 16.7853 11.44 16.7349 11.4646 16.6759C11.4892 16.6169 11.4957 16.5519 11.4834 16.4892C11.4711 16.4264 11.4404 16.3688 11.3953 16.3234C11.1522 16.1004 10.9552 15.8318 10.8156 15.5328C10.7933 15.4692 10.7519 15.4139 10.6971 15.3745C10.6424 15.3351 10.5768 15.3135 10.5094 15.3125Z" fill="black" fill-opacity="0.56"/>
<path d="M17.4578 15.9055L18.8734 15.3477C18.9026 15.3361 18.9276 15.3161 18.9452 15.2902C18.9628 15.2643 18.9723 15.2337 18.9723 15.2023C18.9723 15.171 18.9628 15.1404 18.9452 15.1145C18.9276 15.0886 18.9026 15.0685 18.8734 15.057L17.4578 14.4992C17.2072 14.4001 16.9796 14.2507 16.7891 14.0602C16.5985 13.8696 16.4491 13.642 16.35 13.3914L15.7922 11.9852C15.7806 11.9561 15.7606 11.9312 15.7347 11.9136C15.7088 11.8961 15.6782 11.8867 15.6469 11.8867C15.6156 11.8867 15.585 11.8961 15.5591 11.9136C15.5332 11.9312 15.5131 11.9561 15.5016 11.9852L14.9438 13.3914C14.8449 13.6421 14.6956 13.8699 14.505 14.0605C14.3144 14.251 14.0867 14.4004 13.8359 14.4992L12.4297 15.057C12.4005 15.0685 12.3755 15.0886 12.3579 15.1145C12.3403 15.1404 12.3309 15.171 12.3309 15.2023C12.3309 15.2337 12.3403 15.2643 12.3579 15.2902C12.3755 15.3161 12.4005 15.3361 12.4297 15.3477L13.8359 15.9055C14.0867 16.0043 14.3144 16.1537 14.505 16.3442C14.6956 16.5348 14.8449 16.7625 14.9438 17.0133L15.5016 18.4195C15.5129 18.4489 15.5328 18.4742 15.5588 18.492C15.5847 18.5098 15.6154 18.5194 15.6469 18.5195C15.6784 18.5194 15.7091 18.5098 15.735 18.492C15.7609 18.4742 15.7809 18.4489 15.7922 18.4195L16.35 17.0133C16.4491 16.7627 16.5985 16.5351 16.7891 16.3445C16.9796 16.154 17.2072 16.0046 17.4578 15.9055Z" fill="black" fill-opacity="0.56"/>
</svg>
