<svg width="18" height="18" viewBox="0 0 18 18" fill="none" xmlns="http://www.w3.org/2000/svg">
<path fill-rule="evenodd" clip-rule="evenodd" d="M11.828 3.34191C11.0862 3.45431 10.4837 3.81692 10.2752 4.02529L9.46725 4.83336L13.1667 8.53284L13.9747 7.72475C14.1831 7.51634 14.5457 6.91383 14.6581 6.17201C14.7655 5.46293 14.6377 4.68824 13.9747 4.0253C13.3117 3.36235 12.5371 3.23448 11.828 3.34191ZM11.6407 2.10602C12.6504 1.95304 13.8549 2.13769 14.8586 3.14142C15.8623 4.14514 16.047 5.3496 15.894 6.35927C15.746 7.33617 15.2752 8.192 14.8586 8.60859L13.6086 9.85867C13.3645 10.1028 12.9688 10.1028 12.7247 9.85867L8.14141 5.2753C8.02416 5.15809 7.95833 4.99912 7.95833 4.83336C7.95833 4.6676 8.02416 4.50863 8.14141 4.39142L9.39141 3.14143C9.80799 2.72477 10.6638 2.25403 11.6407 2.10602Z" fill="black" fill-opacity="0.56"/>
<path fill-rule="evenodd" clip-rule="evenodd" d="M16.9419 1.05806C17.186 1.30213 17.186 1.69786 16.9419 1.94194L14.8586 4.02527C14.6145 4.26935 14.2188 4.26946 13.9747 4.02538C13.7307 3.78131 13.7307 3.38546 13.9747 3.14139L16.0581 1.05806C16.3022 0.813981 16.6978 0.813981 16.9419 1.05806Z" fill="black" fill-opacity="0.56"/>
<path fill-rule="evenodd" clip-rule="evenodd" d="M4.83301 7.95898C4.99877 7.95898 5.15775 8.02482 5.27496 8.14207L9.85825 12.7254C10.1023 12.9695 10.1023 13.3652 9.85825 13.6092L8.60833 14.8592C8.19166 15.2759 7.33583 15.7467 6.35893 15.8947C5.34926 16.0477 4.1448 15.863 3.14107 14.8592M3.14107 14.8592C2.13735 13.8556 1.95271 12.6511 2.10569 11.6414C2.25371 10.6645 2.72444 9.80873 3.14106 9.39207L4.39107 8.14207C4.50828 8.02482 4.66726 7.95898 4.83301 7.95898M4.83301 9.4679L4.02497 10.2759C3.81659 10.4843 3.45398 11.0868 3.34158 11.8287C3.23415 12.5377 3.36201 13.3124 4.02496 13.9754C4.6879 14.6383 5.4626 14.7662 6.17167 14.6588C6.91351 14.5464 7.516 14.1837 7.72441 13.9754L8.5325 13.1673L4.83301 9.4679Z" fill="black" fill-opacity="0.56"/>
<path fill-rule="evenodd" clip-rule="evenodd" d="M10.6919 10.2241C10.936 10.4682 10.936 10.8638 10.6919 11.1079L9.02525 12.7746C8.78116 13.0187 8.3855 13.0187 8.14141 12.7746C7.89733 12.5305 7.89733 12.1348 8.14141 11.8907L9.80808 10.2241C10.0522 9.97999 10.4478 9.97999 10.6919 10.2241Z" fill="black" fill-opacity="0.56"/>
<path fill-rule="evenodd" clip-rule="evenodd" d="M4.02496 13.9741C4.26903 14.2182 4.26935 14.6138 4.02527 14.8579L1.94194 16.9412C1.69786 17.1853 1.30213 17.1853 1.05806 16.9412C0.813981 16.6972 0.813981 16.3015 1.05806 16.0574L3.14139 13.9741C3.38546 13.73 3.78088 13.73 4.02496 13.9741Z" fill="black" fill-opacity="0.56"/>
<path fill-rule="evenodd" clip-rule="evenodd" d="M7.77525 7.30806C8.01933 7.55216 8.01933 7.94783 7.77525 8.19191L6.1086 9.85858C5.86453 10.1027 5.4688 10.1027 5.22472 9.85858C4.98065 9.6145 4.98065 9.21883 5.22472 8.97475L6.89139 7.30806C7.13546 7.06398 7.53116 7.06398 7.77525 7.30806Z" fill="black" fill-opacity="0.56"/>
</svg>
