<svg width="20" height="20" viewBox="0 0 20 20" fill="none" xmlns="http://www.w3.org/2000/svg">
<path fill-rule="evenodd" clip-rule="evenodd" d="M18.9583 4.99935C18.9583 3.94935 18.5417 2.94268 17.7992 2.20018C17.0567 1.45768 16.05 1.04102 15 1.04102H5C3.95 1.04102 2.94333 1.45768 2.20083 2.20018C1.45833 2.94268 1.04166 3.94935 1.04166 4.99935V14.9993C1.04166 16.0493 1.45833 17.056 2.20083 17.7985C2.94333 18.541 3.95 18.9577 5 18.9577H15C16.05 18.9577 17.0567 18.541 17.7992 17.7985C18.5417 17.056 18.9583 16.0493 18.9583 14.9993V4.99935ZM17.7083 4.99935V14.9993C17.7083 15.7177 17.4233 16.4068 16.915 16.9143C16.4075 17.4227 15.7183 17.7077 15 17.7077H5C4.28166 17.7077 3.5925 17.4227 3.085 16.9143C2.57666 16.4068 2.29166 15.7177 2.29166 14.9993V4.99935C2.29166 4.28102 2.57666 3.59185 3.085 3.08435C3.5925 2.57602 4.28166 2.29102 5 2.29102H15C15.7183 2.29102 16.4075 2.57602 16.915 3.08435C17.4233 3.59185 17.7083 4.28102 17.7083 4.99935Z" fill="black" fill-opacity="0.56"/>
<path fill-rule="evenodd" clip-rule="evenodd" d="M10.4067 6.80271L8.40667 12.8027C8.29833 13.1302 8.475 13.4844 8.8025 13.5935C9.13 13.7019 9.48417 13.5252 9.59333 13.1977L11.5933 7.19771C11.7017 6.87021 11.525 6.51604 11.1975 6.40687C10.87 6.29854 10.5158 6.47521 10.4067 6.80271Z" fill="black" fill-opacity="0.56"/>
<path fill-rule="evenodd" clip-rule="evenodd" d="M12.5583 8.44146L14.1158 9.99979L12.5583 11.5581C12.3142 11.8015 12.3142 12.1981 12.5583 12.4415C12.8017 12.6856 13.1983 12.6856 13.4417 12.4415L15.4417 10.4415C15.6858 10.1973 15.6858 9.80229 15.4417 9.55813L13.4417 7.55813C13.1983 7.31396 12.8017 7.31396 12.5583 7.55813C12.3142 7.80146 12.3142 8.19813 12.5583 8.44146Z" fill="black" fill-opacity="0.56"/>
<path fill-rule="evenodd" clip-rule="evenodd" d="M6.55833 7.55813L4.55833 9.55813C4.31416 9.80229 4.31416 10.1973 4.55833 10.4415L6.55833 12.4415C6.80166 12.6856 7.19833 12.6856 7.44166 12.4415C7.68583 12.1981 7.68583 11.8015 7.44166 11.5581L5.88416 9.99979L7.44166 8.44146C7.68583 8.19813 7.68583 7.80146 7.44166 7.55813C7.19833 7.31396 6.80166 7.31396 6.55833 7.55813Z" fill="black" fill-opacity="0.56"/>
</svg>
