<svg width="25" height="24" viewBox="0 0 25 24" fill="none" xmlns="http://www.w3.org/2000/svg">
<path d="M21.3287 12.861C21.5 12.4476 21.5 11.9234 21.5 10.875C21.5 9.82663 21.5 9.30245 21.3287 8.88896C21.1004 8.33765 20.6624 7.89963 20.111 7.67127C19.6976 7.5 19.1734 7.5 18.125 7.5H11.6C10.3399 7.5 9.70982 7.5 9.22852 7.74524C8.80516 7.96095 8.46095 8.30516 8.24524 8.72852C8 9.20982 8 9.83988 8 11.1V17.625C8 18.6734 8 19.1976 8.17127 19.611C8.39963 20.1624 8.83765 20.6004 9.38896 20.8287C9.80245 21 10.3266 21 11.375 21C12.4234 21 12.9476 21 13.361 20.8287M21.3287 12.861C21.1004 13.4124 20.6624 13.8504 20.111 14.0787C19.6976 14.25 19.1734 14.25 18.125 14.25C17.0766 14.25 16.5524 14.25 16.139 14.4213C15.5876 14.6496 15.1496 15.0876 14.9213 15.639C14.75 16.0524 14.75 16.5766 14.75 17.625C14.75 18.6734 14.75 19.1976 14.5787 19.611C14.3504 20.1624 13.9124 20.6004 13.361 20.8287M21.3287 12.861C20.2364 16.6288 17.3253 19.5963 13.5793 20.7609L13.361 20.8287M17 7.5L17 6.6C17 5.33988 17 4.70982 16.7548 4.22852C16.539 3.80516 16.1948 3.46095 15.7715 3.24524C15.2902 3 14.6601 3 13.4 3H7.1C5.83988 3 5.20982 3 4.72852 3.24524C4.30516 3.46095 3.96095 3.80516 3.74524 4.22852C3.5 4.70982 3.5 5.33988 3.5 6.6V12.9C3.5 14.1601 3.5 14.7902 3.74524 15.2715C3.96095 15.6948 4.30516 16.039 4.72852 16.2548C5.20982 16.5 5.8401 16.5 7.10066 16.5H8" stroke="black" stroke-opacity="0.56" stroke-width="1.5" stroke-linecap="round" stroke-linejoin="round"/>
</svg>
