<svg width="20" height="20" viewBox="0 0 20 20" fill="none" xmlns="http://www.w3.org/2000/svg">
<g id="fi_17747199">
<g id="Group">
<path id="Vector" fill-rule="evenodd" clip-rule="evenodd" d="M13.4132 10.1085C13.7236 9.99242 14.0693 10.1499 14.1854 10.4603L15.2916 13.4173L16.3978 10.4603C16.5139 10.1499 16.8596 9.99242 17.17 10.1085C17.4803 10.2246 17.6378 10.5703 17.5218 10.8807L16.3384 14.044C16.2408 14.305 16.1484 14.5521 16.0552 14.7307C16.0061 14.8246 15.9339 14.9459 15.827 15.0487C15.7077 15.1634 15.5269 15.2704 15.2916 15.2704C15.0563 15.2704 14.8755 15.1634 14.7562 15.0487C14.6492 14.9459 14.577 14.8246 14.528 14.7307C14.4348 14.5521 14.3424 14.3049 14.2448 14.044C14.2406 14.0328 14.2365 14.0217 14.2322 14.0105L13.0614 10.8807C12.9454 10.5703 13.1028 10.2246 13.4132 10.1085ZM7.53639 11.2834C7.41288 11.272 7.26744 11.2705 7.08074 11.2705C6.81355 11.2705 6.64405 11.2872 6.53481 11.3131C6.46776 11.3291 6.44036 11.3444 6.43229 11.35C6.42718 11.3578 6.4107 11.3879 6.39494 11.466C6.37185 11.5803 6.35977 11.7478 6.35977 12.0038V13.3371C6.35977 13.5931 6.37185 13.7607 6.39494 13.875C6.4107 13.953 6.42718 13.9831 6.43229 13.9909C6.44036 13.9965 6.46776 14.0119 6.53481 14.0278C6.64405 14.0537 6.81355 14.0705 7.08074 14.0705C7.26744 14.0705 7.41288 14.0689 7.53639 14.0575C7.66077 14.0461 7.72445 14.0275 7.75454 14.014C7.75863 14.0123 7.7616 14.0107 7.76365 14.0095C7.76975 13.9974 7.79024 13.9483 7.7957 13.8299C7.81093 13.4988 8.0916 13.2428 8.42264 13.258C8.75368 13.2733 9.00968 13.5539 8.9944 13.885C8.98232 14.1478 8.92624 14.4026 8.79344 14.6259C8.65504 14.8586 8.45952 15.0131 8.24552 15.109C7.88446 15.2709 7.43896 15.2707 7.1133 15.2705C7.10231 15.2705 7.09146 15.2705 7.08074 15.2705C6.53129 15.2705 5.94318 15.2226 5.5583 14.8134C5.36194 14.6047 5.26743 14.3538 5.2187 14.1126C5.17117 13.8773 5.15977 13.6124 5.15977 13.3371V12.0038C5.15977 11.7285 5.17117 11.4637 5.2187 11.2283C5.26743 10.9871 5.36194 10.7363 5.5583 10.5275C5.94318 10.1184 6.53129 10.0705 7.08074 10.0705C7.09146 10.0705 7.10231 10.0705 7.1133 10.0704C7.43896 10.0703 7.88446 10.07 8.24552 10.2319C8.45952 10.3279 8.65504 10.4823 8.79344 10.715C8.92624 10.9383 8.98232 11.1931 8.9944 11.4559C9.00968 11.787 8.75368 12.0677 8.42264 12.0829C8.0916 12.0981 7.81093 11.8421 7.7957 11.5111C7.79024 11.3926 7.76975 11.3435 7.76365 11.3314C7.7616 11.3303 7.75863 11.3287 7.75454 11.3269C7.72445 11.3134 7.66078 11.2948 7.53639 11.2834ZM11.1424 10.0705H11.9369C12.2682 10.0705 12.5369 10.3391 12.5369 10.6705C12.5369 11.0019 12.2682 11.2705 11.9369 11.2705H11.1589C10.9952 11.2705 10.9025 11.2708 10.8346 11.2755C10.811 11.2771 10.7968 11.2789 10.7895 11.28L10.7863 11.2816C10.7851 11.2846 10.7837 11.2887 10.7821 11.2941C10.7745 11.3194 10.7667 11.361 10.7623 11.4289C10.7579 11.4971 10.758 11.5691 10.758 11.6643V11.6767C10.758 11.7719 10.7579 11.8439 10.7623 11.912C10.7667 11.9799 10.7745 12.0216 10.7821 12.0469C10.7837 12.0523 10.7851 12.0563 10.7863 12.0593L10.7895 12.061C10.7968 12.0621 10.811 12.0639 10.8346 12.0655C10.9025 12.0702 10.9952 12.0705 11.1589 12.0705H11.1754C11.3166 12.0705 11.451 12.0704 11.5648 12.0782C11.6883 12.0867 11.8307 12.1062 11.9773 12.1668C12.3752 12.3315 12.59 12.632 12.6851 12.9496C12.761 13.2024 12.7602 13.4725 12.7598 13.6372C12.7598 13.6488 12.7598 13.6599 12.7598 13.6705C12.7598 13.681 12.7598 13.6921 12.7598 13.7037C12.7602 13.8684 12.761 14.1385 12.6851 14.3914C12.59 14.709 12.3752 15.0095 11.9773 15.1741C11.8307 15.2347 11.6883 15.2543 11.5648 15.2627C11.451 15.2705 11.3166 15.2705 11.1754 15.2705H10.3115C9.98016 15.2705 9.71152 15.0019 9.71152 14.6705C9.71152 14.3391 9.98016 14.0705 10.3115 14.0705H11.1589C11.3226 14.0705 11.4153 14.0702 11.4831 14.0655C11.5067 14.0639 11.5209 14.0621 11.5282 14.061L11.5314 14.0593C11.5326 14.0563 11.5341 14.0523 11.5357 14.0468C11.5432 14.0216 11.551 13.9799 11.5554 13.912C11.5598 13.8439 11.5598 13.7719 11.5598 13.6767V13.6643C11.5598 13.5691 11.5598 13.4971 11.5554 13.4289C11.551 13.361 11.5432 13.3194 11.5357 13.2941C11.5341 13.2887 11.5326 13.2846 11.5314 13.2816L11.5282 13.28C11.5209 13.2788 11.5067 13.2771 11.4831 13.2755C11.4153 13.2708 11.3226 13.2705 11.1589 13.2705H11.1424C11.0011 13.2705 10.8667 13.2705 10.753 13.2627C10.6294 13.2543 10.487 13.2347 10.3405 13.1741C9.94256 13.0095 9.72776 12.709 9.63256 12.3914C9.5568 12.1385 9.55752 11.8684 9.55792 11.7037C9.55792 11.6921 9.558 11.681 9.558 11.6705C9.558 11.6599 9.55792 11.6488 9.55792 11.6372C9.55752 11.4725 9.5568 11.2025 9.63256 10.9496C9.72776 10.632 9.94256 10.3315 10.3405 10.1668C10.487 10.1062 10.6294 10.0867 10.753 10.0782C10.8667 10.0704 11.0011 10.0705 11.1424 10.0705Z" fill="black" fill-opacity="0.56"/>
<path id="Vector_2" fill-rule="evenodd" clip-rule="evenodd" d="M5.75546 17.193C6.4826 17.2688 7.42421 17.2696 8.7416 17.2696H12.1598C12.4911 17.2696 12.7598 17.5382 12.7598 17.8696C12.7598 18.201 12.4911 18.4696 12.1598 18.4696H8.70688C7.43181 18.4696 6.42767 18.4696 5.63107 18.3866C4.81767 18.3018 4.14883 18.1249 3.57665 17.7218C3.27121 17.5066 2.99882 17.2505 2.76835 16.9607C2.33244 16.4127 2.14016 15.7682 2.04865 14.9905C1.95975 14.235 1.95975 13.285 1.95977 12.0898V9.9932C1.95977 8.8264 1.95976 7.92108 2.00796 7.19034C2.05681 6.4497 2.157 5.84696 2.37712 5.29152C3.04761 3.59961 4.45948 2.27865 6.23172 1.65652C7.33482 1.26929 8.6884 1.26938 11.0606 1.26956C11.1114 1.26957 11.1626 1.26957 11.2143 1.26957C11.2604 1.26957 11.3059 1.26956 11.3508 1.26955C12.659 1.26928 13.4742 1.26911 14.1466 1.5052C15.2259 1.88405 16.0912 2.69054 16.5032 3.73023C16.6429 4.08282 16.7029 4.45714 16.7317 4.89309C16.7598 5.31917 16.7598 5.84361 16.7598 6.50311V8.2696C16.7598 8.60096 16.4911 8.8696 16.1598 8.8696C15.8284 8.8696 15.5598 8.60096 15.5598 8.2696V6.52411C15.5598 5.8389 15.5594 5.35401 15.5342 4.97206C15.5094 4.59548 15.4622 4.36068 15.3876 4.17233C15.1103 3.47274 14.5179 2.90731 13.7492 2.63746C13.2954 2.47813 12.7043 2.46957 11.2143 2.46957C8.64488 2.46957 7.51412 2.47813 6.6292 2.78878C5.16748 3.3019 4.02843 4.38181 3.49271 5.73361C3.33768 6.12482 3.2503 6.58804 3.20536 7.26933C3.16007 7.95597 3.15977 8.82184 3.15977 10.015V12.0514C3.15977 13.2937 3.16074 14.173 3.24043 14.8503C3.31846 15.5134 3.46526 15.9092 3.70751 16.2138C3.86564 16.4126 4.05412 16.5902 4.2678 16.7408C4.60154 16.9759 5.03789 17.1182 5.75546 17.193Z" fill="black" fill-opacity="0.56"/>
<path id="Vector_3" fill-rule="evenodd" clip-rule="evenodd" d="M2.55977 10.4696C2.22839 10.4696 1.95977 10.2009 1.95977 9.86956C1.95977 8.0654 3.42231 6.60287 5.22643 6.60287C5.37504 6.60287 5.52673 6.60936 5.66837 6.61592C5.68663 6.61677 5.70473 6.61762 5.72267 6.61846C5.84801 6.62434 5.966 6.62987 6.08364 6.63232C6.35615 6.63797 6.57423 6.62486 6.74957 6.57788C7.00263 6.51007 7.20031 6.3124 7.26811 6.05933C7.3151 5.88399 7.32821 5.66592 7.32255 5.3934C7.32011 5.27578 7.31458 5.1578 7.3087 5.03248C7.30786 5.01452 7.30701 4.99641 7.30616 4.97813C7.29959 4.83649 7.2931 4.6848 7.2931 4.5362C7.2931 2.73207 8.7556 1.26953 10.5598 1.26953C10.8911 1.26953 11.1598 1.53816 11.1598 1.86953C11.1598 2.2009 10.8911 2.46953 10.5598 2.46953C9.4184 2.46953 8.49312 3.39481 8.49312 4.5362C8.49312 4.6539 8.49824 4.78044 8.50488 4.92252C8.50568 4.93983 8.50648 4.95739 8.50736 4.97518C8.51312 5.09912 8.51952 5.23398 8.52232 5.36849C8.52864 5.67256 8.51904 6.0274 8.4272 6.36992C8.24848 7.03709 7.72733 7.55822 7.06015 7.73699C6.71763 7.82876 6.3628 7.83837 6.05873 7.83205C5.92421 7.82926 5.78935 7.82292 5.66541 7.8171C5.64763 7.81626 5.63007 7.81544 5.61276 7.81464C5.47068 7.80804 5.34414 7.80287 5.22643 7.80287C4.08504 7.80287 3.15977 8.72812 3.15977 9.86956C3.15977 10.2009 2.89114 10.4696 2.55977 10.4696Z" fill="black" fill-opacity="0.56"/>
</g>
</g>
</svg>
