<svg width="20" height="20" viewBox="0 0 20 20" fill="none" xmlns="http://www.w3.org/2000/svg">
<path d="M16.725 12.0992C15.9597 12.0992 15.275 12.4648 14.8409 13.0336L13.0159 11.6836C13.3191 11.1808 13.4937 10.5898 13.4937 9.95859C13.4937 9.19297 13.2378 8.48359 12.8031 7.92078C12.8125 7.92078 12.8187 7.91453 12.825 7.90828L14.6062 6.39266C14.9437 6.68641 15.3809 6.86453 15.8594 6.86453C16.9094 6.86453 17.7625 6.01172 17.7625 4.96141C17.7625 3.91109 16.9097 3.05828 15.8594 3.05828C14.8091 3.05828 13.9562 3.91109 13.9562 4.96141C13.9562 5.30547 14.0469 5.63016 14.2094 5.90828L12.4219 7.43016C12.4094 7.44266 12.3969 7.45516 12.3875 7.46766C11.8566 6.98953 11.175 6.67703 10.4253 6.61453L10.4534 5.14578C11.0691 5.04891 11.5406 4.51453 11.5406 3.87422C11.5406 3.16172 10.9625 2.58328 10.25 2.58328C9.54062 2.58328 8.9625 3.16172 8.9625 3.87422C8.9625 4.43672 9.325 4.91797 9.82812 5.08984L9.8 6.62109C9.05 6.69578 8.37187 7.02078 7.85 7.50859C7.84687 7.49922 7.84062 7.49297 7.83125 7.48672L5.79687 5.76484C6.25937 5.31172 6.54687 4.68047 6.54687 3.98672C6.54687 2.61484 5.42812 1.49609 4.05625 1.49609C2.68437 1.49609 1.56875 2.61484 1.56875 3.98672C1.56875 5.35891 2.68437 6.47422 4.05625 6.47422C4.50312 6.47422 4.925 6.35547 5.2875 6.14922L7.425 7.96516C7.42812 7.96828 7.43437 7.97141 7.4375 7.97422C7.02812 8.53047 6.78437 9.21797 6.78437 9.95891V10.0027L3.40312 10.1214C3.22812 9.61797 2.75 9.25547 2.1875 9.25547C1.475 9.25547 0.896873 9.83359 0.896873 10.543C0.896873 11.2552 1.475 11.8336 2.1875 11.8336C2.83125 11.8336 3.36562 11.3583 3.45937 10.7398L6.85625 10.6336C6.97187 11.2086 7.24062 11.7336 7.60937 12.1617C7.60312 12.1648 7.59687 12.1711 7.59062 12.1773L5.55312 14.4523C5.25 14.2523 4.89062 14.1367 4.50312 14.1367C3.45312 14.1367 2.6 14.9895 2.6 16.0398C2.6 17.0902 3.45312 17.943 4.50312 17.943C5.55312 17.943 6.40625 17.0902 6.40625 16.0398C6.40625 15.6023 6.25937 15.1992 6.00937 14.8773L8.05625 12.5927C8.05937 12.5895 8.05937 12.5895 8.05937 12.5864C8.63125 13.0395 9.35312 13.3111 10.1375 13.3111L10.2437 16.0548C9.81562 16.2642 9.51875 16.7048 9.51875 17.2111C9.51875 17.9236 10.1 18.5017 10.8094 18.5017C11.5191 18.5017 12.0969 17.9236 12.0969 17.2111C12.0969 16.5205 11.55 15.9545 10.8656 15.9267L10.7594 13.2517C11.5031 13.1142 12.1625 12.7298 12.6469 12.1861L14.5253 13.5767C14.4097 13.8548 14.3472 14.1577 14.3472 14.4767C14.3472 15.7892 15.4159 16.8548 16.725 16.8548C18.0344 16.8548 19.1031 15.7892 19.1031 14.4767C19.1031 13.168 18.0344 12.0992 16.725 12.0992ZM15.8594 3.68359C16.5656 3.68359 17.1375 4.25859 17.1375 4.96172C17.1375 5.66797 16.5656 6.23984 15.8594 6.23984C15.1562 6.23984 14.5812 5.66797 14.5812 4.96172C14.5812 4.25859 15.1562 3.68359 15.8594 3.68359ZM4.05625 5.84922C3.02812 5.84922 2.19375 5.01484 2.19375 3.98672C2.19375 2.95859 3.02812 2.12109 4.05625 2.12109C5.08437 2.12109 5.92187 2.95859 5.92187 3.98672C5.92187 5.01484 5.08437 5.84922 4.05625 5.84922ZM2.1875 11.2086C1.82187 11.2086 1.52187 10.9086 1.52187 10.543C1.52187 10.1773 1.82187 9.88047 2.1875 9.88047C2.55312 9.88047 2.85 10.1773 2.85 10.543C2.85 10.9086 2.55312 11.2086 2.1875 11.2086ZM4.50312 17.318C3.79687 17.318 3.225 16.7461 3.225 16.0398C3.225 15.3367 3.79687 14.7617 4.50312 14.7617C5.20625 14.7617 5.78125 15.3367 5.78125 16.0398C5.78125 16.7461 5.20625 17.318 4.50312 17.318ZM9.5875 3.87422C9.5875 3.50859 9.88437 3.20828 10.25 3.20828C10.6191 3.20828 10.9156 3.50859 10.9156 3.87422C10.9156 4.23984 10.6191 4.53984 10.25 4.53984C9.88437 4.53984 9.5875 4.23984 9.5875 3.87422ZM10.8094 16.5492C11.175 16.5492 11.4719 16.8461 11.4719 17.2117C11.4719 17.5773 11.175 17.8773 10.8094 17.8773C10.4437 17.8773 10.1437 17.5773 10.1437 17.2117C10.1437 16.8461 10.4437 16.5492 10.8094 16.5492ZM10.1406 12.6867C8.63437 12.6867 7.40937 11.4617 7.40937 9.95891C7.40937 8.45266 8.63437 7.22766 10.1406 7.22766C11.6437 7.22766 12.8684 8.45266 12.8684 9.95891C12.8687 11.4617 11.6437 12.6867 10.1406 12.6867ZM16.725 16.2305C15.7594 16.2305 14.9722 15.4427 14.9722 14.4773C14.9722 13.512 15.7597 12.7242 16.725 12.7242C17.6909 12.7242 18.4781 13.512 18.4781 14.4773C18.4781 15.4427 17.6906 16.2305 16.725 16.2305Z" fill="black" fill-opacity="0.56"/>
<path d="M7.47475 12.1568L5.53495 14.3227C5.23203 14.1408 4.88014 14.0367 4.50312 14.0367C3.39791 14.0367 2.5 14.9343 2.5 16.0398C2.5 17.1454 3.39791 18.043 4.50312 18.043C5.60834 18.043 6.50625 17.1454 6.50625 16.0398C6.50625 15.6095 6.37109 15.2104 6.13835 14.8832L8.07338 12.7234C8.62557 13.1367 9.30482 13.3894 10.0412 13.4098L10.1414 15.9953C9.71213 16.2312 9.41875 16.6883 9.41875 17.2111C9.41875 17.979 10.0449 18.6017 10.8094 18.6017C11.5745 18.6017 12.1969 17.9786 12.1969 17.2111C12.1969 16.4981 11.6561 15.9084 10.962 15.8336L10.8627 13.3332C11.5632 13.1852 12.1865 12.8239 12.6598 12.3201L14.404 13.6113C14.3019 13.8813 14.2472 14.1721 14.2472 14.4767C14.2472 15.8445 15.3608 16.9548 16.725 16.9548C18.0895 16.9548 19.2031 15.8445 19.2031 14.4767C19.2031 13.1127 18.0896 11.9992 16.725 11.9992C15.9624 11.9992 15.2767 12.3476 14.8228 12.8958L13.1476 11.6566C13.4315 11.156 13.5937 10.5759 13.5937 9.95859C13.5937 9.20631 13.3537 8.50629 12.9423 7.93979L14.6069 6.5234C14.9518 6.7991 15.3864 6.96453 15.8594 6.96453C16.9646 6.96453 17.8625 6.06696 17.8625 4.96141C17.8625 3.85587 16.9649 2.95828 15.8594 2.95828C14.7538 2.95828 13.8562 3.85587 13.8562 4.96141C13.8562 5.29334 13.9365 5.60875 14.0822 5.88521L12.3837 7.33134C11.8707 6.89361 11.23 6.60199 10.5271 6.52396L10.5519 5.22891C11.1743 5.09153 11.6406 4.53554 11.6406 3.87422C11.6406 3.10652 11.0178 2.48328 10.25 2.48328C9.48521 2.48328 8.8625 3.10668 8.8625 3.87422C8.8625 4.45442 9.22031 4.95444 9.72684 5.15881L9.70163 6.53156C8.99663 6.62034 8.35729 6.9241 7.85104 7.37246L5.94352 5.75795C6.37924 5.29377 6.64687 4.66942 6.64687 3.98672C6.64687 2.55962 5.48335 1.39609 4.05625 1.39609C2.62898 1.39609 1.46875 2.55978 1.46875 3.98672C1.46875 5.41414 2.62915 6.57422 4.05625 6.57422C4.49586 6.57422 4.91235 6.46369 5.27533 6.27009L7.30196 7.99184C6.92313 8.53696 6.69556 9.19677 6.68477 9.90609L3.47125 10.019C3.2643 9.51323 2.7678 9.15547 2.1875 9.15547C1.41993 9.15547 0.796873 9.77821 0.796873 10.543C0.796873 11.3104 1.41975 11.9336 2.1875 11.9336C2.85267 11.9336 3.40906 11.4631 3.54318 10.8373L6.77597 10.7362C6.89652 11.2656 7.1429 11.7508 7.47475 12.1568ZM12.7684 9.95891V9.95893C12.7687 11.4065 11.5885 12.5867 10.1406 12.5867C8.68952 12.5867 7.50937 11.4064 7.50937 9.95891C7.50937 8.50789 8.6896 7.32766 10.1406 7.32766C11.5884 7.32766 12.7684 8.5078 12.7684 9.95891ZM15.8594 3.78359C16.5102 3.78359 17.0375 4.31366 17.0375 4.96172C17.0375 5.61274 16.5104 6.13984 15.8594 6.13984C15.2113 6.13984 14.6812 5.61258 14.6812 4.96172C14.6812 4.31382 15.2115 3.78359 15.8594 3.78359ZM4.05625 5.74922C3.08335 5.74922 2.29375 4.95962 2.29375 3.98672C2.29375 3.0136 3.08357 2.22109 4.05625 2.22109C5.02915 2.22109 5.82187 3.01382 5.82187 3.98672C5.82187 4.9594 5.02936 5.74922 4.05625 5.74922ZM2.1875 11.1086C1.8771 11.1086 1.62187 10.8534 1.62187 10.543C1.62187 10.2332 1.87649 9.98047 2.1875 9.98047C2.4979 9.98047 2.75 10.2326 2.75 10.543C2.75 10.854 2.49728 11.1086 2.1875 11.1086ZM4.50312 17.218C3.8521 17.218 3.325 16.6909 3.325 16.0398C3.325 15.3918 3.85226 14.8617 4.50312 14.8617C5.15102 14.8617 5.68125 15.3919 5.68125 16.0398C5.68125 16.6907 5.15118 17.218 4.50312 17.218ZM9.6875 3.87422C9.6875 3.56315 9.94027 3.30828 10.25 3.30828C10.5634 3.30828 10.8156 3.56342 10.8156 3.87422C10.8156 4.18495 10.5635 4.43984 10.25 4.43984C9.94021 4.43984 9.6875 4.18523 9.6875 3.87422ZM10.8094 16.6492C11.1198 16.6492 11.3719 16.9013 11.3719 17.2117C11.3719 17.5227 11.1192 17.7773 10.8094 17.7773C10.499 17.7773 10.2437 17.5221 10.2437 17.2117C10.2437 16.9019 10.4984 16.6492 10.8094 16.6492ZM16.725 16.1305C15.8146 16.1305 15.0722 15.3875 15.0722 14.4773C15.0722 13.5672 15.8149 12.8242 16.725 12.8242C17.6357 12.8242 18.3781 13.5672 18.3781 14.4773C18.3781 15.3874 17.6354 16.1305 16.725 16.1305Z" stroke="black" stroke-opacity="0.56" stroke-width="0.2"/>
</svg>
