<svg width="20" height="20" viewBox="0 0 20 20" fill="none" xmlns="http://www.w3.org/2000/svg">
<g id="Drag Handle" clip-path="url(#clip0_4871_21230)">
<path id="Vector" d="M9.16666 15.0007C9.16666 15.9173 8.41666 16.6673 7.49999 16.6673C6.58333 16.6673 5.83333 15.9173 5.83333 15.0007C5.83333 14.084 6.58333 13.334 7.49999 13.334C8.41666 13.334 9.16666 14.084 9.16666 15.0007ZM7.49999 8.33398C6.58333 8.33398 5.83333 9.08398 5.83333 10.0007C5.83333 10.9173 6.58333 11.6673 7.49999 11.6673C8.41666 11.6673 9.16666 10.9173 9.16666 10.0007C9.16666 9.08398 8.41666 8.33398 7.49999 8.33398ZM7.49999 3.33398C6.58333 3.33398 5.83333 4.08398 5.83333 5.00065C5.83333 5.91732 6.58333 6.66732 7.49999 6.66732C8.41666 6.66732 9.16666 5.91732 9.16666 5.00065C9.16666 4.08398 8.41666 3.33398 7.49999 3.33398ZM12.5 6.66732C13.4167 6.66732 14.1667 5.91732 14.1667 5.00065C14.1667 4.08398 13.4167 3.33398 12.5 3.33398C11.5833 3.33398 10.8333 4.08398 10.8333 5.00065C10.8333 5.91732 11.5833 6.66732 12.5 6.66732ZM12.5 8.33398C11.5833 8.33398 10.8333 9.08398 10.8333 10.0007C10.8333 10.9173 11.5833 11.6673 12.5 11.6673C13.4167 11.6673 14.1667 10.9173 14.1667 10.0007C14.1667 9.08398 13.4167 8.33398 12.5 8.33398ZM12.5 13.334C11.5833 13.334 10.8333 14.084 10.8333 15.0007C10.8333 15.9173 11.5833 16.6673 12.5 16.6673C13.4167 16.6673 14.1667 15.9173 14.1667 15.0007C14.1667 14.084 13.4167 13.334 12.5 13.334Z" fill="black" fill-opacity="0.12"/>
</g>
<defs>
<clipPath id="clip0_4871_21230">
<rect width="20" height="20" fill="white"/>
</clipPath>
</defs>
</svg>
