<svg width="32" height="32" viewBox="0 0 32 32" fill="none" xmlns="http://www.w3.org/2000/svg">
<rect x="0.5" y="0.5" width="31" height="31" rx="7.5" fill="white"/>
<rect x="0.5" y="0.5" width="31" height="31" rx="7.5" stroke="#E0E0E0"/>
<path d="M13.9173 7.75H11.875C10.7359 7.75 9.8125 8.67341 9.8125 9.8125V22.1875C9.8125 23.3266 10.7359 24.25 11.875 24.25H20.125C21.2641 24.25 22.1875 23.3266 22.1875 22.1875V16M13.9173 7.75C15.0564 7.75 16 8.67341 16 9.8125V11.875C16 13.0141 16.9234 13.9375 18.0625 13.9375H20.125C21.2641 13.9375 22.1875 14.8609 22.1875 16M13.9173 7.75C17.2997 7.75 22.1875 12.6631 22.1875 16" stroke="black" stroke-opacity="0.56" stroke-width="1.5" stroke-linecap="round" stroke-linejoin="round"/>
</svg>
