<svg width="20" height="20" viewBox="0 0 20 20" fill="none" xmlns="http://www.w3.org/2000/svg">
<g id="fi_14195550">
<g id="_x30_7">
<path id="Vector" d="M14.0625 13.75H5.9375C3.35269 13.75 1.25 11.7874 1.25 9.375C1.25 7.14663 3.04444 5.30213 5.35525 5.03356C5.66556 2.89975 7.63031 1.25 10 1.25C12.3697 1.25 14.3344 2.89975 14.6448 5.03356C16.9556 5.30213 18.75 7.14663 18.75 9.375C18.75 11.7874 16.6473 13.75 14.0625 13.75ZM10 2.5C8.10456 2.5 6.5625 3.902 6.5625 5.625C6.5625 5.97013 6.28263 6.25 5.9375 6.25C4.04206 6.25 2.5 7.652 2.5 9.375C2.5 11.098 4.04206 12.5 5.9375 12.5H14.0625C15.9579 12.5 17.5 11.098 17.5 9.375C17.5 7.652 15.9579 6.25 14.0625 6.25C13.7174 6.25 13.4375 5.97013 13.4375 5.625C13.4375 3.902 11.8954 2.5 10 2.5Z" fill="black" fill-opacity="0.56"/>
<path id="Vector_2" d="M13.125 11.875H6.875C6.52987 11.875 6.25 11.5951 6.25 11.25V7.5C6.25 7.15487 6.52987 6.875 6.875 6.875H13.125C13.4701 6.875 13.75 7.15487 13.75 7.5V11.25C13.75 11.5951 13.4701 11.875 13.125 11.875ZM7.5 10.625H12.5V8.125H7.5V10.625Z" fill="black" fill-opacity="0.56"/>
<path id="Vector_3" d="M10 10.0002C9.88863 10.0002 9.7775 9.9706 9.67838 9.9111L6.55338 8.0361C6.25738 7.85847 6.1615 7.4746 6.33913 7.17853C6.51675 6.88222 6.90032 6.78666 7.19669 6.96428L10 8.64647L12.8034 6.96435C13.0997 6.78703 13.4833 6.88285 13.6609 7.1786C13.8386 7.4746 13.7428 7.85853 13.4467 8.03616L10.3217 9.91116C10.2225 9.9706 10.1114 10.0002 10 10.0002Z" fill="black" fill-opacity="0.56"/>
<path id="Vector_4" d="M13.125 18.75C12.9623 18.75 12.8027 18.6865 12.6831 18.5669L11.4331 17.3169C11.189 17.0728 11.189 16.6773 11.4331 16.4331C11.6772 16.1889 12.0727 16.1889 12.3169 16.4331L12.5 16.6162V15C12.5 14.6549 12.7799 14.375 13.125 14.375C13.4701 14.375 13.75 14.6549 13.75 15V18.125C13.75 18.3777 13.5977 18.6056 13.3642 18.7024C13.2867 18.7344 13.2056 18.75 13.125 18.75Z" fill="black" fill-opacity="0.56"/>
<path id="Vector_5" d="M13.125 18.75C12.9651 18.75 12.8052 18.689 12.6831 18.5669C12.439 18.3228 12.439 17.9273 12.6831 17.6831L13.9331 16.4331C14.1772 16.189 14.5727 16.189 14.8169 16.4331C15.0611 16.6772 15.0611 17.0727 14.8169 17.3169L13.5669 18.5669C13.4448 18.689 13.2849 18.75 13.125 18.75Z" fill="black" fill-opacity="0.56"/>
<path id="Vector_6" d="M6.875 18.75C6.71231 18.75 6.55275 18.6865 6.43312 18.5669L5.18312 17.3169C4.939 17.0728 4.939 16.6773 5.18312 16.4331C5.42725 16.1889 5.82275 16.1889 6.06694 16.4331L6.25 16.6162V15C6.25 14.6549 6.52987 14.375 6.875 14.375C7.22012 14.375 7.5 14.6549 7.5 15V18.125C7.5 18.3777 7.34769 18.6056 7.11425 18.7024C7.03675 18.7344 6.95556 18.75 6.875 18.75Z" fill="black" fill-opacity="0.56"/>
<path id="Vector_7" d="M6.875 18.75C6.71506 18.75 6.55519 18.689 6.43312 18.5669C6.189 18.3228 6.189 17.9273 6.43312 17.6831L7.68312 16.4331C7.92725 16.189 8.32275 16.189 8.56694 16.4331C8.81112 16.6772 8.81106 17.0727 8.56694 17.3169L7.31694 18.5669C7.19481 18.689 7.03494 18.75 6.875 18.75Z" fill="black" fill-opacity="0.56"/>
<path id="Vector_8" d="M4.08477 4.7098H2.3169C1.97177 4.7098 1.6919 4.42993 1.6919 4.0848C1.6919 3.73968 1.97177 3.4598 2.3169 3.4598H2.57602L1.43315 2.31693C1.18902 2.0728 1.18902 1.6773 1.43315 1.43312C1.67727 1.18893 2.07277 1.18899 2.31696 1.43312L4.52671 3.64287C4.70552 3.82168 4.75896 4.09024 4.66221 4.32399C4.56546 4.55755 4.33746 4.7098 4.08477 4.7098Z" fill="black" fill-opacity="0.56"/>
<path id="Vector_9" d="M4.08475 4.70928C3.73962 4.70928 3.45975 4.42941 3.45975 4.08428V2.31641C3.45975 1.97128 3.73962 1.69141 4.08475 1.69141C4.42987 1.69141 4.70975 1.97128 4.70975 2.31641V4.08428C4.70975 4.42947 4.42993 4.70928 4.08475 4.70928Z" fill="black" fill-opacity="0.56"/>
<path id="Vector_10" d="M17.6831 4.70972H15.9153C15.6626 4.70972 15.4346 4.55741 15.3379 4.32397C15.2411 4.09022 15.2946 3.82166 15.4734 3.64284L17.6831 1.43309C17.9273 1.18897 18.3228 1.18897 18.5669 1.43309C18.8111 1.67722 18.8111 2.07272 18.5669 2.31691L17.4241 3.45978H17.6832C18.0283 3.45978 18.3082 3.73966 18.3082 4.08478C18.3082 4.42991 18.0283 4.70972 17.6831 4.70972Z" fill="black" fill-opacity="0.56"/>
<path id="Vector_11" d="M15.9153 4.70928C15.5701 4.70928 15.2903 4.42941 15.2903 4.08428V2.31641C15.2903 1.97128 15.5701 1.69141 15.9153 1.69141C16.2604 1.69141 16.5403 1.97128 16.5403 2.31641V4.08428C16.5403 4.42947 16.2604 4.70928 15.9153 4.70928Z" fill="black" fill-opacity="0.56"/>
</g>
</g>
</svg>
