<svg width="23" height="20" viewBox="0 0 23 20" fill="none" xmlns="http://www.w3.org/2000/svg">
<path d="M2.86735 16.2565L3.7324 17.7507C3.91216 18.0652 4.17055 18.3124 4.47388 18.4922L7.56337 13.1445H1.38439C1.38439 13.4928 1.47427 13.8411 1.65402 14.1556L2.86735 16.2565Z" fill="#0066DA"/>
<path d="M11.1921 6.85348L8.10262 1.50586C7.79929 1.68561 7.5409 1.93277 7.36115 2.24734L1.65402 12.1337C1.47757 12.4415 1.38463 12.79 1.38439 13.1448H7.56337L11.1921 6.85348Z" fill="#00AC47"/>
<path d="M17.9107 18.4922C18.2141 18.3124 18.4725 18.0652 18.6522 17.7507L19.0117 17.1328L20.7306 14.1556C20.9104 13.8411 21.0002 13.4928 21.0002 13.1445H14.8208L16.1357 15.7285L17.9107 18.4922Z" fill="#EA4335"/>
<path d="M11.1926 6.85358L14.2821 1.50596C13.9787 1.3262 13.6304 1.23633 13.2709 1.23633H9.11418C8.75467 1.23633 8.4064 1.33744 8.10307 1.50596L11.1926 6.85358Z" fill="#00832D"/>
<path d="M14.8207 13.1445H7.56318L4.47369 18.4922C4.77703 18.6719 5.1253 18.7618 5.4848 18.7618H16.8991C17.2586 18.7618 17.6068 18.6607 17.9102 18.4922L14.8207 13.1445Z" fill="#2684FC"/>
<path d="M17.8769 7.19052L15.0233 2.24734C14.8436 1.93277 14.5852 1.68561 14.2819 1.50586L11.1924 6.85348L14.8211 13.1448H20.9889C20.9889 12.7965 20.899 12.4483 20.7192 12.1337L17.8769 7.19052Z" fill="#FFBA00"/>
</svg>
