<svg width="20" height="20" viewBox="0 0 20 20" fill="none" xmlns="http://www.w3.org/2000/svg">
<path d="M15.8334 10.8327C15.6124 10.8327 15.4004 10.9205 15.2441 11.0768C15.0878 11.233 15 11.445 15 11.666V11.991L13.7667 10.7577C13.5522 10.5418 13.297 10.3704 13.016 10.2534C12.735 10.1365 12.4336 10.0763 12.1292 10.0763C11.8248 10.0763 11.5234 10.1365 11.2424 10.2534C10.9614 10.3704 10.7062 10.5418 10.4917 10.7577L9.90836 11.341L7.84168 9.266C7.39916 8.84756 6.81324 8.6144 6.2042 8.6144C5.59516 8.6144 5.00924 8.84756 4.56668 9.266L3.33337 10.4994V5.83268C3.33337 5.61168 3.42117 5.39972 3.57745 5.24344C3.73373 5.08716 3.94569 4.99936 4.16668 4.99936H10.8334C11.0544 4.99936 11.2664 4.91156 11.4226 4.75528C11.5789 4.599 11.6667 4.38704 11.6667 4.166C11.6667 3.945 11.5789 3.73304 11.4226 3.57676C11.2664 3.42048 11.0544 3.33268 10.8334 3.33268H4.16668C3.50366 3.33268 2.86777 3.59608 2.39893 4.06492C1.93009 4.53376 1.6667 5.16964 1.6667 5.83268V15.8327C1.6667 16.4957 1.93009 17.1316 2.39893 17.6004C2.86777 18.0693 3.50366 18.3327 4.16668 18.3327H14.1667C14.8297 18.3327 15.4656 18.0693 15.9345 17.6004C16.4033 17.1316 16.6667 16.4957 16.6667 15.8327V11.666C16.6667 11.445 16.5789 11.233 16.4226 11.0768C16.2664 10.9205 16.0544 10.8327 15.8334 10.8327ZM4.16668 16.666C3.94569 16.666 3.73373 16.5782 3.57745 16.422C3.42117 16.2657 3.33337 16.0537 3.33337 15.8327V12.8577L5.75004 10.441C5.87244 10.3244 6.03508 10.2593 6.2042 10.2593C6.37332 10.2593 6.53592 10.3244 6.65836 10.441L9.30004 13.0827L12.875 16.666H4.16668ZM15 15.8327C14.9931 15.9912 14.941 16.1444 14.85 16.2744L11.0917 12.4994L11.675 11.916C11.7968 11.7949 11.9616 11.7269 12.1334 11.7269C12.3051 11.7269 12.4699 11.7949 12.5917 11.916L15 14.3494V15.8327ZM15.8334 1.66602C15.3942 1.66574 14.9628 1.78112 14.5824 2.00055C14.2021 2.21999 13.8862 2.53573 13.6667 2.91602C13.6116 3.01113 13.5759 3.1162 13.5616 3.22518C13.5472 3.33416 13.5546 3.4449 13.5833 3.55102C13.6119 3.65714 13.6613 3.75653 13.7285 3.84349C13.7958 3.93044 13.8796 4.00324 13.975 4.05768C14.1664 4.16632 14.3929 4.19488 14.6052 4.13712C14.8176 4.07936 14.9984 3.93996 15.1084 3.74935C15.1993 3.58881 15.341 3.46301 15.5112 3.39166C15.6814 3.32032 15.8704 3.30748 16.0486 3.35514C16.2269 3.4028 16.3843 3.50828 16.4962 3.65503C16.608 3.80178 16.668 3.9815 16.6667 4.166C16.6667 4.38704 16.5789 4.599 16.4226 4.75528C16.2664 4.91156 16.0544 4.99936 15.8334 4.99936C15.6124 4.99936 15.4004 5.08716 15.2441 5.24344C15.0878 5.39972 15 5.61168 15 5.83268C15 6.05368 15.0878 6.26568 15.2441 6.42196C15.4004 6.57824 15.6124 6.666 15.8334 6.666C16.4964 6.666 17.1323 6.40264 17.6011 5.9338C18.07 5.46496 18.3334 4.82908 18.3334 4.166C18.3334 3.50298 18.07 2.86709 17.6011 2.39825C17.1323 1.92941 16.4964 1.66602 15.8334 1.66602ZM16.15 7.566C15.9992 7.49608 15.8308 7.47284 15.6667 7.49936L15.5167 7.54936L15.3667 7.62436L15.2417 7.73268C15.1635 7.81156 15.1018 7.90524 15.0603 8.00828C15.0188 8.11132 14.9983 8.2216 15 8.33268C14.9994 8.44236 15.0204 8.55108 15.0619 8.6526C15.1034 8.75412 15.1645 8.84648 15.2417 8.92436C15.3192 9.00248 15.4113 9.06444 15.5129 9.10676C15.6144 9.14908 15.7234 9.17084 15.8334 9.17084C15.9434 9.17084 16.0523 9.14908 16.1538 9.10676C16.2554 9.06444 16.3476 9.00248 16.425 8.92436C16.5023 8.84648 16.5634 8.75412 16.6048 8.6526C16.6463 8.55108 16.6673 8.44236 16.6667 8.33268C16.6659 8.16816 16.6164 8.00756 16.5244 7.87112C16.4325 7.73472 16.3022 7.62852 16.15 7.566Z" fill="black" fill-opacity="0.56"/>
</svg>
