<svg width="20" height="20" viewBox="0 0 20 20" fill="none" xmlns="http://www.w3.org/2000/svg">
<g clip-path="url(#clip0_4605_16890)">
<path d="M10 20C15.5228 20 20 15.5228 20 10C20 4.47715 15.5228 0 10 0C4.47715 0 0 4.47715 0 10C0 15.5228 4.47715 20 10 20Z" fill="#13AA52"/>
<path d="M12.673 8.77812C12.0414 5.99043 10.5486 5.07383 10.3879 4.72363C10.2121 4.47656 10.034 4.03711 10.034 4.03711C10.0311 4.02969 10.0264 4.0166 10.0209 4.00391C10.0027 4.25098 9.99336 4.34629 9.75977 4.59551C9.39805 4.87832 7.54219 6.43555 7.39121 9.60273C7.25039 12.5566 9.525 14.3168 9.83262 14.5412L9.86758 14.566V14.5639C9.86953 14.5787 9.96523 15.267 10.0324 15.9963H10.2734C10.33 15.4808 10.4148 14.9687 10.5273 14.4625L10.5469 14.4498C10.6845 14.3511 10.8157 14.2438 10.9396 14.1285L10.9537 14.1158C11.6076 13.5117 12.7832 12.1145 12.7717 9.88672C12.7692 9.51511 12.7363 9.14433 12.673 8.77812ZM10.0068 12.8734C10.0068 12.8734 10.0068 8.73047 10.1436 8.73125C10.2502 8.73125 10.3883 14.0752 10.3883 14.0752C10.1984 14.0523 10.0068 13.1957 10.0068 12.8734Z" fill="white"/>
</g>
<defs>
<clipPath id="clip0_4605_16890">
<rect width="20" height="20" fill="white"/>
</clipPath>
</defs>
</svg>
