<svg width="22" height="20" viewBox="0 0 22 20" fill="none" xmlns="http://www.w3.org/2000/svg">
<path d="M18.3333 8.16602C20.5379 8.50061 22 10.4531 22 12.7493C22.0012 13.5255 21.804 14.2892 21.4271 14.9677L12.76 9.66019L15.3175 8.49602C15.7933 8.27753 16.311 8.16494 16.8346 8.16602H18.3333Z" fill="#1288DF"/>
<path d="M12.7603 9.66016L21.4274 14.9676C21.032 15.6849 20.4512 16.2827 19.7457 16.6988C19.0402 17.1148 18.236 17.3337 17.417 17.3326H5.50033C4.61856 17.3338 3.74951 17.1223 2.96682 16.7162C2.18413 16.3101 1.51087 15.7213 1.00409 14.9997L12.7603 9.66016Z" fill="#259FEA"/>
<path d="M8.65799 7.14523L12.7601 9.66148L1.00384 15.001C0.348293 14.0753 -0.00254602 12.9683 9.31771e-05 11.834C-0.00649137 10.5241 0.449738 9.25403 1.28829 8.24776C2.12685 7.24149 3.29385 6.56371 4.58342 6.33398H5.78425C6.7987 6.33383 7.79337 6.61463 8.65799 7.14523Z" fill="#1480DA"/>
<path d="M18.3335 8.16649H16.8347C16.3111 8.1654 15.7935 8.278 15.3176 8.49649L12.7602 9.66066L8.65808 7.14441C7.79346 6.6138 6.79879 6.33301 5.78434 6.33316H4.5835C5.23009 5.20636 6.16564 4.2725 7.29361 3.62794C8.42158 2.98339 9.70111 2.65149 11.0002 2.6665C14.4376 2.6665 17.5406 4.9765 18.3335 8.16649Z" fill="#056ABC"/>
</svg>
