<svg width="25" height="24" viewBox="0 0 25 24" fill="none" xmlns="http://www.w3.org/2000/svg">
<g id="pin">
<path id="Vector" d="M3.5 21L8.13072 16.3688M8.13489 16.3645C7.8722 16.1025 6.39858 14.6285 5.35508 13.5847C4.40112 12.6304 5.36107 10.5879 6.66529 10.5056C7.84328 10.4313 10.5698 10.8582 11.4765 9.95138L13.9664 7.46124C14.5843 6.84324 14.1922 5.46085 14.1516 4.69857C14.0942 3.68269 15.7097 2.42781 16.5666 3.28484L21.2143 7.93299C22.074 8.79055 20.8148 10.402 19.8007 10.3482C19.0385 10.3076 17.6562 9.91551 17.0383 10.5335L14.5484 13.0237C13.6419 13.9303 14.0686 16.6562 13.9943 17.8341C13.9119 19.1386 11.8688 20.0988 10.9147 19.1446C9.87118 18.101 8.39757 16.6272 8.13489 16.3645Z" stroke="black" stroke-opacity="0.56" stroke-width="1.5" stroke-linecap="round" stroke-linejoin="round"/>
</g>
</svg>
