<svg width="33" height="32" viewBox="0 0 33 32" fill="none" xmlns="http://www.w3.org/2000/svg">
<path d="M7.5 25L12.1307 20.3688M12.1349 20.3645C11.8722 20.1025 10.3986 18.6285 9.35508 17.5847C8.40112 16.6304 9.36107 14.5879 10.6653 14.5056C11.8433 14.4313 14.5698 14.8582 15.4765 13.9514L17.9664 11.4612C18.5843 10.8432 18.1922 9.46085 18.1516 8.69857C18.0942 7.68269 19.7097 6.42781 20.5666 7.28484L25.2143 11.933C26.074 12.7905 24.8148 14.402 23.8007 14.3482C23.0385 14.3076 21.6562 13.9155 21.0383 14.5335L18.5484 17.0237C17.6419 17.9303 18.0686 20.6562 17.9943 21.8341C17.9119 23.1386 15.8688 24.0988 14.9147 23.1446C13.8712 22.101 12.3976 20.6272 12.1349 20.3645Z" stroke="black" stroke-opacity="0.56" stroke-width="1.5" stroke-linecap="round" stroke-linejoin="round"/>
</svg>
