<svg width="20" height="20" viewBox="0 0 20 20" fill="none" xmlns="http://www.w3.org/2000/svg">
<g clip-path="url(#clip0_4605_16897)">
<path d="M14.5129 14.5597C14.6401 13.4999 14.602 13.3445 15.3914 13.5161L15.5918 13.5337C16.1988 13.5614 16.9928 13.4361 17.4592 13.2194C18.4634 12.7535 19.0589 11.9755 18.0687 12.1799C15.8101 12.6459 15.6548 11.8811 15.6548 11.8811C18.0398 8.34244 19.0368 3.85044 18.1762 2.75089C15.829 -0.24828 11.7661 1.16996 11.6981 1.20678L11.6764 1.21078C11.2302 1.11818 10.7307 1.06286 10.1697 1.05379C9.14761 1.037 8.37206 1.32174 7.78375 1.76796C7.78375 1.76796 0.535698 -1.21814 0.872891 5.52329C0.944605 6.95738 2.92852 16.3749 5.2947 13.5303C6.15953 12.4902 6.99531 11.6107 6.99531 11.6107C7.41032 11.8864 7.9072 12.0271 8.42832 11.9766L8.4686 11.9422C8.45598 12.0714 8.46155 12.1977 8.48472 12.3472C7.87527 13.0283 8.05435 13.1479 6.83567 13.3987C5.60271 13.6528 6.32707 14.1053 6.79988 14.2235C7.37323 14.3669 8.69959 14.57 9.59604 13.3153L9.56034 13.4585C9.79946 13.6498 9.78329 14.8334 9.81719 15.6791C9.85114 16.5249 9.90777 17.3141 10.0802 17.7794C10.2525 18.2446 10.456 19.4431 12.0576 19.0999C13.3962 18.813 14.4196 18.4002 14.5129 14.5597Z" fill="black" stroke="black" stroke-width="1.67924"/>
<path d="M18.0681 12.1799C15.8093 12.6459 15.654 11.8811 15.654 11.8811C18.0389 8.34219 19.0359 3.8501 18.1755 2.75069C15.8283 -0.248305 11.7652 1.17003 11.6974 1.20685L11.6756 1.21075C11.2293 1.11811 10.7299 1.06293 10.1686 1.05377C9.14649 1.03702 8.37121 1.32171 7.7829 1.76785C7.7829 1.76785 0.534714 -1.21812 0.871817 5.52327C0.943531 6.95745 2.9274 16.3749 5.29367 13.5304C6.15855 12.4903 6.99419 11.6108 6.99419 11.6108C7.40925 11.8865 7.90612 12.0272 8.42702 11.9766L8.46748 11.9423C8.45491 12.0714 8.46066 12.1977 8.48369 12.3473C7.8741 13.0284 8.05323 13.1479 6.83464 13.3988C5.60159 13.6529 6.32595 14.1053 6.7989 14.2236C7.37224 14.3669 8.6987 14.57 9.59496 13.3154L9.55922 13.4586C9.79807 13.6498 9.96579 14.7029 9.93768 15.6575C9.90957 16.6122 9.8908 17.2675 10.079 17.7795C10.2672 18.2914 10.4548 19.4432 12.0567 19.0999C13.3953 18.8131 14.0889 18.0697 14.1854 16.8298C14.2539 15.9482 14.4089 16.0785 14.4187 15.2904L14.543 14.9173C14.6863 13.7223 14.5657 13.3368 15.3904 13.5161L15.5908 13.5337C16.1978 13.5613 16.9922 13.4361 17.4585 13.2194C18.4625 12.7535 19.0579 11.9755 18.068 12.1799H18.0681Z" fill="#336791"/>
<path d="M9.69282 12.8652C9.63063 15.0888 9.70845 17.3278 9.92601 17.8719C10.1437 18.4161 10.6096 19.4745 12.2117 19.1313C13.5501 18.8444 14.0371 18.2891 14.2484 17.0634C14.4041 16.1616 14.7041 13.6571 14.7426 13.144" stroke="white" stroke-width="0.559747" stroke-linecap="round" stroke-linejoin="round"/>
<path d="M7.77213 1.71943C7.77213 1.71943 0.518997 -1.24503 0.85619 5.49636C0.927904 6.93054 2.9119 16.3483 5.27814 13.5037C6.14283 12.4634 6.92485 11.6475 6.92485 11.6475" stroke="white" stroke-width="0.559747" stroke-linecap="round" stroke-linejoin="round"/>
<path d="M11.6903 1.17761C11.4393 1.25633 15.725 -0.389088 18.1606 2.72311C19.0209 3.82257 18.0239 8.31466 15.639 11.8536" stroke="white" stroke-width="0.559747" stroke-linecap="round" stroke-linejoin="round"/>
<path d="M15.6386 11.8536C15.6386 11.8536 15.7941 12.6186 18.0529 12.1524C19.0426 11.948 18.447 12.726 17.4432 13.1922C16.6195 13.5745 14.7726 13.6725 14.7424 13.1442C14.6647 11.7811 15.7144 12.1952 15.6386 11.8536ZM15.6386 11.8536C15.5702 11.546 15.1008 11.2441 14.7903 10.4913C14.5192 9.8342 11.0723 4.79512 15.7461 5.54351C15.9174 5.50808 14.5272 1.09781 10.1531 1.02609C5.77998 0.954379 5.92346 6.40403 5.92346 6.40403" stroke="white" stroke-width="0.559747" stroke-linecap="round" stroke-linejoin="bevel"/>
<path d="M8.46861 12.3205C7.85893 13.0015 8.03824 13.1211 6.81956 13.372C5.58651 13.6262 6.31096 14.0785 6.78377 14.1967C7.35712 14.3402 8.68357 14.5433 9.57983 13.2883C9.85277 12.9062 9.57822 12.2965 9.2033 12.1411C9.02216 12.0661 8.77994 11.972 8.46861 12.3205Z" stroke="white" stroke-width="0.559747" stroke-linecap="round" stroke-linejoin="round"/>
<path d="M8.42774 12.3079C8.36631 11.9075 8.55931 11.431 8.76614 10.8735C9.07698 10.0371 9.79416 9.20059 9.22045 6.54741C8.79282 4.57028 5.92459 6.13594 5.92279 6.40403C5.92104 6.67202 6.05252 7.76286 5.87488 9.03314C5.64308 10.6907 6.92961 12.0926 8.41108 11.9492" stroke="white" stroke-width="0.559747" stroke-linecap="round" stroke-linejoin="round"/>
<path d="M7.74583 6.36275C7.7329 6.45431 7.91346 6.69864 8.1489 6.73128C8.38393 6.76407 8.58511 6.57313 8.59786 6.48166C8.61062 6.3901 8.43028 6.28924 8.19475 6.25646C7.95958 6.22363 7.75832 6.27141 7.74588 6.36275H7.74583Z" fill="white" stroke="white" stroke-width="0.186581"/>
<path d="M14.9048 6.17718C14.9175 6.26874 14.7372 6.51307 14.5017 6.54572C14.2665 6.5785 14.0653 6.38756 14.0524 6.29609C14.04 6.20453 14.2204 6.10367 14.4556 6.07089C14.6909 6.03811 14.892 6.08585 14.9048 6.17723V6.17718Z" fill="white" stroke="white" stroke-width="0.0932905"/>
<path d="M15.7462 5.54297C15.7849 6.26118 15.5915 6.75038 15.5671 7.51493C15.531 8.62625 16.097 9.89823 15.2442 11.1718" stroke="white" stroke-width="0.559747" stroke-linecap="round" stroke-linejoin="round"/>
</g>
<defs>
<clipPath id="clip0_4605_16897">
<rect width="19.4022" height="20" fill="white"/>
</clipPath>
</defs>
</svg>
