<svg width="20" height="20" viewBox="0 0 20 20" fill="none" xmlns="http://www.w3.org/2000/svg">
<path d="M15.6432 4.70922C14.9969 4.70922 14.3836 4.85008 13.8321 5.10254C13.1896 4.23469 12.1586 3.67188 10.9959 3.67188C10.6498 3.67188 10.3159 3.7225 10 3.81551L6.48438 9.89859L10 15.9817C10.3905 15.6657 10.7252 15.2837 10.9873 14.8526C11.3768 15.0008 11.7991 15.0827 12.2407 15.0827C13.5105 15.0827 14.6231 14.4113 15.2442 13.4045C15.3756 13.4165 15.5086 13.4229 15.6432 13.4229C18.0494 13.4229 20 11.4723 20 9.06609C20 6.65981 18.0494 4.70922 15.6432 4.70922Z" fill="#00B8FA"/>
<path d="M8.79551 4.44273C7.99984 3.58547 6.86355 3.04883 5.60168 3.04883C3.19547 3.04883 1.24484 4.99945 1.24484 7.40566C1.24484 7.85996 1.31445 8.29801 1.44348 8.70977C0.568438 9.35156 0 10.3867 0 11.5551C0 13.503 1.5791 15.0821 3.52699 15.0821C3.57938 15.0821 3.63133 15.0804 3.68313 15.0781C4.47016 16.209 5.77922 16.9493 7.26141 16.9493C8.29895 16.9493 9.25172 16.5866 10 15.9811V3.81484C9.55594 3.94559 9.14805 4.16086 8.79551 4.44273Z" fill="#5CD4FF"/>
</svg>
