<svg width="32" height="32" viewBox="0 0 32 32" fill="none" xmlns="http://www.w3.org/2000/svg">
<rect x="0.5" y="0.5" width="31" height="31" rx="7.5" fill="white"/>
<rect x="0.5" y="0.5" width="31" height="31" rx="7.5" stroke="#E0E0E0"/>
<path d="M6.83325 15.9993C6.83325 12.5424 6.83325 10.8139 8.17568 9.73996C9.51811 8.66602 11.6787 8.66602 15.9999 8.66602C20.3211 8.66602 22.4817 8.66602 23.8242 9.73996C25.1666 10.8139 25.1666 12.5424 25.1666 15.9993C25.1666 19.4563 25.1666 21.1848 23.8242 22.2587C22.4817 23.3327 20.3211 23.3327 15.9999 23.3327C11.6787 23.3327 9.51811 23.3327 8.17568 22.2587C6.83325 21.1848 6.83325 19.4563 6.83325 15.9993Z" stroke="black" stroke-opacity="0.56" stroke-width="1.5" stroke-linecap="round" stroke-linejoin="round"/>
<rect x="11.75" y="17.75" width="8.5" height="5.5" rx="1.25" stroke="black" stroke-opacity="0.56" stroke-width="1.5" stroke-linecap="round" stroke-linejoin="round"/>
<line x1="14" y1="20.35" x2="18" y2="20.35" stroke="black" stroke-opacity="0.56" stroke-width="1.3"/>
</svg>
