<svg width="18" height="18" viewBox="0 0 18 18" fill="none" xmlns="http://www.w3.org/2000/svg">
<path d="M7.33333 2.125C7.49908 2.125 7.65808 2.05915 7.77525 1.94194C7.8925 1.82473 7.95833 1.66576 7.95833 1.5C7.95833 1.33424 7.8925 1.17527 7.77525 1.05806C7.65808 0.94085 7.49908 0.875 7.33333 0.875H4C3.83424 0.875 3.67526 0.94085 3.55806 1.05806C3.44085 1.17527 3.375 1.33424 3.375 1.5C3.375 1.66576 3.44085 1.82473 3.55806 1.94194C3.67526 2.05915 3.83424 2.125 4 2.125H5.04166V4.20833H2.33333C1.72554 4.20833 1.14265 4.44977 0.712881 4.87955C0.283106 5.30932 0.0416641 5.89221 0.0416641 6.5V11.5C0.0416641 12.1077 0.283106 12.6907 0.712881 13.1204C1.14265 13.5503 1.72554 13.7917 2.33333 13.7917H5.04166V15.875H4C3.83424 15.875 3.67526 15.9408 3.55806 16.0581C3.44085 16.1752 3.375 16.3342 3.375 16.5C3.375 16.6657 3.44085 16.8247 3.55806 16.9419C3.67526 17.0592 3.83424 17.125 4 17.125H7.33333C7.49908 17.125 7.65808 17.0592 7.77525 16.9419C7.8925 16.8247 7.95833 16.6657 7.95833 16.5C7.95833 16.3342 7.8925 16.1752 7.77525 16.0581C7.65808 15.9408 7.49908 15.875 7.33333 15.875H6.29166V2.125H7.33333ZM5.04166 12.5417H2.33333C2.05706 12.5417 1.79211 12.4319 1.59676 12.2366C1.40141 12.0412 1.29166 11.7762 1.29166 11.5V6.5C1.29166 6.22373 1.40141 5.95878 1.59676 5.76343C1.79211 5.56808 2.05706 5.45833 2.33333 5.45833H5.04166V12.5417Z" fill="black" fill-opacity="0.56"/>
<path d="M17.9583 6.50065V11.5007C17.9583 12.1084 17.7169 12.6913 17.2871 13.1211C16.8573 13.5509 16.2744 13.7923 15.6667 13.7923H9C8.83425 13.7923 8.67525 13.7265 8.55808 13.6092C8.44083 13.4921 8.375 13.3331 8.375 13.1673C8.375 13.0016 8.44083 12.8426 8.55808 12.7254C8.67525 12.6082 8.83425 12.5423 9 12.5423H15.6667C15.9429 12.5423 16.2079 12.4326 16.4032 12.2372C16.5986 12.0419 16.7083 11.7769 16.7083 11.5007V6.50065C16.7083 6.22438 16.5986 5.95943 16.4032 5.76408C16.2079 5.56873 15.9429 5.45898 15.6667 5.45898H9C8.83425 5.45898 8.67525 5.39313 8.55808 5.27593C8.44083 5.15872 8.375 4.99974 8.375 4.83398C8.375 4.66823 8.44083 4.50925 8.55808 4.39204C8.67525 4.27483 8.83425 4.20898 9 4.20898H15.6667C16.2744 4.20898 16.8573 4.45043 17.2871 4.8802C17.7169 5.30997 17.9583 5.89286 17.9583 6.50065Z" fill="black" fill-opacity="0.56"/>
<path d="M15.4583 7.33398C15.4562 7.49907 15.3897 7.65682 15.2729 7.77357C15.1562 7.89032 14.9984 7.95682 14.8333 7.95898H13.7917V10.6673C13.7917 10.8331 13.7258 10.9921 13.6086 11.1092C13.4914 11.2265 13.3324 11.2923 13.1667 11.2923C13.0009 11.2923 12.8419 11.2265 12.7247 11.1092C12.6075 10.9921 12.5417 10.8331 12.5417 10.6673V7.95898H11.5C11.3343 7.95898 11.1752 7.89315 11.0581 7.7759C10.9408 7.65873 10.875 7.49973 10.875 7.33398C10.875 7.16823 10.9408 7.00925 11.0581 6.89204C11.1752 6.77483 11.3343 6.70898 11.5 6.70898H14.8333C14.9984 6.71114 15.1562 6.77768 15.2729 6.89443C15.3897 7.01118 15.4562 7.16889 15.4583 7.33398Z" fill="black" fill-opacity="0.56"/>
</svg>
