<svg width="10" height="14" viewBox="0 0 10 14" fill="none" xmlns="http://www.w3.org/2000/svg">
<path d="M4.16634 12C4.16634 12.9167 3.41634 13.6667 2.49967 13.6667C1.58301 13.6667 0.833008 12.9167 0.833008 12C0.833008 11.0834 1.58301 10.3334 2.49967 10.3334C3.41634 10.3334 4.16634 11.0834 4.16634 12ZM2.49967 5.33337C1.58301 5.33337 0.833008 6.08337 0.833008 7.00004C0.833008 7.91671 1.58301 8.66671 2.49967 8.66671C3.41634 8.66671 4.16634 7.91671 4.16634 7.00004C4.16634 6.08337 3.41634 5.33337 2.49967 5.33337ZM2.49967 0.333374C1.58301 0.333374 0.833008 1.08337 0.833008 2.00004C0.833008 2.91671 1.58301 3.66671 2.49967 3.66671C3.41634 3.66671 4.16634 2.91671 4.16634 2.00004C4.16634 1.08337 3.41634 0.333374 2.49967 0.333374ZM7.49967 3.66671C8.41634 3.66671 9.16634 2.91671 9.16634 2.00004C9.16634 1.08337 8.41634 0.333374 7.49967 0.333374C6.58301 0.333374 5.83301 1.08337 5.83301 2.00004C5.83301 2.91671 6.58301 3.66671 7.49967 3.66671ZM7.49967 5.33337C6.58301 5.33337 5.83301 6.08337 5.83301 7.00004C5.83301 7.91671 6.58301 8.66671 7.49967 8.66671C8.41634 8.66671 9.16634 7.91671 9.16634 7.00004C9.16634 6.08337 8.41634 5.33337 7.49967 5.33337ZM7.49967 10.3334C6.58301 10.3334 5.83301 11.0834 5.83301 12C5.83301 12.9167 6.58301 13.6667 7.49967 13.6667C8.41634 13.6667 9.16634 12.9167 9.16634 12C9.16634 11.0834 8.41634 10.3334 7.49967 10.3334Z" fill="black" fill-opacity="0.12"/>
</svg>
