<svg width="20" height="20" viewBox="0 0 20 20" fill="none" xmlns="http://www.w3.org/2000/svg">
<path d="M13.9188 14.3748H8.69688C8.60231 14.9346 8.38181 15.4656 8.05213 15.9278C7.72238 16.39 7.29206 16.7713 6.7935 17.0429C6.295 17.3146 5.74127 17.4694 5.17415 17.4959C4.60704 17.5224 4.04131 17.4198 3.51964 17.1957C2.99798 16.9717 2.53398 16.6321 2.16265 16.2027C1.79132 15.7733 1.52234 15.2651 1.37601 14.7165C1.22968 14.1679 1.20982 13.5934 1.31791 13.036C1.426 12.4786 1.65923 11.9531 2.00001 11.4991C2.04931 11.4334 2.11106 11.3781 2.18173 11.3363C2.2524 11.2945 2.33061 11.267 2.4119 11.2554C2.49319 11.2439 2.57596 11.2484 2.65549 11.2688C2.73502 11.2893 2.80974 11.3251 2.87541 11.3744C2.94107 11.4238 2.99638 11.4855 3.03817 11.5561C3.07997 11.6268 3.10744 11.705 3.11901 11.7863C3.13058 11.8676 3.12603 11.9504 3.10561 12.0299C3.08519 12.1094 3.04931 12.1842 3.00001 12.2498C2.67388 12.6818 2.49825 13.2086 2.50001 13.7498C2.50001 14.4129 2.76341 15.0488 3.23225 15.5176C3.70109 15.9864 4.33698 16.2498 5.00001 16.2498C5.66306 16.2498 6.29894 15.9864 6.76781 15.5176C7.23663 15.0488 7.5 14.4129 7.5 13.7498C7.5 13.5841 7.56588 13.4251 7.68306 13.3079C7.80031 13.1907 7.95925 13.1248 8.125 13.1248H13.9188C14.0564 12.8865 14.2688 12.7003 14.5229 12.595C14.7772 12.4897 15.059 12.4712 15.3248 12.5424C15.5906 12.6136 15.8255 12.7706 15.993 12.9889C16.1605 13.2072 16.2513 13.4746 16.2513 13.7498C16.2513 14.025 16.1605 14.2924 15.993 14.5108C15.8255 14.7291 15.5906 14.886 15.3248 14.9573C15.059 15.0284 14.7772 15.01 14.5229 14.9047C14.2688 14.7994 14.0564 14.6131 13.9188 14.3748ZM5.00001 14.9998C5.21651 14.9999 5.42932 14.9438 5.61759 14.8369C5.80587 14.7299 5.96315 14.576 6.07404 14.3901C6.18493 14.2041 6.24563 13.9926 6.25019 13.7761C6.25475 13.5596 6.20299 13.3458 6.10001 13.1553L8.89456 8.61313C8.98125 8.47201 9.00844 8.30219 8.97006 8.14107C8.93169 7.97994 8.83088 7.84063 8.68988 7.75376C8.35581 7.54807 8.07481 7.26669 7.86963 6.93232C7.6645 6.59801 7.54088 6.22004 7.50881 5.82906C7.47675 5.43809 7.53719 5.04506 7.68519 4.68175C7.83313 4.31844 8.06456 3.99506 8.36063 3.73775C8.65675 3.48044 9.00925 3.29642 9.38969 3.20058C9.77006 3.10473 10.1677 3.09975 10.5504 3.18604C10.9331 3.27232 11.2901 3.44745 11.5925 3.69726C11.8949 3.94707 12.1344 4.26456 12.2914 4.62404C12.3577 4.77602 12.4817 4.89544 12.6361 4.95603C12.7904 5.01661 12.9625 5.01339 13.1144 4.94709C13.2664 4.88079 13.3859 4.75682 13.4464 4.60248C13.5071 4.44812 13.5038 4.27603 13.4375 4.12404C13.2124 3.60938 12.8745 3.15187 12.4488 2.78531C12.0231 2.41876 11.5205 2.15252 10.9781 2.00627C10.4358 1.86002 9.86744 1.83749 9.31519 1.94036C8.76294 2.04322 8.24088 2.26884 7.7875 2.60056C7.33413 2.93228 6.96106 3.36161 6.69594 3.85684C6.43075 4.35207 6.28025 4.90055 6.2555 5.46176C6.23075 6.02297 6.33238 6.58257 6.55294 7.09919C6.7735 7.61588 7.10731 8.07638 7.52969 8.44669L5.03439 12.4998C5.02267 12.4998 5.01173 12.4998 5.00001 12.4998C4.66849 12.4998 4.35055 12.6315 4.11613 12.8659C3.88171 13.1004 3.75001 13.4183 3.75001 13.7498C3.75001 14.0813 3.88171 14.3993 4.11613 14.6337C4.35055 14.8681 4.66849 14.9998 5.00001 14.9998ZM15 9.99982C14.5181 9.99988 14.0407 10.0924 13.5938 10.2725L11.1 6.21858C11.23 5.97778 11.2774 5.70099 11.2349 5.43068C11.1924 5.16036 11.0623 4.91146 10.8648 4.72217C10.6671 4.53287 10.4129 4.41366 10.141 4.3828C9.86913 4.35194 9.59463 4.41115 9.35963 4.55135C9.12463 4.69154 8.94213 4.90497 8.84013 5.15889C8.73813 5.4128 8.72225 5.69317 8.79494 5.95697C8.86769 6.22077 9.02494 6.45344 9.24263 6.61919C9.46031 6.78501 9.72638 6.87482 10 6.87482H10.0344L12.8297 11.4178C12.9167 11.5587 13.0561 11.6593 13.2172 11.6976C13.3783 11.7358 13.5481 11.7085 13.6891 11.6217C14.0181 11.4189 14.3897 11.2951 14.7747 11.2601C15.1597 11.2251 15.5475 11.2799 15.9078 11.4201C16.268 11.5603 16.5908 11.7821 16.8508 12.0681C17.1108 12.3541 17.301 12.6966 17.4064 13.0685C17.5117 13.4404 17.5294 13.8317 17.4579 14.2116C17.3866 14.5915 17.2281 14.9497 16.9949 15.2579C16.7616 15.5663 16.4601 15.8163 16.114 15.9884C15.7679 16.1605 15.3866 16.2499 15 16.2498C14.8343 16.2498 14.6753 16.3157 14.5581 16.4329C14.4409 16.5501 14.375 16.7091 14.375 16.8748C14.375 17.0406 14.4409 17.1996 14.5581 17.3168C14.6753 17.434 14.8343 17.4998 15 17.4998C15.9946 17.4998 16.9484 17.1048 17.6517 16.4015C18.3549 15.6982 18.75 14.7444 18.75 13.7498C18.75 12.7553 18.3549 11.8014 17.6517 11.0982C16.9484 10.3949 15.9946 9.99982 15 9.99982Z" fill="black" fill-opacity="0.56"/>
</svg>
