<svg width="46" height="20" viewBox="0 0 46 20" fill="none" xmlns="http://www.w3.org/2000/svg">
<g clip-path="url(#clip0_4605_16921)">
<path d="M20.36 15.6897C20.0178 15.6897 19.6711 15.6186 19.3378 15.4719L12.2267 12.303C10.9556 11.7386 10.3822 10.2408 10.9467 8.9697L14.1156 1.85859C14.68 0.58748 16.1778 0.0141472 17.4489 0.578592L24.56 3.74748C25.8311 4.31193 26.4044 5.8097 25.84 7.08081L22.6711 14.1919C22.2489 15.1341 21.3244 15.6897 20.36 15.6897ZM19.9289 14.1386C20.4667 14.3786 21.0978 14.1341 21.3378 13.6008L24.5067 6.4897C24.7467 5.95192 24.5022 5.32081 23.9689 5.08081L16.8533 1.91192C16.3156 1.67192 15.6844 1.91637 15.4444 2.4497L12.2756 9.56081C12.0356 10.0986 12.28 10.7297 12.8133 10.9697L19.9289 14.1386Z" fill="#089949"/>
<path d="M42.6667 15.693H34.88C33.4889 15.693 32.3556 14.5596 32.3556 13.1685V5.38187C32.3556 3.99076 33.4889 2.85742 34.88 2.85742H42.6667C44.0578 2.85742 45.1911 3.99076 45.1911 5.38187V13.1685C45.1911 14.5596 44.0578 15.693 42.6667 15.693ZM34.88 4.3152C34.2933 4.3152 33.8133 4.7952 33.8133 5.38187V13.1685C33.8133 13.7552 34.2933 14.2352 34.88 14.2352H42.6667C43.2533 14.2352 43.7333 13.7552 43.7333 13.1685V5.38187C43.7333 4.7952 43.2533 4.3152 42.6667 4.3152H34.88Z" fill="#F9B21D"/>
<path d="M13.5067 6.80966L12.4578 9.15633C12.4444 9.18299 12.4311 9.20522 12.4178 9.22744L12.8267 11.7519C12.92 12.3341 12.5244 12.8808 11.9467 12.9741L4.25778 14.2186C3.97778 14.263 3.69333 14.1963 3.46222 14.0319C3.23111 13.8674 3.08 13.6186 3.03555 13.3386L1.79111 5.64966C1.74667 5.36966 1.81333 5.08522 1.97778 4.85411C2.14222 4.62299 2.39111 4.47188 2.67111 4.42744L10.36 3.18299C10.4178 3.17411 10.4756 3.16966 10.5289 3.16966C11.04 3.16966 11.4978 3.54299 11.5822 4.06744L11.9956 6.60966L13.08 4.17855L13.0222 3.83633C12.8 2.46299 11.5022 1.52522 10.1289 1.74744L2.44 2.99188C1.77778 3.09411 1.19111 3.45411 0.799999 4.00077C0.404443 4.54744 0.248888 5.21411 0.355554 5.88077L1.6 13.5697C1.70667 14.2363 2.06667 14.8186 2.61333 15.2141C3.04444 15.5297 3.55555 15.6897 4.08444 15.6897C4.21778 15.6897 4.35555 15.6808 4.49333 15.6586L12.1822 14.4141C13.5556 14.1919 14.4933 12.8941 14.2711 11.5208L13.5067 6.80966Z" fill="#E42527"/>
<path d="M22.7289 10.4808L23.8578 7.95194L23.5378 5.60083C23.4978 5.32083 23.5733 5.04083 23.7467 4.81416C23.92 4.5875 24.1689 4.44083 24.4533 4.40527L32.1689 3.35638C32.2178 3.35194 32.2667 3.3475 32.3156 3.3475C32.5467 3.3475 32.7689 3.42305 32.96 3.56527C32.9956 3.59194 33.0267 3.62305 33.0578 3.64972C33.4 3.28972 33.8489 3.03194 34.3511 2.92083C34.2089 2.72527 34.04 2.55194 33.84 2.40083C33.3022 1.99194 32.64 1.81861 31.9733 1.9075L24.2489 2.95638C23.5822 3.04527 22.9867 3.39194 22.5822 3.92972C22.1733 4.4675 22 5.12972 22.0889 5.79638L22.7289 10.4808Z" fill="#226DB4"/>
<path d="M35.8578 11.7831L34.8444 4.31641C34.2756 4.33418 33.8178 4.8053 33.8178 5.37863V7.56974L34.4178 11.9786C34.4578 12.2586 34.3822 12.5386 34.2089 12.7653C34.0356 12.992 33.7867 13.1386 33.5022 13.1742L25.7867 14.2231C25.5067 14.2631 25.2267 14.1875 25 14.0142C24.7733 13.8408 24.6267 13.592 24.5911 13.3075L24.2356 10.6897L23.1067 13.2186L23.1467 13.5031C23.2356 14.1697 23.5822 14.7653 24.12 15.1697C24.5644 15.5075 25.0933 15.6853 25.6444 15.6853C25.76 15.6853 25.8756 15.6764 25.9911 15.6631L33.6978 14.6231C34.3644 14.5342 34.96 14.1875 35.3644 13.6497C35.7733 13.112 35.9467 12.4497 35.8578 11.7831Z" fill="#226DB4"/>
<path d="M29.1289 18.4709C29.1289 17.8042 29.6178 17.3242 30.2844 17.3242C30.9733 17.3242 31.44 17.7953 31.44 18.4753C31.44 19.1642 30.9644 19.6398 30.2756 19.6398C29.5822 19.6398 29.1289 19.1642 29.1289 18.4709ZM30.9067 18.4798C30.9067 18.0753 30.7111 17.7287 30.2711 17.7287C29.8267 17.7287 29.6578 18.0887 29.6578 18.4976C29.6578 18.8842 29.8667 19.2398 30.2933 19.2398C30.7333 19.2353 30.9067 18.8576 30.9067 18.4798ZM24.2 17.3598H24.5289C24.5778 17.3598 24.6178 17.3998 24.6178 17.4487V18.2753H25.5511V17.4487C25.5511 17.3998 25.5911 17.3598 25.64 17.3598H25.9689C26.0178 17.3598 26.0578 17.3998 26.0578 17.4487V19.5153C26.0578 19.5642 26.0178 19.6042 25.9689 19.6042H25.6444C25.5956 19.6042 25.5556 19.5642 25.5556 19.5153V18.6798H24.6222V19.5153C24.6222 19.5642 24.5822 19.6042 24.5333 19.6042H24.2044C24.1556 19.6042 24.1156 19.5642 24.1156 19.5153V17.4487C24.1111 17.3998 24.1511 17.3598 24.2 17.3598ZM18.7289 18.4709C18.7289 17.8042 19.2178 17.3242 19.8844 17.3242C20.5733 17.3242 21.04 17.7953 21.04 18.4753C21.04 19.1642 20.5644 19.6398 19.8756 19.6398C19.1822 19.6398 18.7289 19.1642 18.7289 18.4709ZM20.5111 18.4798C20.5111 18.0753 20.3156 17.7287 19.8756 17.7287C19.4311 17.7287 19.2622 18.0887 19.2622 18.4976C19.2622 18.8842 19.4711 19.2398 19.8978 19.2398C20.3378 19.2353 20.5111 18.8576 20.5111 18.4798ZM14.0889 19.3864L15.1911 17.7598H14.2844C14.2356 17.7598 14.1956 17.7198 14.1956 17.6709V17.4531C14.1956 17.4042 14.2356 17.3642 14.2844 17.3642H15.7733C15.8222 17.3642 15.8622 17.4042 15.8622 17.4531V17.5376C15.8622 17.5553 15.8578 17.5731 15.8489 17.5864L14.7689 19.2131H15.7378C15.7867 19.2131 15.8267 19.2531 15.8267 19.302V19.5198C15.8267 19.5687 15.7867 19.6087 15.7378 19.6087H14.1644C14.1156 19.6087 14.0756 19.5687 14.0756 19.5198V19.4398C14.0711 19.4176 14.08 19.3998 14.0889 19.3864Z" fill="black"/>
</g>
<defs>
<clipPath id="clip0_4605_16921">
<rect width="45.5111" height="20" fill="white"/>
</clipPath>
</defs>
</svg>
