<svg width="40" height="40" viewBox="0 0 40 40" fill="none" xmlns="http://www.w3.org/2000/svg">
<path d="M0.5 6C0.5 2.96243 2.96243 0.5 6 0.5H34C37.0376 0.5 39.5 2.96243 39.5 6V34C39.5 37.0376 37.0376 39.5 34 39.5H6C2.96243 39.5 0.5 37.0376 0.5 34V6Z" fill="white"/>
<path d="M0.5 6C0.5 2.96243 2.96243 0.5 6 0.5H34C37.0376 0.5 39.5 2.96243 39.5 6V34C39.5 37.0376 37.0376 39.5 34 39.5H6C2.96243 39.5 0.5 37.0376 0.5 34V6Z" stroke="#E2E8F0"/>
<path d="M12.1248 21.1717C11.8982 20.8609 11.785 20.7055 11.707 20.4048C11.6533 20.1976 11.6533 19.8031 11.707 19.5958C11.785 19.2952 11.8982 19.1398 12.1248 18.829C13.3659 17.1259 16.0856 14.167 20.0001 14.167C23.9146 14.167 26.6342 17.1259 27.8754 18.829C28.1019 19.1398 28.2152 19.2952 28.2931 19.5958C28.3468 19.8031 28.3468 20.1976 28.2931 20.4048C28.2152 20.7055 28.1019 20.8609 27.8754 21.1717C26.6342 22.8748 23.9146 25.8337 20.0001 25.8337C16.0856 25.8337 13.3659 22.8748 12.1248 21.1717Z" stroke="#0F172A" stroke-width="1.5" stroke-linecap="round" stroke-linejoin="round"/>
<path d="M19.9999 21.6663C20.9204 21.6663 21.6666 20.9201 21.6666 19.9997C21.6666 19.0792 20.9204 18.333 19.9999 18.333C19.0794 18.333 18.3333 19.0792 18.3333 19.9997C18.3333 20.9201 19.0794 21.6663 19.9999 21.6663Z" stroke="#020617" stroke-width="1.5" stroke-linecap="round" stroke-linejoin="round"/>
</svg>
