<svg width="25" height="25" viewBox="0 0 25 25" fill="none" xmlns="http://www.w3.org/2000/svg">
<path d="M12.6646 2.75C10.7362 2.75 8.85112 3.32183 7.24775 4.39317C5.64437 5.46451 4.39468 6.98726 3.65673 8.76884C2.91878 10.5504 2.72569 12.5108 3.1019 14.4021C3.4781 16.2934 4.4067 18.0307 5.77026 19.3943C7.13383 20.7579 8.87111 21.6865 10.7624 22.0627C12.6537 22.4389 14.6141 22.2458 16.3957 21.5078C18.1773 20.7699 19.7 19.5202 20.7714 17.9168C21.8427 16.3134 22.4146 14.4284 22.4146 12.5C22.4113 9.91513 21.3831 7.43705 19.5553 5.60927C17.7275 3.78149 15.2494 2.75323 12.6646 2.75ZM16.4146 13.25H13.4146V16.25C13.4146 16.4489 13.3355 16.6397 13.1949 16.7803C13.0542 16.921 12.8635 17 12.6646 17C12.4656 17 12.2749 16.921 12.1342 16.7803C11.9936 16.6397 11.9146 16.4489 11.9146 16.25V13.25H8.91456C8.71564 13.25 8.52488 13.171 8.38422 13.0303C8.24357 12.8897 8.16456 12.6989 8.16456 12.5C8.16456 12.3011 8.24357 12.1103 8.38422 11.9697C8.52488 11.829 8.71564 11.75 8.91456 11.75H11.9146V8.75C11.9146 8.55109 11.9936 8.36032 12.1342 8.21967C12.2749 8.07902 12.4656 8 12.6646 8C12.8635 8 13.0542 8.07902 13.1949 8.21967C13.3355 8.36032 13.4146 8.55109 13.4146 8.75V11.75H16.4146C16.6135 11.75 16.8042 11.829 16.9449 11.9697C17.0855 12.1103 17.1646 12.3011 17.1646 12.5C17.1646 12.6989 17.0855 12.8897 16.9449 13.0303C16.8042 13.171 16.6135 13.25 16.4146 13.25Z" fill="white"/>
</svg>
