<svg width="20" height="10" viewBox="0 0 20 10" fill="none" xmlns="http://www.w3.org/2000/svg">
<path d="M15.9375 5.29688C15.9375 5.54552 15.8387 5.78397 15.6629 5.95979C15.4871 6.1356 15.2486 6.23438 15 6.23438H5C4.75136 6.23438 4.5129 6.1356 4.33709 5.95979C4.16127 5.78397 4.0625 5.54552 4.0625 5.29688C4.0625 5.04823 4.16127 4.80978 4.33709 4.63396C4.5129 4.45815 4.75136 4.35938 5 4.35938H15C15.2486 4.35938 15.4871 4.45815 15.6629 4.63396C15.8387 4.80978 15.9375 5.04823 15.9375 5.29688ZM18.125 0.609375H1.875C1.62636 0.609375 1.3879 0.708147 1.21209 0.883962C1.03627 1.05978 0.9375 1.29823 0.9375 1.54688C0.9375 1.79552 1.03627 2.03397 1.21209 2.20979C1.3879 2.3856 1.62636 2.48438 1.875 2.48438H18.125C18.3736 2.48438 18.6121 2.3856 18.7879 2.20979C18.9637 2.03397 19.0625 1.79552 19.0625 1.54688C19.0625 1.29823 18.9637 1.05978 18.7879 0.883962C18.6121 0.708147 18.3736 0.609375 18.125 0.609375ZM11.875 8.10938H8.125C7.87636 8.10938 7.6379 8.20815 7.46209 8.38396C7.28627 8.55978 7.1875 8.79823 7.1875 9.04688C7.1875 9.29552 7.28627 9.53397 7.46209 9.70979C7.6379 9.8856 7.87636 9.98438 8.125 9.98438H11.875C12.1236 9.98438 12.3621 9.8856 12.5379 9.70979C12.7137 9.53397 12.8125 9.29552 12.8125 9.04688C12.8125 8.79823 12.7137 8.55978 12.5379 8.38396C12.3621 8.20815 12.1236 8.10938 11.875 8.10938Z" fill="white"/>
</svg>
