<svg width="44" height="44" viewBox="0 0 44 44" fill="none" xmlns="http://www.w3.org/2000/svg">
<g filter="url(#filter0_d_2034_16208)">
<rect x="2" y="1" width="40" height="40" rx="8" fill="white"/>
<rect x="2.5" y="1.5" width="39" height="39" rx="7.5" stroke="#D0D5DD"/>
<path d="M16.5 15.5C17.3284 15.5 18 14.8284 18 14C18 13.1716 17.3284 12.5 16.5 12.5C15.6716 12.5 15 13.1716 15 14C15 14.8284 15.6716 15.5 16.5 15.5Z" fill="black"/>
<path d="M16.5 22.5C17.3284 22.5 18 21.8284 18 21C18 20.1716 17.3284 19.5 16.5 19.5C15.6716 19.5 15 20.1716 15 21C15 21.8284 15.6716 22.5 16.5 22.5Z" fill="black"/>
<path d="M16.5 29.5C17.3284 29.5 18 28.8284 18 28C18 27.1716 17.3284 26.5 16.5 26.5C15.6716 26.5 15 27.1716 15 28C15 28.8284 15.6716 29.5 16.5 29.5Z" fill="black"/>
<path d="M27.5 15.5C28.3284 15.5 29 14.8284 29 14C29 13.1716 28.3284 12.5 27.5 12.5C26.6716 12.5 26 13.1716 26 14C26 14.8284 26.6716 15.5 27.5 15.5Z" fill="black"/>
<path d="M27.5 22.5C28.3284 22.5 29 21.8284 29 21C29 20.1716 28.3284 19.5 27.5 19.5C26.6716 19.5 26 20.1716 26 21C26 21.8284 26.6716 22.5 27.5 22.5Z" fill="black"/>
<path d="M27.5 29.5C28.3284 29.5 29 28.8284 29 28C29 27.1716 28.3284 26.5 27.5 26.5C26.6716 26.5 26 27.1716 26 28C26 28.8284 26.6716 29.5 27.5 29.5Z" fill="black"/>
</g>
<defs>
<filter id="filter0_d_2034_16208" x="0" y="0" width="44" height="44" filterUnits="userSpaceOnUse" color-interpolation-filters="sRGB">
<feFlood flood-opacity="0" result="BackgroundImageFix"/>
<feColorMatrix in="SourceAlpha" type="matrix" values="0 0 0 0 0 0 0 0 0 0 0 0 0 0 0 0 0 0 127 0" result="hardAlpha"/>
<feOffset dy="1"/>
<feGaussianBlur stdDeviation="1"/>
<feColorMatrix type="matrix" values="0 0 0 0 0.0627451 0 0 0 0 0.0941176 0 0 0 0 0.156863 0 0 0 0.05 0"/>
<feBlend mode="normal" in2="BackgroundImageFix" result="effect1_dropShadow_2034_16208"/>
<feBlend mode="normal" in="SourceGraphic" in2="effect1_dropShadow_2034_16208" result="shape"/>
</filter>
</defs>
</svg>
