<svg width="22" height="22" viewBox="0 0 22 22" fill="none" xmlns="http://www.w3.org/2000/svg">
<path d="M10.9654 0.587891C5.16676 0.587891 0.466064 5.28859 0.466064 11.0873C0.466064 16.8859 5.16676 21.5866 10.9654 21.5866C16.7641 21.5866 21.4648 16.8859 21.4648 11.0873C21.4648 5.28859 16.7641 0.587891 10.9654 0.587891ZM15.0671 11.8059H11.6746V15.1736C11.6746 15.5702 11.3532 15.8917 10.9565 15.8917C10.7581 15.8917 10.5786 15.8114 10.4486 15.6814C10.3186 15.5514 10.2384 15.3719 10.2384 15.1736V11.8059H6.87067C6.47396 11.8059 6.15254 11.4844 6.15254 11.0877C6.15254 10.8894 6.23279 10.7098 6.3628 10.5798C6.49278 10.4499 6.67234 10.3696 6.87067 10.3696H10.2384V6.97714C10.2384 6.58046 10.5598 6.25904 10.9565 6.25904C11.1549 6.25904 11.3344 6.33927 11.4644 6.46927C11.5944 6.59928 11.6746 6.77881 11.6746 6.97714V10.3696H15.0671C15.4638 10.3696 15.7852 10.691 15.7852 11.0878C15.7852 11.4844 15.4638 11.8059 15.0671 11.8059Z" fill="#3B82F6"/>
</svg>
