<svg width="32" height="33" viewBox="0 0 32 33" fill="none" xmlns="http://www.w3.org/2000/svg">
<g clip-path="url(#clip0_2034_15522)">
<path d="M26.4986 10.8089C26.0401 10.8089 25.6051 10.9103 25.2137 11.0906C24.9 9.72192 23.6732 8.69748 22.2107 8.69748C21.742 8.69748 21.2978 8.80304 20.8997 8.99098C20.5483 7.67586 19.3471 6.70417 17.9227 6.70417C17.4947 6.70417 17.0869 6.79204 16.7162 6.95042V3.24898C16.7162 1.54979 15.3339 0.16748 13.6347 0.16748C11.9355 0.16748 10.5532 1.54979 10.5532 3.24898V17.9114L8.96428 15.5527L8.9394 15.5218C7.74978 14.0429 5.65684 13.7143 4.07128 14.7575C3.24215 15.3029 2.68047 16.1396 2.48959 17.1135C2.2999 18.0814 2.50059 19.0622 3.05465 19.8772L8.72521 28.8157L8.74409 28.8442C10.1733 30.9251 12.5338 32.1675 15.0582 32.1675H21.421C25.9199 32.1675 29.5801 28.5073 29.5801 24.0084V13.8903C29.5801 12.1912 28.1978 10.8089 26.4986 10.8089ZM27.7051 24.0084C27.7051 27.4734 24.8861 30.2925 21.421 30.2925H15.0582C13.1572 30.2925 11.3793 29.3597 10.2991 27.7963L4.62934 18.8592L4.61047 18.8307C4.33615 18.4312 4.23647 17.9495 4.32959 17.474C4.42278 16.9987 4.69703 16.5901 5.10178 16.3239C5.86584 15.8212 6.87134 15.971 7.45578 16.6694L12.4282 24.0506V3.24898C12.4282 2.58367 12.9694 2.04248 13.6347 2.04248C14.3 2.04248 14.8412 2.58367 14.8412 3.24898V14.3712H16.7162V9.78573C16.7162 9.12042 17.2574 8.57923 17.9227 8.57923C18.588 8.57923 19.1292 9.12042 19.1292 9.78573V14.3712H21.0042V11.779C21.0042 11.1137 21.5454 10.5725 22.2107 10.5725C22.876 10.5725 23.4172 11.1137 23.4172 11.779V14.3712H25.2922V13.8904C25.2922 13.225 25.8334 12.6839 26.4987 12.6839C27.164 12.6839 27.7052 13.225 27.7052 13.8904V24.0084H27.7051Z" fill="#3D54CD"/>
</g>
<defs>
<clipPath id="clip0_2034_15522">
<rect width="32" height="32" fill="white" transform="translate(0 0.16748)"/>
</clipPath>
</defs>
</svg>
