<svg width="36" height="37" viewBox="0 0 36 37" fill="none" xmlns="http://www.w3.org/2000/svg">
<g filter="url(#filter0_d_2034_16230)">
<rect x="2" y="1.5" width="32" height="32" rx="8" fill="white"/>
<rect x="2.5" y="2" width="31" height="31" rx="7.5" stroke="#D0D5DD"/>
<path d="M18 13.5C18.8284 13.5 19.5 12.8284 19.5 12C19.5 11.1716 18.8284 10.5 18 10.5C17.1716 10.5 16.5 11.1716 16.5 12C16.5 12.8284 17.1716 13.5 18 13.5Z" fill="black"/>
<path d="M18 19C18.8284 19 19.5 18.3284 19.5 17.5C19.5 16.6716 18.8284 16 18 16C17.1716 16 16.5 16.6716 16.5 17.5C16.5 18.3284 17.1716 19 18 19Z" fill="black"/>
<path d="M18 24.5C18.8284 24.5 19.5 23.8284 19.5 23C19.5 22.1716 18.8284 21.5 18 21.5C17.1716 21.5 16.5 22.1716 16.5 23C16.5 23.8284 17.1716 24.5 18 24.5Z" fill="black"/>
</g>
<defs>
<filter id="filter0_d_2034_16230" x="0" y="0.5" width="36" height="36" filterUnits="userSpaceOnUse" color-interpolation-filters="sRGB">
<feFlood flood-opacity="0" result="BackgroundImageFix"/>
<feColorMatrix in="SourceAlpha" type="matrix" values="0 0 0 0 0 0 0 0 0 0 0 0 0 0 0 0 0 0 127 0" result="hardAlpha"/>
<feOffset dy="1"/>
<feGaussianBlur stdDeviation="1"/>
<feColorMatrix type="matrix" values="0 0 0 0 0.0627451 0 0 0 0 0.0941176 0 0 0 0 0.156863 0 0 0 0.05 0"/>
<feBlend mode="normal" in2="BackgroundImageFix" result="effect1_dropShadow_2034_16230"/>
<feBlend mode="normal" in="SourceGraphic" in2="effect1_dropShadow_2034_16230" result="shape"/>
</filter>
</defs>
</svg>
